<?xml version="1.0" encoding="utf-8"?>
<!-- Generator: Adobe Illustrator 21.1.0, SVG Export Plug-In . SVG Version: 6.00 Build 0)  -->
<svg version="1.1" xmlns="http://www.w3.org/2000/svg" xmlns:xlink="http://www.w3.org/1999/xlink" x="0px" y="0px"
	 viewBox="0 0 362.8 420.6" style="enable-background:new 0 0 362.8 420.6;" xml:space="preserve">
<style type="text/css">
	.st0{fill:#49BEED;}
	.st1{fill:#AFCFA4;}
	.st2{fill:#C8D7A4;}
	.st3{fill:url(#SVGID_1_);}
	.st4{fill:url(#SVGID_2_);}
	.st5{fill:url(#SVGID_3_);}
	.st6{fill:url(#SVGID_4_);}
	.st7{fill:url(#SVGID_5_);}
	.st8{fill:url(#SVGID_6_);}
	.st9{fill:#74BE92;}
	.st10{fill:#1AAB6E;}
	.st11{fill:#1A8463;}
	.st12{fill:#6CC06D;}
	.st13{fill:#D9E362;}
	.st14{fill:#B9D766;}
	.st15{fill:#83C66C;}
	.st16{fill:#469281;}
	.st17{fill:#077563;}
	.st18{fill:#005F50;}
	.st19{fill:#44502A;}
	.st20{fill:#48893E;}
	.st21{fill:#367031;}
	.st22{fill:#144616;}
	.st23{fill:#285D26;}
	.st24{fill:#245823;}
	.st25{fill:#88C540;}
	.st26{fill:#FFFFFF;}
	.st27{fill:#B9E5FB;}
	.st28{fill:#FFD940;}
	.st29{fill:#FFF791;}
</style>
<g id="Layer_7">
</g>
<g id="Layer_3">
	<rect class="st0" width="362.8" height="373.5"/>
	<path class="st1" d="M167,337.5c21,16,47.3,22.1,71.3,8.1c14.7-8.6,28.4-17.5,42.2-28.1c-0.4,0.2-1.3,0.5-1.7,0.7
		c-14.7,7-30.7,14.2-46.4,18.5c-13.7,3.8-29.1,3.2-42-3.1c-32.4-15.9-52.9-52-89.1-61.7c-12.1-3.3-24.5-2.7-36.5,0
		c12,0.5,23.9,3,35.1,7.7C128,290.5,143,318.5,167,337.5z"/>
	<path class="st2" d="M280.3,317.6c-13.6,9.7-27.3,19.3-42.1,27.9c-24,14-50,8-71.1-8c-24-19-39-47-67.1-58
		c-11.2-4.7-23.1-7.2-35.1-7.7c-11.9,2.6-23.4,7.2-34.2,12.1c-9.2,4.2-18.2,8.6-27.1,13.3c-1,0.5-2.2,1-3.4,1.6v107.7
		c0.1,0,0.2,0,0.3,0c27.4,2.5,55.7,0.5,83.2-0.4c44.3-1.4,88.6-2.9,132.9-2.9c24,0,47.8,0.1,71.7,1.7c16.1,1.1,32.3,2.3,48.4,3.1
		c7.1,0.4,18.4,1.7,23.8-4.1c0.9-1,1.7-2.2,2.3-3.4V296.1c-1.5,0-2.9,0.1-3.5,0.1C331.9,296.2,304.7,306,280.3,317.6z"/>
	<linearGradient id="SVGID_1_" gradientUnits="userSpaceOnUse" x1="22.4395" y1="248.3333" x2="104.099" y2="248.3333">
		<stop  offset="0" style="stop-color:#FFFFFF"/>
		<stop  offset="1" style="stop-color:#B1E3FA"/>
	</linearGradient>
	<path class="st3" d="M62.3,237.8c4-2.7,10.1-4.6,14.4-2.1c2,1.1,3.7,3,4.4,5.2c0.6,1.9,0,3.7-0.1,5.7c-0.1,0.6-0.7,2.4-0.4,3
		c0.5,1.3,3.9,1.1,4.9,1.1c3.4,0,6.7-0.1,10.1,0.6c3,0.6,8.3,1.6,8.5,5.5c0.4,5.3-9.7,4.5-12.9,4.8c-9.6,0.8-19.2,0.7-28.8,0.7
		c-10,0-20.1-0.2-30-1c-2.3-0.2-7.8,0.1-9.4-2.2c-1.9-2.6,1.3-6.5,3.3-8c3.8-2.9,7.4-2,11.4-0.2c0.2-3.9,0.6-8,4.2-10.3
		c2.6-1.7,6.8-2.7,9.4-0.6c1.1,0.9,3.6,4.7,5.4,3.9c0.4-0.2,1-1.7,1.2-2c1-1.3,2.2-2.5,3.6-3.5C61.8,238.1,62.1,238,62.3,237.8z"/>
	<linearGradient id="SVGID_2_" gradientUnits="userSpaceOnUse" x1="267.9144" y1="45.6882" x2="349.5738" y2="45.6882">
		<stop  offset="0" style="stop-color:#FFFFFF"/>
		<stop  offset="1" style="stop-color:#B1E3FA"/>
	</linearGradient>
	<path class="st4" d="M307.8,35.1c4-2.7,10.1-4.6,14.4-2.1c2,1.1,3.7,3,4.4,5.2c0.6,1.9,0,3.7-0.1,5.7c-0.1,0.6-0.7,2.4-0.4,3
		c0.5,1.3,3.9,1.1,4.9,1.1c3.4,0,6.7-0.1,10.1,0.6c3,0.6,8.3,1.6,8.5,5.5c0.4,5.3-9.7,4.5-12.9,4.8c-9.6,0.8-19.2,0.7-28.8,0.7
		c-10,0-20.1-0.2-30-1c-2.3-0.2-7.8,0.1-9.4-2.2c-1.9-2.6,1.3-6.5,3.3-8c3.8-2.9,7.4-2,11.4-0.2c0.2-3.9,0.6-8,4.2-10.3
		c2.6-1.7,6.8-2.7,9.4-0.6c1.1,0.9,3.6,4.7,5.4,3.9c0.4-0.2,1-1.7,1.2-2c1-1.3,2.2-2.5,3.6-3.5C307.3,35.5,307.5,35.3,307.8,35.1z"
		/>
	<linearGradient id="SVGID_3_" gradientUnits="userSpaceOnUse" x1="-27.8297" y1="34.6317" x2="53.8297" y2="34.6317">
		<stop  offset="0" style="stop-color:#FFFFFF"/>
		<stop  offset="1" style="stop-color:#B1E3FA"/>
	</linearGradient>
	<path class="st5" d="M12.1,24.1c4-2.7,10.1-4.6,14.4-2.1c2,1.1,3.7,3,4.4,5.2c0.6,1.9,0,3.7-0.1,5.7c-0.1,0.6-0.7,2.4-0.4,3
		c0.5,1.3,3.9,1.1,4.9,1.1c3.4,0,6.7-0.1,10.1,0.6c3,0.6,8.3,1.6,8.5,5.5c0.4,5.3-9.7,4.5-12.9,4.8c-9.6,0.8-19.2,0.7-28.8,0.7
		c-10,0-20.1-0.2-30-1c-2.3-0.2-7.8,0.1-9.4-2.2c-1.9-2.6,1.3-6.5,3.3-8c3.8-2.9,7.4-2,11.4-0.2c0.2-3.9,0.6-8,4.2-10.3
		c2.6-1.7,6.8-2.7,9.4-0.6c1.1,0.9,3.6,4.7,5.4,3.9c0.4-0.2,1-1.7,1.2-2c1-1.3,2.2-2.5,3.6-3.5C11.5,24.4,11.8,24.2,12.1,24.1z"/>
	<linearGradient id="SVGID_4_" gradientUnits="userSpaceOnUse" x1="222.0372" y1="251.761" x2="359.1987" y2="251.761">
		<stop  offset="0" style="stop-color:#FFFFFF"/>
		<stop  offset="1" style="stop-color:#B1E3FA"/>
	</linearGradient>
	<path class="st6" d="M300,275.3c11.1,0.2,22.3,0.7,33.4,1c1.8,0,3.6,0,5.3,0.1c1.6,0.1,3.1,0.5,4.7,0.6c3.5,0.2,7.1-0.2,10.6-0.6
		c2.8-0.4,5.2-2,5.3-5c0-3.3-3.3-5.6-6.2-6.4c-4.3-1.2-8.9-0.2-13,1.4c-2.1,0.8-4.5,2-3.1-1.1c1-2.1,2.1-5.2,1-7.4
		c-1.3-2.4-3.6-3-6.1-3.1c-1.1,0-2.1-0.2-3.2,0.1c-0.7,0.2-3.7,1.2-4,1.9c2-4.4,5-9.8,4-14.9c-0.7-3.7-3.8-7.1-7.3-8.3
		c-3.9-1.3-9-0.7-12.6,1.3c-0.8,0.4-6.3,4.2-5.9,5.1c-0.9-2-1.1-4.2-2.2-6.1c-0.8-1.5-2.3-3.1-3.6-4.2c-4.4-3.8-11.5-3.6-16.8-2.3
		c-5.3,1.3-11.9,5.3-12.8,11.2c-0.3,1.8,0.1,3.7,0,5.5c-2-0.7-3.5-1.7-5.7-1.8c-3.6-0.1-6.5,1-8.9,3.7c-2.4,2.7-3.4,6.1-2.4,9.7
		c0.7,2.5,2.6,4,3.9,6c-2-0.2-4.2-0.9-6.1-1.4c-4.1-1-8.2-1.9-12.4-1.6c-3.6,0.3-7.5,1.4-10.4,3.6c-2.1,1.6-4.4,4-2.5,6.6
		c1.6,2.1,4.5,3.4,7,3.8c8.7,1.4,17.5,1.1,26.2,1.6c9.2,0.5,18.5,0.7,27.7,0.9c4.1,0.1,8.1,0.1,12.2,0.1
		C297.2,275.2,298.6,275.2,300,275.3z"/>
	<linearGradient id="SVGID_5_" gradientUnits="userSpaceOnUse" x1="-12.328" y1="138.0221" x2="124.8335" y2="138.0221">
		<stop  offset="0" style="stop-color:#FFFFFF"/>
		<stop  offset="1" style="stop-color:#B1E3FA"/>
	</linearGradient>
	<path class="st7" d="M65.6,161.5c11.1,0.2,22.3,0.7,33.4,1c1.8,0,3.6,0,5.3,0.1c1.6,0.1,3.1,0.5,4.7,0.6c3.5,0.2,7.1-0.2,10.6-0.6
		c2.8-0.4,5.2-2,5.3-5c0-3.3-3.3-5.6-6.2-6.4c-4.3-1.2-8.9-0.2-13,1.4c-2.1,0.8-4.5,2-3.1-1.1c1-2.1,2.1-5.2,1-7.4
		c-1.3-2.4-3.6-3-6.1-3.1c-1.1,0-2.1-0.2-3.2,0.1c-0.7,0.2-3.7,1.2-4,1.9c2-4.4,5-9.8,4-14.9c-0.7-3.7-3.8-7.1-7.3-8.3
		c-3.9-1.3-9-0.7-12.6,1.3c-0.8,0.4-6.3,4.2-5.9,5.1c-0.9-2-1.1-4.2-2.2-6.1c-0.8-1.5-2.3-3.1-3.6-4.2c-4.4-3.8-11.5-3.6-16.8-2.3
		c-5.3,1.3-11.9,5.3-12.8,11.2c-0.3,1.8,0.1,3.7,0,5.5c-2-0.7-3.5-1.7-5.7-1.8c-3.6-0.1-6.5,1-8.9,3.7c-2.4,2.7-3.4,6.1-2.4,9.7
		c0.7,2.5,2.6,4,3.9,6c-2-0.2-4.2-0.9-6.1-1.4c-4.1-1-8.2-1.9-12.4-1.6c-3.6,0.3-7.5,1.4-10.4,3.6c-2.1,1.6-4.4,4-2.5,6.6
		c1.6,2.1,4.5,3.4,7,3.8c8.7,1.4,17.5,1.1,26.2,1.6c9.2,0.5,18.5,0.7,27.7,0.9c4.1,0.1,8.1,0.1,12.2,0.1
		C62.8,161.5,64.2,161.5,65.6,161.5z"/>
	<linearGradient id="SVGID_6_" gradientUnits="userSpaceOnUse" x1="315.0766" y1="153.261" x2="452.2382" y2="153.261">
		<stop  offset="0" style="stop-color:#FFFFFF"/>
		<stop  offset="1" style="stop-color:#B1E3FA"/>
	</linearGradient>
	<path class="st8" d="M393,176.8c11.1,0.2,22.3,0.7,33.4,1c1.8,0,3.6,0,5.3,0.1c1.6,0.1,3.1,0.5,4.7,0.6c3.5,0.2,7.1-0.2,10.6-0.6
		c2.8-0.4,5.2-2,5.3-5c0-3.3-3.3-5.6-6.2-6.4c-4.3-1.2-8.9-0.2-13,1.4c-2.1,0.8-4.5,2-3.1-1.1c1-2.1,2.1-5.2,1-7.4
		c-1.3-2.4-3.6-3-6.1-3.1c-1.1,0-2.1-0.2-3.2,0.1c-0.7,0.2-3.7,1.2-4,1.9c2-4.4,5-9.8,4-14.9c-0.7-3.7-3.8-7.1-7.3-8.3
		c-3.9-1.3-9-0.7-12.6,1.3c-0.8,0.4-6.3,4.2-5.9,5.1c-0.9-2-1.1-4.2-2.2-6.1c-0.8-1.5-2.3-3.1-3.6-4.2c-4.4-3.8-11.5-3.6-16.8-2.3
		c-5.3,1.3-11.9,5.3-12.8,11.2c-0.3,1.8,0.1,3.7,0,5.5c-2-0.7-3.5-1.7-5.7-1.8c-3.6-0.1-6.5,1-8.9,3.7c-2.4,2.7-3.4,6.1-2.4,9.7
		c0.7,2.5,2.6,4,3.9,6c-2-0.2-4.2-0.9-6.1-1.4c-4.1-1-8.2-1.9-12.4-1.6c-3.6,0.3-7.5,1.4-10.4,3.6c-2.1,1.6-4.4,4-2.5,6.6
		c1.6,2.1,4.5,3.4,7,3.8c8.7,1.4,17.5,1.1,26.2,1.6c9.2,0.5,18.5,0.7,27.7,0.9c4.1,0.1,8.1,0.1,12.2,0.1
		C390.3,176.7,391.6,176.7,393,176.8z"/>
</g>
<g id="Layer_6">
</g>
<g id="Layer_4">
	<path class="st9" d="M197.7,367.6c-0.3-0.8-0.5-1.3-0.7-1.1c-0.8,0.7-1.2,1.7-1.2,2.7c1.2-1.6,1.1-8.8-0.8-10
		c-0.7,1.1-1.3,2.3-1.2,3.7c0-3,1.6-17.6-2.8-17.9c-4.7-0.3-3.3,13.4-4.2,15.7c-2.9-1.7-2.6-6.3-4.1-9c-1.1-2.1-2.8-7.5-5.3-8.2
		c-5-1.3-4.1,7.8-6.5,9.6c-4.2,3.2-3-7.3-5-8.9c-2.9-2.3-4.2,5.5-5.6,7c-1.3-3.3,2-14.9-2-16.8c-3.2-1.5-4.9,5.5-5,7.6
		c-0.5-3.4-0.6-16-6-14.7c-5.7,1.4-4.8,14.8-5.1,19c-1-1.6-2.7-7.8-4.6-7.9c-2.1-0.1-3.5,5-4.1,6.4c0.8-1.8,0.5-7.1,0.4-9.2
		c-0.1-2.1-1.1-6.4-3.9-6.6c-4.3-0.3-4.8,9.4-6,12.2c-0.4-5.2,2.5-16.8-2.8-19.7c-6.2-3.5-8.9,11.3-9.3,15.2
		c-0.9-1.3-0.3-3.5-0.4-5.2c-0.1-1.9-0.6-8.2-2.5-9.3c-3.8-2.2-5.5,9.3-6.6,11.5c-1.4-2.5,0.8-16.2-4.1-14.8
		c-3.1,0.9-4.1,5.4-4.6,8.1c-0.3,1.7-0.4,3.4-0.4,5.2c0,0.9-1.2,5.6-1.1,5.7c-2-3.1-1-15.1-7-13.8c-4.2,0.9-5,11.5-8.3,9.3
		c-3.4-2.2-1.3-12.4-7.5-9.3c-5,2.6-4.2,13-8.5,14.6c-0.1-1.4-0.2-6.9-2-7c-1.6-0.1-2.9,3.4-4,4c-0.5-2.4-0.3-11.2-3.1-12.3
		c-2.2-0.8-3.9,4.2-4.6,5.6c-0.8-4.9-5.7-17.7-10.6-18.6c-8-1.5-11.9,13.7-13.2,19c-1.7-1.2-2.5-3.8-4.2-4.9
		c-1.1,1.5-1.5,3.4-1.5,5.2c-1.7-3.4-5.4-11.9-9.7-11.3c-4.6,0.7-6.9,5.7-7.9,12.3v30.2c0.2,0,0.4,0.1,0.6,0.1
		c0,0.7,0.5,1.1,0.4,1.9c6.2,0.9,13.1-1.3,19.3-1.6c13.6-0.7,27.5,1.3,41.1,1.9c14.7,0.7,29.5-0.2,44.3,1.3c6.7,0.7,13.3,0.8,20.1,1
		c5.4,0.2,9.3,2.4,14.2,4.5c9.1,3.8,18.8,2.7,28.2,4.8c8.1,1.8,18,3.9,26.4,2.8c2.8-0.4,4-1.8,4.3-4.7
		C198.8,372.5,198.3,369.3,197.7,367.6z"/>
	<path class="st9" d="M362.7,330c-0.2-0.7-0.4-1.3-0.7-1.8c-2.9-4.4-4,5.2-5.7,7.3c-2.4-1.7,0.6-10.6-3.6-10.6
		c-2.7,0-5.2,10.2-6.4,12.2c-1.3-2.7-0.5-12-4.9-9.5c-4.7,2.7-1.4,12.2-4,15.5c-1.3-3.3-1.6-10.4-6-7.9c-3.9,2.1-3.8,9.2-7.4,10.9
		c-0.1-2.6,0.6-15-2-16c-2.8-1.1-4.5,4.8-5.6,6.4c0-4-2.3-14.1-7.3-14.6c-6.7-0.7-6.7,12.8-9.4,16.2c-1.4-1.2-2.2-6.5-4.4-6.6
		c-2.9-0.2-3.9,7.9-4.3,9.8c-0.5,2.5-2.3,12.1-5.5,6.3c-2.3-4.1,0.1-10.5-4.5-13.8c-4.4-3.2-4.9,6.1-5.3,9
		c-0.3,2.6-0.4,13.7-5.4,11.7c-4.6-1.8-1.7-10.7-5.3-12.7c-1,1.6-1.5,4.7-3.3,5.3c-0.8-3.8-3.5-10.1-6.4-4.3
		c-2.6,5.2-1.4,12.3-2.4,18c-0.7,4.2-1.4,7.7-1,11.8c0.2,2.6,0,4.9,2.7,5.7c2.7,0.8,8.2-0.3,11.2-0.2c9.9,0.3,19.7,1.5,29.6,2
		c14.7,0.7,29.5-0.2,44.3,1.3c3.6,0.4,7.4,1.3,10.9,1.4c0.9,0,9.2-1.2,12-1.8V330z"/>
	<path class="st10" d="M190.9,371.5c-0.3-1.8-1.3-3-3.5-2c0.8-1,2.4-2.7,2.1-4c-0.6-2.5-6-2.1-7.7-1.4c0.6-2.6,3.2-5.2,0.3-7.6
		c-1.5-1.3-3-1-4.1,0.1c0.3-3.9-13.3-7.5-10.4,1.2c-1.4,0-1.4,2.3-1,3.7c-2.4-1.3-5.6-3.3-7.4-0.5c0.3-0.8,0.3-1.6-0.2-2.4
		c-0.4,0.3-0.8,0.5-1.2,0.8c0.7-2.3,2.7-3.4,2-6.3c-0.5-2.3-2.8-4.9-5.3-3.5c1.5-4.3-6.5-6.3-9.5-5.5c-4.6,1.2-7.2,5.9-7,10.4
		c-0.9-1.1-2-1.3-2.8,0c0.4-2.4-3.5-6.1-4.5-2.1c0.2-3.3-1.5-7.3-4.9-8.2c-2.4-0.6-5.9,0.4-7.4,2.6c3.1-7.3-9.1-8.5-8.3-3.5
		c-1-2.6-4.4,4.5-5,5.1c-0.2-1.7-0.5-3.7,1.2-4.6c-0.4-1-0.3-1.3-0.3-2.3c-1-1.4-3.2-3-4.2-1.5c2.3-3.7-11.4-5.4-9.2,1.5
		c-3.5-2.9-6.2,1.4-5.8,3.8c-1.7-1.1-4.1-1.5-5.9-0.8c0.7-1.5,0-3.2-1.3-2.4c1.2-1.8,0.8-4.5-0.9-6c-2.3-2-4.9-0.4-6.9,1
		c0.3-2.6-2.1-4.6-4.6-4.7c-1.1-0.1-2.3,0.2-3,1c-0.4,0.4-1.2,3.9-1.2,3.9c-1.2,0.1-1.8-0.3-2.8,0.7c-0.8,0.8-2.2,3.3-1.2,4.3
		c-1.3-2.8-6.7,1.9-3.2,4.1c-1-0.1-5.1-0.7-4.2,1.6c0.9-0.7,0.1-2.7-0.4-3.4c-0.9-1.2-1.8-1.1-3.1-0.6c1-1.6,1.6-3.1,0.4-4.9
		c-1.5-2.3-5.3-2.3-7-0.4c0.3-2.5-0.7-5.1-2.3-7c-4.1-4.9-7.2-0.9-11.4,0.3c-2.4,0.7-4.7-1-7.3,1.4c-1.6,1.6-2.2,4.5-1.5,6.6
		c-1.9-1.6-4.4,0.3-5.6,2.2c0.3-3.1-4-5.9-6.7-3c0.7-1.6-0.7-2-2.2-2.2c-1.7-0.3-3.4,0.6-4.9,1.8v40.8c0.2,0,0.4,0.1,0.6,0.1
		c0,0.7,0.5,1.1,0.4,1.9c6.2,0.9,13.1-1.3,19.3-1.6c13.6-0.7,27.5,1.3,41.1,1.9c14.7,0.7,29.5-0.2,44.3,1.3
		c15,1.5,30.2,1.1,45.3,0.2c7.7-0.4,15.4-1,23.1-1.4c5.6-0.3,14.3,0.8,16.8-6C190.9,375.1,191.2,373.1,190.9,371.5z"/>
	<path class="st10" d="M362.8,347.9c-2.9-0.3-6.7,3.2-7.7,5.2c2.8-7.1-5.7-7.6-7.5-3c0.2-0.6-3.8-2.1-4.3-2.3
		c-1.6-0.5-3-0.4-4.6-0.2c-2.5,0.3-6.1,1.2-5.9,4.4c-1.5,0-2.2,1.4-2.2,2.8c-0.2-1.2-0.8-3.1-1.7-3.9c-1-0.9-1.7-0.4-2.8-0.1
		c0.2-0.8,0.7-1.6,0.9-2.5c0.1-1.2-0.5-2.6-1.2-3.6c-1.5-2-3.8-1.9-5.1,0.2c-0.5-2.4-3.7-1.8-5.1-0.8c-1.8,1.3-2.9,3.7-2.7,6
		c-0.6-2.7-2.3-2-4.3-1.7c-1.2,0.1-2.2,0.1-3.3,0.6c-0.3,0.1-3,1.7-2.7,2c-1-1.7-2.2-1.5-3.9-1.3c-0.8,0.1-1.8-0.2-2.5,0.1
		c-1,0.5-0.5,1-0.8,1.6c1.4-2.6-5.7-2.5-6.8-2.1c-3.1,1.1-6.4,6.1-3.5,9c-1.6-0.3-4.2-1.3-4.1,1.5c-0.9-4.9-7.6-3.5-7.6,1
		c-0.9-0.8-2.1-1.4-3.3-1.4c-0.4,0-2.8,0.2-3,0.4c2.9-2.3,3.6-5.8-0.7-7.6c-2.5-1.1-8.4,0.3-6.6,3.5c-1.1-2.8-5.5-2.5-7.5-0.6
		c-2.1,2.1-1.7,5.7-0.5,8c-3.3-2.6-5.7,0.3-3.6,3.3c-1.1-1.7-3.4-3.7-4.8-1.7c0.4-1,0.2-2.4-0.9-3.1c-1.6-1-3.9,0.6-5.3,1.4
		c3.2-2.4,1.6-6-2.3-6.8c-4.2-0.9-5,1.9-7.5,4.1c-6.3-2.6-4.5,3.7-4.2,6.9c-4.4-3-4,4.4-3.1,6.4c1.7,4,3.8,7.3,8.2,7.6
		c5.9,0.4,11.9,0.4,17.9,0.2c13.3-0.4,26.5-1.9,39.8-2.5c14.3-0.6,28.9,0.9,43,2.4c11.2,1.2,22.9,1.4,33.9,3.9V347.9z"/>
</g>
<g id="Layer_5">
	<g>
		<g>
			<path class="st11" d="M146.8,352.1c-0.2,8.5-1.5,18.1,0.7,26.5c0.1,0.6,1.1,0.6,1.1,0c-0.1-4.2-0.7-8.3-0.7-12.5
				c-0.1-4.6,0.1-9.2,0-13.9C147.9,351.5,146.8,351.4,146.8,352.1L146.8,352.1z"/>
		</g>
	</g>
	<g>
		<g>
			<path class="st11" d="M143.7,355.1c1.5,1.5,2,3.4,3,5.2c0.2,0.4,0.8,0.2,0.7-0.2c-0.3-2-1.6-4.1-3-5.6
				C143.9,354.1,143.3,354.7,143.7,355.1L143.7,355.1z"/>
		</g>
	</g>
	<g>
		<g>
			<path class="st11" d="M147.7,365.2c0.8-0.7,1.5-1.5,2.3-2.2c0.7-0.7,1.5-1.4,2.1-2.2c0.2-0.4-0.2-1-0.6-0.7
				c-0.9,0.5-1.5,1.3-2.2,2c-0.7,0.8-1.5,1.5-2.2,2.3C146.5,364.9,147.2,365.7,147.7,365.2L147.7,365.2z"/>
		</g>
	</g>
	<g>
		<g>
			<path class="st11" d="M121.5,351.8c-0.2,8.4-1.4,18.1,1.5,26.2c0.1,0.4,0.8,0.2,0.7-0.2c-1-8.7-1.1-17.2-1.2-25.9
				C122.5,351.3,121.5,351.2,121.5,351.8L121.5,351.8z"/>
		</g>
	</g>
	<g>
		<g>
			<path class="st11" d="M118.6,353c0.7,1.7,1.5,3.7,2.8,5.1c0.3,0.4,0.8,0,0.7-0.4c-0.6-1.8-1.8-3.3-2.6-5
				C119.2,352,118.3,352.5,118.6,353L118.6,353z"/>
		</g>
	</g>
	<g>
		<g>
			<path class="st11" d="M123.1,363.1c1.4-1.7,2.8-3.3,4.3-4.9c0.4-0.5-0.2-1.3-0.7-0.8c-1.6,1.6-3,3.3-4.4,5.1
				C121.8,363.1,122.7,363.6,123.1,363.1L123.1,363.1z"/>
		</g>
	</g>
	<g>
		<g>
			<path class="st11" d="M122,368.7c-1.4-1.1-2.7-2.4-4-3.6c-0.4-0.4-1.1,0.3-0.7,0.8c1.2,1.4,2.6,2.7,4.1,3.8
				C121.9,370.1,122.6,369.1,122,368.7L122,368.7z"/>
		</g>
	</g>
	<g>
		<g>
			<path class="st11" d="M230.3,363.9c0.3,6.1,0.3,12.3,1.4,18.3c0.1,0.4,0.7,0.4,0.7,0c-0.2-6.1-1-12.3-1.3-18.4
				C231,363.3,230.3,363.4,230.3,363.9L230.3,363.9z"/>
		</g>
	</g>
	<g>
		<g>
			<path class="st11" d="M227.3,365.8c1,1.3,1.9,2.9,3.2,4c0.3,0.2,0.6-0.1,0.5-0.4c-0.7-1.5-1.9-2.8-3-4.2
				C227.7,364.7,226.9,365.3,227.3,365.8L227.3,365.8z"/>
		</g>
	</g>
	<g>
		<g>
			<path class="st11" d="M173.6,360.7c-0.2,6.3,0.4,12.7,1.2,18.9c0.1,0.4,0.7,0.4,0.7,0c0.1-6.3-1.1-12.5-1-18.8
				C174.4,360.3,173.6,360.2,173.6,360.7L173.6,360.7z"/>
		</g>
	</g>
	<g>
		<g>
			<path class="st11" d="M171.4,362.9c0.8,0.9,1.5,1.8,2.3,2.6c0.2,0.2,0.6,0.1,0.6-0.3c-0.3-1.3-1.4-2-2.2-2.9
				C171.7,362,171.1,362.5,171.4,362.9L171.4,362.9z"/>
		</g>
	</g>
	<g>
		<g>
			<path class="st11" d="M175,369.5c1.3-1.5,2.6-3.1,3.5-4.9c0.2-0.3-0.3-0.6-0.6-0.4c-1.4,1.4-2.3,3.3-3.5,4.8
				C174,369.5,174.6,369.9,175,369.5L175,369.5z"/>
		</g>
	</g>
	<g>
		<g>
			<path class="st11" d="M174.7,372.9c-1.1-1.1-2.6-2-4-2.5c-0.4-0.1-0.7,0.3-0.5,0.7c0.9,1.2,2.6,1.7,3.8,2.6
				C174.5,374,175.1,373.3,174.7,372.9L174.7,372.9z"/>
		</g>
	</g>
	<g>
		<g>
			<path class="st11" d="M5.7,344.9c0.7,9.9,1.4,19.8,2.5,29.6c0,0.5,0.8,0.4,0.8,0c0.3-9.9-1.9-19.8-2.6-29.7
				C6.3,344.3,5.7,344.5,5.7,344.9L5.7,344.9z"/>
		</g>
	</g>
	<g>
		<g>
			<path class="st11" d="M2.7,348.5c1.3,1.3,2.6,2.7,3.9,4.1c0.3,0.3,0.7,0,0.6-0.4c-0.8-1.8-2.4-2.9-3.8-4.2
				C3,347.5,2.3,348.1,2.7,348.5L2.7,348.5z"/>
		</g>
	</g>
	<g>
		<g>
			<path class="st11" d="M7.7,357.7c1.2-1.3,2.5-2.7,3.2-4.4c0.2-0.4-0.4-0.7-0.6-0.5c-1.3,1.2-2.1,2.8-3.3,4.1
				C6.6,357.4,7.3,358.1,7.7,357.7L7.7,357.7z"/>
		</g>
	</g>
</g>
<g id="Layer_2">
	<path class="st12" d="M80.5,374.2c1.6-2.8,3.7-0.5,4.1,1.7c1.3-1.2,2.7-0.7,3.8,0.5c-0.3-4.5,7.2-10.1,9.4-4.3
		c4.2-4.4,9.4,1.5,6.8,5.8c1.4-1,1.3-0.6,2.2,0.6c-0.5-1.9,0.6-3.1,2.3-2c-0.1-2.3,1.5-4.1,3.8-4.6c2-0.4,7.6,2.1,5.3,3.6
		c0.5-4.1,5.7-1.3,7,0.6c1.8,2.7,1,6.2,1.6,9c-9.4,2.9-21.2,0.7-30.9,0.7c-8.8,0-17,0.1-25.6-0.4c-3.1-6.2-1.5-7.8,4.8-6.3
		C71.1,373.8,78.7,367.6,80.5,374.2"/>
	<path class="st12" d="M33.8,376.1c-1.1-1.7-5.2-4-6.6-1.9c-0.7-1.4-4.2-2.7-5.7-2.4c-2.3,0.5-3.9,2.2-3.8,4.6
		c-1.6-1.1-2.7,0.2-2.3,2c-0.9-1.2-0.9-1.6-2.2-0.6c2.6-4.3-2.6-10.2-6.8-5.8c-1.2-3.3-4.2-2.9-6.5-1.1v14.9c1.5,0,3,0,4.5,0
		c9.7,0,21.6,2.1,30.9-0.7C34.8,382.2,35.6,378.8,33.8,376.1z"/>
	<path class="st12" d="M24.8,375.5c1.6-2.8,3.7-0.5,4.1,1.7c1.3-1.2,2.7-0.7,3.8,0.5c-0.3-4.5,7.2-10.1,9.4-4.3
		c4.2-4.4,9.4,1.5,6.8,5.8c1.4-1,1.3-0.6,2.2,0.6c-0.5-1.9,0.6-3.1,2.3-2c-0.1-2.3,1.5-4.1,3.8-4.6c2-0.4,7.6,2.1,5.3,3.6
		c0.5-4.1,5.7-1.3,7,0.6c1.8,2.7,1,6.2,1.6,9c-9.4,2.9-21.2,0.7-30.9,0.7c-8.8,0-17,0.1-25.6-0.4c-3.1-6.2-1.5-7.8,4.8-6.3
		C15.4,375.1,23,368.9,24.8,375.5"/>
	<path class="st12" d="M189.8,374.2c1.6-2.8,3.7-0.5,4.1,1.7c1.3-1.2,2.7-0.7,3.8,0.5c-0.3-4.5,7.2-10.1,9.4-4.3
		c4.2-4.4,9.4,1.5,6.8,5.8c1.4-1,1.3-0.6,2.2,0.6c-0.5-1.9,0.6-3.1,2.3-2c-0.1-2.3,1.5-4.1,3.8-4.6c2-0.4,7.6,2.1,5.3,3.6
		c0.5-4.1,5.7-1.3,7,0.6c1.8,2.7,1,6.2,1.6,9c-9.4,2.9-21.2,0.7-30.9,0.7c-8.8,0-17,0.1-25.6-0.4c-3.1-6.2-1.5-7.8,4.8-6.3
		C180.4,373.8,188,367.6,189.8,374.2"/>
	<path class="st12" d="M134.1,375.5c1.6-2.8,3.7-0.5,4.1,1.7c1.3-1.2,2.7-0.7,3.8,0.5c-0.3-4.5,7.2-10.1,9.4-4.3
		c4.2-4.4,9.4,1.5,6.8,5.8c1.4-1,1.3-0.6,2.2,0.6c-0.5-1.9,0.6-3.1,2.3-2c-0.1-2.3,1.5-4.1,3.8-4.6c2-0.4,7.6,2.1,5.3,3.6
		c0.5-4.1,5.7-1.3,7,0.6c1.8,2.7,1,6.2,1.6,9c-9.4,2.9-21.2,0.7-30.9,0.7c-8.8,0-17,0.1-25.6-0.4c-3.1-6.2-1.5-7.8,4.8-6.3
		C124.7,375.1,132.3,368.9,134.1,375.5"/>
	<path class="st12" d="M299.1,374.2c1.6-2.8,3.7-0.5,4.1,1.7c1.3-1.2,2.7-0.7,3.8,0.5c-0.3-4.5,7.2-10.1,9.4-4.3
		c4.2-4.4,9.4,1.5,6.8,5.8c1.4-1,1.3-0.6,2.2,0.6c-0.5-1.9,0.6-3.1,2.3-2c-0.1-2.3,1.5-4.1,3.8-4.6c2-0.4,7.6,2.1,5.3,3.6
		c0.5-4.1,5.7-1.3,7,0.6c1.8,2.7,1,6.2,1.6,9c-9.4,2.9-21.2,0.7-30.9,0.7c-8.8,0-17,0.1-25.6-0.4c-3.1-6.2-1.5-7.8,4.8-6.3
		C289.7,373.8,297.3,367.6,299.1,374.2"/>
	<path class="st12" d="M243.5,375.5c1.6-2.8,3.7-0.5,4.1,1.7c1.3-1.2,2.7-0.7,3.8,0.5c-0.3-4.5,7.2-10.1,9.4-4.3
		c4.2-4.4,9.4,1.5,6.8,5.8c1.4-1,1.3-0.6,2.2,0.6c-0.5-1.9,0.6-3.1,2.3-2c-0.1-2.3,1.5-4.1,3.8-4.6c2-0.4,7.6,2.1,5.3,3.6
		c0.5-4.1,5.7-1.3,7,0.6c1.8,2.7,1,6.2,1.6,9c-9.4,2.9-21.2,0.7-30.9,0.7c-8.8,0-17,0.1-25.6-0.4c-3.1-6.2-1.5-7.8,4.8-6.3
		C234.1,375.1,241.7,368.9,243.5,375.5"/>
	<path class="st12" d="M362.3,373.6c-1,1.2-1.7,2.7-1.6,4.1c-1.1-1.2-2.5-1.7-3.8-0.5c-0.5-2.2-2.5-4.5-4.1-1.7
		c-1.8-6.6-9.4-0.4-5.4,5c-6.3-1.5-7.9,0.1-4.8,6.3c6.7,0.4,13.1,0.4,19.8,0.4V373.6z"/>
</g>
<g id="Layer_1">
	<path class="st13" d="M341.3,400.5c-114.7-16.8-231-17.2-341.3,9.7v10.4h362.8v-16.3C355.7,402.9,348.5,401.7,341.3,400.5z"/>
	<path class="st14" d="M341.3,400.5c7.2,1.2,14.4,2.4,21.5,3.8v-21.5H0v27.4C110.3,383.3,226.6,383.7,341.3,400.5z"/>
	<path class="st15" d="M40.6,400.8C40.7,400.8,40.7,400.8,40.6,400.8c1.6-0.2,14.6-5,19.6-7c-1,0.2-22.3,6-23.7,6.5
		C38.2,400.9,38.9,400.2,40.6,400.8z"/>
	<path class="st15" d="M71.3,390.5C71.3,390.5,71.4,390.5,71.3,390.5c1.6-0.2,14.6-5,19.6-7c-1,0.2-22,4.9-23.4,5.4
		C69.2,389.4,69.6,389.9,71.3,390.5z"/>
	<path class="st15" d="M103.3,388.5C103.3,388.5,103.4,388.5,103.3,388.5c1.6-0.2,14.6-5,19.6-7c-1,0.2-21,5.1-22.4,5.7
		C102.2,387.7,101.6,387.9,103.3,388.5z"/>
	<path class="st15" d="M275.1,392.3c0,0,0.2,0,0.2,0c1.5-0.2,14.6-4.5,19.5-6.5c-1,0.2-23.4,4.7-24.7,5.3
		C271.8,391.6,273.4,391.7,275.1,392.3z"/>
	<path class="st15" d="M307.9,400C307.9,400,307.9,400,307.9,400c1.6-0.2,14.7-5,19.6-7c-1,0.2-23.4,4.7-24.7,5.3
		C304.4,398.8,306.2,399.4,307.9,400z"/>
	<path class="st15" d="M336.4,409.6c0,0,1.5,0.4,1.5,0.5c1.5-0.2,18.8-8.1,23.7-10.1c-1,0.2-29,7.3-30.4,7.9
		C333,408.4,334.7,409,336.4,409.6z"/>
	<g>
		<path class="st16" d="M250.3,372.9c-2.6-16.2-4.2-32.5-3.2-48.8c-0.9,4.7-2.6,8.4-6.2,11.7c1.3,0.5,2.8,0.1,3.9-0.7
			c-0.3,0.5-0.4,1.1-0.6,1.5c0.5-0.4,1.3-0.6,1.8-1.1c0,0,0,0,0,0c0-0.1,0.1-0.1,0,0c0,0,0,0,0,0c-1.1,3.6-4.3,6-7.3,7.9
			c1.4,0.6,2.9,0.1,4.2-0.7c-0.1,0.4,0,0.8-0.1,1.2c0.5-0.4,1.6-0.6,2.1-0.9c-1.6,3.3-4.2,5.7-7.4,7.5c1.6,0.4,3.5-0.1,5-0.7
			c-0.3,0.4-0.5,0.9-0.7,1.4c0.3-0.1,0.8-0.3,1.2-0.4c-0.8,3.9-4.6,5-6.5,7.8c1.3,0,2.7-0.4,3.9-0.7c-0.1,0.4,0,1.1,0,1.5
			c1-0.4,2.1-0.7,3.1-1.1c-1.4,3.9-5.6,5.2-7.4,8.2c1.3,0.1,2.8-0.3,4.2-0.5c-0.1,0.5,0,1.3-0.1,1.6c0.8-0.6,1.9-1.1,2.7-1.8
			c0.1,0.1-0.1,0.4,0,0.5c0.2,0.1,0.4-0.3,0.5-0.2c-2.1,3.5-4.8,5.7-8.4,7.8c0.1,0,0.2,0.1,0.4,0.1c1.6-0.7,3.4-0.9,5-0.9
			c0.4,0,0.6,0.4,0.5,0.7c0.4,0,0.8-0.1,1.1-0.1c0.5-0.6,1.4-0.6,1.9-0.9c0.1,0.2,0.2,0.4,0.3,0.5c0.8-0.4,1.6-0.7,2.4-1.1
			c0.5-0.2,0.9,0.1,0.8,0.6c0,0,0,0,0,0c0.1,0,0.2,0,0.3,0.1c0.3,0.2,1.1,0.6,1.8,0.9c0.3,0,0.7-0.1,1-0.2c0-0.1-0.1-0.1-0.1-0.2
			C250,373.3,250.1,373,250.3,372.9z"/>
		<path class="st17" d="M250.9,372.8c0.4,0.2,0.9,0.4,1.3,0.6c0.4-0.1,0.7-0.2,1.1-0.3c-0.1-0.1-0.2-0.2-0.3-0.3
			c-0.4-0.3-0.3-1,0.3-1c1.1,0,2.2,0.2,3.2,0.4c0,0,0.1,0,0.1,0c-0.3-0.3-0.1-1,0.4-0.9c0.6,0.1,1.2,0.2,1.9,0.2
			c0.2-0.1,0.3-0.1,0.5-0.2c0.1-0.2,0.3-0.4,0.5-0.4c0.2,0,0.5,0,0.7,0c0.4-0.1,0.7-0.3,0.9-0.3c-0.5-0.6-6.2-5.6-6.4-5.7
			c0.5,0,1.1,0,1.6,0.1c-0.5-0.2-1.2-0.6-1.8-0.8c0,0,0,0,0,0c-0.1,0-0.1,0,0,0c0,0,0,0,0,0c2.4-0.4,4.7-0.8,7.1-0.7
			c-2.3-2.2-5.8-2.9-7.9-6.1c0.3,0,0.7,0.1,1.1,0.1c-0.4-0.3-1.1-1.2-1.6-1.5c2.4-0.4,4.9,0.1,7.2-0.5c-2.6-1.5-6.5-2.4-7.8-5.5
			c0.7,0.3,1.6,0.3,2.2,0.5c-0.4-0.3-0.8-1.2-1.2-1.6c1.5,0.4,3.2,0.2,4.4-0.4c-3.1-1.6-4.6-2-6.3-5.1c0.8,0.2,0.7-0.2,1.2-0.2
			c-2.1-2.4-3.1-4.1-3.4-7.4c0.4,0.2,0.9,0.5,1.2,0.6c-0.2-0.4-0.3-0.9-0.5-1.4c1.2,0.9,2.9,1.7,4.2,0.4c-5.5-1.3-6.6-10.1-7.3-14.6
			l-0.4,1.4c-0.1,0.6-0.2,1.3-0.3,1.9c-0.9,16.2,0.6,32.6,3.2,48.8C250.5,372.8,250.7,372.7,250.9,372.8z"/>
		<polyline class="st18" points="248.8,371.3 248.6,382.8 251.9,382.8 250.6,371.1 		"/>
	</g>
	<g>
		<path class="st19" d="M303.4,383.2c0.2,0.7-0.7,15.7-0.7,15.7l6.1,1.4l-2.2-17.9"/>
		<path class="st20" d="M316.8,317.7c-6.3,0-10.8-21.6-10.9-25.8c0.3,8.8-4.4,19.3-9.6,26.1c0.9,0,1.7-0.2,2.5-0.7
			c0,0.2-1.2,1.7-0.9,2c0.1,0.1,0.2,0.2,0.4,0.4c0.9-0.7,2.2-1.5,3.2-2.4c0-0.1-0.8,1.8-0.8,2.1c0,0,1.7-0.7,1.5-1
			c-2.5,5.9-6.3,10.2-11.6,13.4c1.1-0.5,2.8-0.8,4.1-1.3c0,0.8-1,1.4-0.9,2.3c0.1,0.1,0.2,0.2,0.4,0.4c1.1-0.5,1.7-0.9,2.8-1.6
			c0.1-0.1,0.1-0.1,0,0c0.1,0-0.7,1.6-0.4,1.6c0.1,0,2.7-0.7,2.7-0.7c0-0.2,0-0.3-0.2-0.2c-1.5,5.7-5.5,9.8-10.4,12.7
			c1.5-0.6,3.2-0.6,4.7-1.3c0,0.7-0.5,1.5-0.6,2.3c0.5-0.1,2.4-1.2,2.7-1.2c0,0-0.6,1-0.3,1.2c0.6-0.3,1.6-0.8,2.3-1.2
			c-2.3,5.8-5.5,11.2-11.1,14.4c1.3-0.2,2-0.2,3.5-0.9c0.4,0.4-0.9,1.5,0,2.2c0.7-0.6,2.9-1.7,3.4-2.1c0.1,0.4-0.6,1.5-0.6,2.1
			c0.2-0.1,2.8-1,2.9-1c0,0-0.5,0.6-0.2,0.7c0.1,0.1,0.8-0.6,0.9-0.6c-2.6,5.9-6.9,10.5-13,12.4c-0.1-0.1-0.1,1.1,0,1
			c2.1-0.4,3.4,0.1,5.9-1.6c0,0.3-0.6,1.9-0.7,2.3c0.9-0.1,1.9-1.3,2.6-1.3c0.7,0.4-0.6,1.2-0.2,1.6c1.3-0.7,3-1,4.4-1.9
			c-1.2,5.1-6.3,9.1-11.3,10.7c0.1,0.1-0.3,0.9-0.4,0.9c2.3-0.4,4.2-0.1,6.5-1.3c0.1,0.5-0.2,1.7-0.3,2.3c0.1-1.3,10.8-1.7,12-2
			c-0.9,0.9-1.7,2.5-2.7,3.4c1.4-1,4.1-1.5,5.8-2.6c1.5,3.1,1.4,1.3,3.5,2.6c-0.1-0.4-0.1-2.2,0-2.6c-0.2-0.2-0.2-0.3-0.2-0.2
			c1.1,0.8,3,1.5,3.7,2.1c0.1-0.1,0.2-0.2,0.4-0.3c-0.1-0.2-0.9-2-0.9-2.2c2.2,1.5,3.4,1,5.4,1.5c0,0-0.9-2-0.9-1.9
			c1.7,1.2,4.7,1.1,6.4,0.6c-1.1-0.8-2.4-1.5-3.7-2c0.2,0.1,1.2-0.1,0.9-0.3c-0.2-0.1,2.4,0.7,3.4,0.9c-1.3-0.9-2.7-2.4-4.1-3.3
			c2.6,1.2,4.5,1.3,7.1,1.3c-4.5-1.8-11.2-3.4-11.2-9.3c1.1,0.6,3.3,1.3,4.4,2c0.1-0.2,0.1-0.4,0.1-0.7c0-0.3-0.1-0.3-0.3-0.3
			c1.6,0.8,3.2,0.8,5.1,1.3c-3.4-4.7-9.3-6.2-11.3-12.2c1.4,0.8,2.9,1,4.1,1.5c-0.1-0.1-1.2-0.7-0.7-0.6c2.8,0.6,3.8,0.2,6.2-0.7
			c-8.4-1.2-10.1-8.6-11.7-15.5c1.4,1,3.3,1.7,4.5,2.6c0.2,0.2-0.8-1.7-1-1.3c-0.2,0-0.3-0.1-0.4-0.2c0.1,0.1,0.2,0.2,0.4,0.2
			c3.4,1.2,3.1,1.1,5.5-0.3c-6.2-0.3-7.6-8.3-9.2-13.1c1.1,0.5,3.2,1.1,4.1,1.6c-0.1-1.3-0.9-0.8-1.3-1.8c-0.1-0.1-0.1-0.1,0,0
			c0.5-0.1,1.7,1,2.3,1.1c0.1-0.1,0.2-0.2,0.3-0.4c0.3,0.3-0.7-2.6-0.9-1.9c2.9,1.1,2.5,0.3,5.3,0c-5.6-1.8-10.2-8.2-11.6-13.7
			c0.1,0,2.5,1.1,2.7,1.2c0.3,0.2-1.3-2.3-1.3-2c0.9,0.5,2.2,1.2,3.1,1.6c0.6-0.2,0.5-2,0.3-1.9
			C314.8,317.4,315.1,317.7,316.8,317.7z"/>
		<path class="st21" d="M319.3,377.9c2.6,1.2,4.5,1.3,7.1,1.3c-4.5-1.8-11.2-3.4-11.2-9.3c1.1,0.6,3.3,1.3,4.4,2
			c0.1-0.2,0.1-0.4,0.1-0.7c0-0.1,0-0.1,0-0.2c1.5,0.7,3,0.7,4.8,1.1c-3.4-4.7-9.3-6.2-11.3-12.2c1.4,0.8,2.9,1,4.1,1.5
			c-0.1-0.1-1.2-0.7-0.7-0.6c2.8,0.6,3.8,0.2,6.2-0.7c-8.4-1.2-10.1-8.6-11.7-15.5c1.4,1,3.3,1.7,4.5,2.6c0.1,0.1-0.3-0.8-0.7-1.2
			c3.1,1.1,2.9,0.9,5.1-0.4c-6.2-0.3-7.6-8.3-9.2-13.1c1.1,0.5,3.2,1.1,4.1,1.6c-0.1-1.3-0.9-0.8-1.3-1.8c0.5-0.1,1.7,1,2.3,1.1
			c0.1-0.1,0.2-0.2,0.3-0.4c0.2,0.2-0.3-1.3-0.6-1.8c2.6,0.9,2.3,0.2,5.1-0.2c-5.6-1.8-10.2-8.2-11.6-13.7c0.1,0,2.5,1.1,2.7,1.2
			c0.2,0.2-0.8-1.4-1.1-1.9c0.9,0.5,2.1,1.1,2.9,1.5c0.5-0.2,0.5-1.6,0.4-1.9c1.4,0.5,1.7,0.8,3.4,0.8c-4.5,0-9.2-12.9-10.9-20.7
			c-0.1,3.9,0.7,9.5,0.6,13.2c-0.3,12.6-1.3,25.1-1.8,37.7c-0.5,12-0.4,23.9-0.2,35.9c0.2-0.1,0.4-0.2,0.6-0.3
			c1.5,3.1,1.4,1.3,3.5,2.6c-0.1-0.4-0.1-2.2,0-2.6c-0.1,0-0.1-0.1-0.1-0.1c1.1,0.8,2.9,1.5,3.6,2c0.1-0.1,0.2-0.2,0.4-0.3
			c-0.1-0.2-0.9-2-0.9-2.2c2.2,1.5,3.4,1,5.4,1.5c0,0-0.9-2-0.9-1.9c1.7,1.2,4.7,1.1,6.4,0.6c-1.1-0.8-2.4-1.5-3.7-2
			c0.2,0.1,1.2-0.1,0.9-0.3c-0.2-0.1,2.4,0.7,3.4,0.9C322,380.2,320.6,378.7,319.3,377.9z M314.2,346c-0.1,0-0.1-0.1-0.2-0.1
			C314.1,345.9,314.1,346,314.2,346z"/>
		<g>
			<g>
				<path class="st21" d="M297.6,345.6c0.3-0.2,0.5-0.3,0.8-0.3c-0.1-0.1-0.2-0.2-0.3-0.2c0,0.2,0.1,0.5,0.2,0.7
					c0,0.2,0.3,0.3,0.5,0.2c0.6-0.5,1.3-1,1.8-1.6c-0.2-0.1-0.4-0.1-0.6-0.2c-0.1,0.7-0.1,1.3,0.6,1.6c0.7,0.3,1.4-0.5,1.9-0.9
					c-0.2-0.1-0.4-0.2-0.6-0.3c0,0.1,0,0.1,0,0.2c0,0.3,0.3,0.6,0.6,0.4c0.7-0.4,1.5-1,1.9-1.8c0.1-0.3-0.2-0.5-0.4-0.4
					c-0.7,0.3-1.3,1-1.9,1.5c0.2,0.1,0.4,0.2,0.7,0.2c0-0.1,0-0.1,0-0.2c-0.1-0.3-0.5-0.4-0.7-0.1c-0.4,0.7-1.4,1.1-1.3-0.1
					c0-0.3-0.4-0.4-0.6-0.2c-0.5,0.6-1.1,1-1.7,1.5c0.2,0.1,0.3,0.1,0.5,0.2c-0.1-0.2-0.1-0.5-0.2-0.7c0-0.1-0.2-0.3-0.3-0.2
					c-0.3,0.1-0.6,0.2-0.9,0.4C297.1,345.3,297.3,345.8,297.6,345.6L297.6,345.6z"/>
			</g>
		</g>
		<g>
			<g>
				<path class="st21" d="M293.8,360.2c0.8-0.3,1.6-0.7,2.5-1.1c-0.2-0.2-0.3-0.3-0.5-0.5c-1,3.3,2.5,1.4,3.7,0.3
					c-0.2-0.1-0.4-0.2-0.7-0.3c0,0.4,0,0.7-0.2,1.1c-0.1,0.3,0.1,0.6,0.5,0.5c0.9-0.1,1.9-0.3,2.4-1.1c0.2-0.3-0.1-0.6-0.4-0.5
					c-0.7,0.4-1.4,0.7-2.2,0.8c0.2,0.2,0.3,0.4,0.5,0.5c0.2-0.5,0.2-0.8,0.2-1.3c0-0.3-0.4-0.6-0.7-0.3c-0.3,0.3-0.7,0.6-1.1,0.9
					c-0.7,0.5-1.8,1.2-1.4-0.3c0.1-0.3-0.2-0.6-0.5-0.5c-0.8,0.4-1.6,0.8-2.4,1.3C293.2,359.9,293.4,360.3,293.8,360.2L293.8,360.2z
					"/>
			</g>
		</g>
		<g>
			<g>
				<path class="st21" d="M291.3,374.1c2-0.5,3.9-1.1,5.8-1.7c-0.2-0.2-0.3-0.4-0.5-0.6c-0.4,0.4-0.6,0.9-0.9,1.4
					c-0.2,0.4,0.1,0.8,0.5,0.6c1-0.4,1.9-1,3-1.2c-0.2-0.2-0.3-0.3-0.5-0.5c-0.1,0.4-0.1,0.8-0.2,1.2c-0.1,0.3,0.3,0.6,0.6,0.4
					c0.8-0.5,1.5-1,2-1.7c0.2-0.3-0.2-0.8-0.5-0.5c-0.6,0.6-1.1,1-1.8,1.5c0.2,0.1,0.4,0.3,0.6,0.4c0.1-0.4,0.1-0.8,0.2-1.2
					c0.1-0.3-0.3-0.5-0.5-0.5c-1.2,0.2-2.1,0.8-3.2,1.3c0.2,0.2,0.3,0.4,0.5,0.6c0.3-0.5,0.5-0.9,0.8-1.4c0.3-0.3-0.1-0.7-0.5-0.6
					c-1.8,0.7-3.7,1.2-5.6,1.7C290.8,373.6,290.9,374.2,291.3,374.1L291.3,374.1z"/>
			</g>
		</g>
		<g>
			<g>
				<path class="st21" d="M297.3,333.2c0.9,0.2,2.2-0.2,3-0.6c-0.2-0.2-0.3-0.3-0.5-0.5c-0.2,0.4-0.4,0.8-0.6,1.1
					c-0.2,0.3,0.1,0.7,0.4,0.6c1.1-0.2,2.2-0.5,3.2-0.9c-0.2-0.1-0.3-0.1-0.5-0.2c0,0.2,0.1,0.4,0.1,0.6c0,0.2,0.3,0.4,0.6,0.3
					c0.7-0.4,1.4-0.6,2-1.2c0.2-0.2-0.1-0.6-0.4-0.4c-0.6,0.4-1.3,0.6-1.9,1c0.2,0.1,0.4,0.2,0.6,0.3c0-0.4-0.1-0.4-0.2-0.8
					c-0.1-0.2-0.3-0.2-0.5-0.2c-1,0.3-2,0.6-3,0.8c0.1,0.2,0.3,0.4,0.4,0.6c0.3-0.4,0.5-0.8,0.7-1.3c0.1-0.3-0.2-0.6-0.5-0.5
					c-0.8,0.4-1.9,0.4-2.7,0.8C297,332.8,297,333.1,297.3,333.2L297.3,333.2z"/>
			</g>
		</g>
		<g>
			<g>
				<path class="st21" d="M301.8,319.3c1.1-0.5,2-1.3,2.9-2.1c-0.2-0.1-0.4-0.3-0.6-0.4c-0.3,0.6-0.5,1.3-0.7,1.9
					c-0.1,0.3,0.1,0.6,0.4,0.5c0.8-0.2,1.8-0.5,2.3-1.2c0.2-0.3-0.1-0.6-0.4-0.5c-0.7,0.3-1.3,0.7-2,0.9c0.1,0.2,0.3,0.3,0.4,0.5
					c0.2-0.6,0.4-1.3,0.7-1.9c0.2-0.3-0.3-0.7-0.6-0.4c-0.8,0.8-1.7,1.5-2.7,2.1C301.2,319,301.4,319.5,301.8,319.3L301.8,319.3z"/>
			</g>
		</g>
	</g>
	<g>
		<path class="st19" d="M270.9,377.2c0.2,0.8-0.9,14.1-0.9,14.1l5.3,0.9l-0.8-15.8"/>
		<path class="st20" d="M271.2,304.7c0,0.1-0.7,3.8-0.7,3.9c-0.7,5.3-3.6,11.5-7.7,16.1c1.5,0.1,1.9-0.4,3.1-0.9
			c-0.4,0.8-1.5,1.4-1.4,2.4c0.4-0.3,3.7-2.2,3-1.7c0.2,0.7-0.1,0.9,0.8,0.6c-1.6,5.1-3.4,10.9-7.8,14.3c1.2-0.5,2.4-0.7,3.7-1.5
			c-0.4,1-1.3,1.1-1.5,2.4c-0.6,0.3,3.1-0.8,2.5-1c0,0-0.2,0.7-0.4,0.5c0.6-0.6,1.4-1.4,1.9-1.9c-1.2,4.3-3.9,8.2-7.9,10.6
			c1.5-0.2,3.2,0,4.8-0.4c0,0.9-1,1.6-1.1,2.4c1.2-0.6,2.9-1,4.3-1.9c0.1-0.1,0.1-0.1,0,0c-2,4.4-6,9.4-10,12.1
			c1.7-0.3,2.8-0.3,4.8-1.1c-0.1,0.5-1.3,1.4-0.7,2c0,0,2.2-1,2.2-1c0.2-0.1,0.5,0.7,0.7,0.8c0.9-0.5,1.8-1.1,2.7-1.7
			c-1.6,4.8-6.5,8.9-10.8,11c1.2,0,2.8,0.6,5.5-0.5c-0.3,0.8-0.8,2.2-1.2,2.8c1.3-0.7,3.6-1.1,4.8-1.9c-1.4,3.9-4.8,7.3-8.4,9.2
			c2.4-0.1,4.5,0.3,6.9-0.3c0.1,0.4-0.7,1.2-0.7,1.7c1.3-0.5,2.8-1.3,4.2-2c0.6-0.1,0.2,1.1,0.3,1.1c0.9-0.8,3.3-1.9,4.5-3
			c0.3,0.7,0.1,1.7,0.4,2.5c-0.1-0.2,1.9-1.2,2.2-1.3c1.9,1.3,4.2,0.5,6.2,2.1c-0.1-1.1-0.2-2.6-0.4-3.6c0.5,0.6,2.4,1.7,3.1,2.6
			c-0.3-1.3,0.1-2.7-0.1-4c2.5-0.1,4.9-1.3,7.3-1.6c-4.9-1.5-8.5-6.1-10-10.8c0-0.2,1.6,0.7,1.7,0.7c-0.5-0.6-1.5-2-1.9-2.7
			c2.8,0.3,4.1-0.8,6.3-1.1c-3.9-2.1-7.1-6.1-9.1-10.2c0.2,0,2,0.8,2.4,0.8c0.3-0.6-1.2-1.6-0.5-2.1c1.7,0,3.4-0.4,5.1-0.2
			c-3.7-1.5-7-5.2-7.6-9.6c0.5-0.4,1.6,0.7,2.1,0.8c-0.3-0.5-1.1-2.2-1.2-2.9c2,0.2,3.7-0.8,5.2-0.9c-4.4-1.5-8.2-6.8-8.3-11.5
			c0.5,0.2,1.9,1.2,2.5,1.4c-0.2-1.1-1-1.9-1.3-2.9c1.5,0.6,2.8,0.3,4.3,0.5c-5.3-2.7-8.5-9.7-8.4-15.6"/>
		<path class="st21" d="M283.3,376.2c2.5-0.1,4.9-1.3,7.3-1.6c-4.9-1.5-8.5-6.1-10-10.8c0-0.2,1.6,0.7,1.7,0.7
			c-0.5-0.6-1.5-2-1.9-2.7c2.8,0.3,4.1-0.8,6.3-1.1c-3.9-2.1-7.1-6.1-9.1-10.2c0.2,0,2,0.8,2.4,0.8c0.3-0.6-1.2-1.6-0.5-2.1
			c1.7,0,3.4-0.4,5.1-0.2c-3.7-1.5-7-5.2-7.6-9.6c0.5-0.4,1.6,0.7,2.1,0.8c-0.3-0.5-1.1-2.2-1.2-2.9c2,0.2,3.7-0.8,5.2-0.9
			c-4.4-1.5-8.2-6.8-8.3-11.5c0.5,0.2,1.9,1.2,2.5,1.4c-0.2-1.1-1-1.9-1.3-2.9c1.5,0.6,2.8,0.3,4.3,0.5c-4.2-2.1-7-7-8-11.8
			c-0.3-1.3-0.8-7.5-0.8-7.5c0,2,0,7.8,0,9.8c0,4.7-0.3,9.4-0.4,14.1c-0.2,9.7-0.2,19.4,0.2,29c0.3,7.5,0.8,15,1.3,22.5
			c0,0.1,0.1,0.2,0.1,0.3c-0.1-0.2,1.9-1.2,2.2-1.3c1.9,1.3,4.2,0.5,6.2,2.1c-0.1-1.1-0.2-2.6-0.4-3.6c0.5,0.6,2.4,1.7,3.1,2.6
			C283,378.9,283.5,377.5,283.3,376.2z"/>
		<g>
			<g>
				<path class="st21" d="M264.1,350.4c1.1-0.5,2.2-1,3.3-1.5c-0.2-0.1-0.3-0.2-0.5-0.3c0,0.3,0,0.6,0,0.9c0,0.2,0.2,0.4,0.4,0.4
					c0.8-0.2,1.8-0.2,2.5-0.7c0.4-0.2,0.1-0.7-0.3-0.6c-0.8,0.3-1.6,0.4-2.4,0.6c0.1,0.1,0.3,0.2,0.4,0.4c0-0.3,0-0.6,0-0.9
					c0-0.2-0.2-0.5-0.5-0.3c-1.1,0.5-2.2,1-3.2,1.5C263.5,350,263.7,350.6,264.1,350.4L264.1,350.4z"/>
			</g>
		</g>
		<g>
			<g>
				<path class="st21" d="M261.7,361.8c0.6-0.5,1.2-0.7,2-0.9c-0.1-0.1-0.3-0.2-0.4-0.3c0,0.4,0.1,0.7,0.1,1.1
					c0,0.2,0.3,0.3,0.5,0.2c1.4-0.5,2.5-1.4,3.7-2.3c-0.1-0.2-0.3-0.4-0.4-0.5c-0.3,0.3-0.5,0.6-0.8,1c-0.2,0.2,0.1,0.5,0.3,0.5
					c0.4-0.1,0.7-0.3,1-0.4c0.2-0.1,0.2-0.5-0.1-0.5c-0.4,0-0.7,0.2-1,0.3c0.1,0.2,0.2,0.4,0.3,0.5c0.3-0.3,0.5-0.6,0.8-0.9
					c0.3-0.3-0.1-0.8-0.4-0.5c-1.1,0.8-2.3,1.7-3.6,2.2c0.2,0.1,0.3,0.2,0.5,0.2c0-0.4-0.1-0.7-0.1-1.1c0-0.2-0.2-0.3-0.4-0.3
					c-0.9,0.2-1.6,0.5-2.2,1.1C261.1,361.6,261.4,362,261.7,361.8L261.7,361.8z"/>
			</g>
		</g>
		<g>
			<g>
				<path class="st21" d="M260.9,370.7c-0.4,0.6-0.7,1.3-0.9,2.1c-0.1,0.2,0.2,0.5,0.4,0.4c1.3-0.8,2.6-1.6,4.1-2
					c-0.1-0.2-0.2-0.3-0.3-0.5c-0.3,0.4-0.5,0.7-0.8,1.1c-0.2,0.2,0.1,0.6,0.3,0.5c1.5-0.2,2.9-0.9,4.1-1.8c0.3-0.2,0-0.6-0.3-0.5
					c-1.3,0.7-2.5,1.4-3.9,1.6c0.1,0.2,0.2,0.3,0.3,0.5c0.3-0.3,0.5-0.7,0.8-1.1c0.2-0.2-0.1-0.6-0.3-0.5c-1.6,0.4-3,1.2-4.3,2.1
					c0.2,0.1,0.3,0.2,0.5,0.3c0.2-0.7,0.4-1.3,0.8-2C261.5,370.7,261.1,370.4,260.9,370.7L260.9,370.7z"/>
			</g>
		</g>
		<g>
			<g>
				<path class="st21" d="M263.9,340.1c1.2-0.5,2.2-1.4,3.3-2c-0.1-0.2-0.3-0.4-0.4-0.6c-0.2,0.2-0.4,0.4-0.6,0.5
					c-0.3,0.3,0,0.8,0.4,0.6c0.7-0.4,1.4-0.6,2-1.1c-0.2-0.1-0.4-0.2-0.6-0.3c0,0.3,0,0.6-0.1,0.9c0,0.2,0.1,0.4,0.3,0.4
					c0.3,0,0.7-0.1,1-0.2c0.2-0.1,0.3-0.5,0.1-0.6c0,0,0,0,0,0c-0.4-0.2-0.8,0.3-0.4,0.6c0,0,0,0,0,0c0-0.2,0.1-0.4,0.1-0.6
					c-0.3,0.1-0.5,0.1-0.8,0.1c0.1,0.1,0.3,0.3,0.4,0.4c0-0.3,0-0.6,0-0.9c0-0.3-0.3-0.5-0.6-0.3c-0.5,0.4-1.2,0.6-1.8,1
					c0.1,0.2,0.3,0.4,0.4,0.6c0.2-0.2,0.4-0.4,0.6-0.5c0.3-0.3,0-0.8-0.4-0.6c-1.1,0.7-2.1,1.5-3.2,2.1
					C263.2,339.8,263.5,340.3,263.9,340.1L263.9,340.1z"/>
			</g>
		</g>
	</g>
	<g>
		<path class="st19" d="M337.9,410l-1.1-20.4l-6.2,1c0,0.8,0.5,12.2,0.7,17.4C332.8,408.1,336.4,410,337.9,410z"/>
		<polygon class="st21" points="345.7,314.6 345.7,314.6 345.7,314.6 		"/>
		<path class="st21" d="M345.8,314.7c0,0-0.1-0.1-0.1-0.1h0C345.7,314.6,345.7,314.6,345.8,314.7z"/>
		<path class="st21" d="M345.7,314.6C345.7,314.6,345.7,314.6,345.7,314.6C345.7,314.6,345.7,314.6,345.7,314.6z"/>
		<path class="st22" d="M362.8,391.7c0.2-0.1-6.8-4.8-7.3-5.2c-3.8-2.3-7.2-4.4-9.2-8.5c1.3,0.9,2.9,1.7,4.3,2.2
			c-0.5-0.9-0.8-2.1-1.5-3c0.8,0.6,1.8,0.9,2.6,1.3c-0.4-0.7-0.6-1.7-1.2-2.5c1.8,1.4,7.5,3.6,4-0.1c1.5,1.7,4.3,2.5,5.6,0.4
			c-1.9,3.1-15.1-13.3-15.7-16.1c1,0.7,2.5,1.2,3.6,2c-0.4-0.6-0.8-1.7-1.4-2.3c1.1,1.1,2.5,1.5,3.6,2c-0.4-0.6-0.7-1.6-1.2-2.2
			c2,1.6,4.8,1.5,6.6-0.2c-4.9,4.7-14-15.7-14.3-18.3c0.4,0.8,1.1,1.6,1.7,2.3c0.3-0.1,0.7-0.2,1.1-0.3c-0.1-0.7-0.3-1.6-0.8-2.2
			c0.9,1,1.7,1,2.8,1.6c0-0.5,0.1-1.2,0.1-1.8c1.6,0.8,3.4,0.7,4.6-0.6c-9-4.2-10.4-14.1-11.9-22.5c0.5,1.4,1.2,2.2,2.5,1.8
			c-0.1-0.5,0-1.5-0.1-2.1c2.7,2.6,4.9-0.7,3.5-1.3c1.1,0.5,2.2,0.3,3.2,0.5c-0.6-0.7-1.6-1.7-2.4-2.2c0.1,0,0.1,0,0.1,0
			c0,0,0,0,0,0c-10-7-8.2-19.4-9.9-30.6c-1.3,36.5-2.4,73-2,109.5c0.3-0.3,0.7-0.7,0.9-1.1c1,1.7,1.7,1.9,3.4,1.8
			c-0.1-0.5-0.2-1.7-0.2-1.9c0.7,2.1,2.7,3.2,4.6,2.5c-0.4-0.8-0.5-2.2-1-3c1.7,1.7,6.4,4.1,5-0.6c1.5,2.1,6.2,3.4,4.2-0.4
			c0.1,0,0.1,0.1,0.2,0.2c1.9,2.6,6.3,2.6,3.7-1c1,1.2,2.1,1.2,3.4,1.8c0.2-0.1-0.1-0.6,0.1-0.8
			C359.6,391.8,361.3,392.2,362.8,391.7z"/>
		<path class="st21" d="M328.7,317.1c0,0-0.1,0.1-0.1,0.2C328.6,317.2,328.6,317.1,328.7,317.1C328.7,316.9,328.7,316.9,328.7,317.1
			z"/>
		<path class="st23" d="M335.8,284c0-0.2,0-0.3-0.1-0.5c0,9.1-2.2,31.5-14.3,33c1.1,1.8,3.4,0.4,5-1c-0.6,1-0.7,2.7-1.1,3.8
			c0.1,0.1,0.1,0.1,0.2,0.2c1.1-0.6,2.2-1.1,3-2.2c0-0.1,0.1-0.1,0.1-0.2c0.1-0.1,0.1-0.1,0,0c0,0.1-0.1,0.1-0.1,0.2
			c-0.1,0.1-0.1,0.3,0,0.4c0.3-0.3,1-0.9,1.4-1.1c-2.5,7.4-3.1,20.7-12,23.8c0,0,0,0.8,0,0.7c1.1-0.3,3-0.3,4.2-0.9
			c-0.4,1-0.2,2.6-0.5,3.6c0.9-0.8,2.6-1.6,3.6-2.6c-0.1,0.9,0.2,2,0.1,2.8c0.8-0.7,2-1.3,2.6-2.5c-3.9,8.1-8.5,15.3-16.9,19.1
			c1.1,2.8,4.6,0.3,6.4-0.8c-0.5,1-0.6,2.2-1,3.2c0.5-0.5,2.2-1,2.8-1.6c-0.1,0.6,0,1.3-0.1,2c0.8-0.7,2.2-1.3,2.9-2.4
			c-0.3,4.5-4.8,9.7-8.2,12.4c-2.3,1.8-5.8,2.2-7.5,4.1c1.7,1.3,4.2,0.9,6.2,0.2c-0.9,1.3-0.8,2.5-1.2,4c1.4-0.7,2.7-2,4-3.2
			c-0.2,0.7-0.3,1.7-0.5,2.4c0.5-0.6,1.7-1.3,2.2-1.8c-2.1,7.5-8.1,8.6-12.9,12.9c2,2.4,5.5,0.8,8-0.3c-0.5,4.5,2.7,3,4.6,0.8
			c0.1,0.7,0.5,1.3,0.6,2c2.6-1,6.7-2.3,9.4-2.7c0.1,0.1,0.1,0.1,0.2,0.2c-0.3,0.8-0.3,2.3-0.7,3.2c1.1-0.9,2.8-1.4,4-2
			c0.7,2.4,2.3,1.9,3.7,0.7c-0.2-16.9,1.2-33.8,1.6-50.7C335.7,323.2,335.1,303.6,335.8,284z"/>
	</g>
	<g>
		<path class="st16" d="M21.3,369.7c-3-18.6-4.8-37.4-3.7-56.1c-1.1,5.4-3,9.6-7.2,13.5c1.5,0.6,3.2,0.1,4.4-0.8
			c-0.4,0.6-0.5,1.2-0.7,1.8c0.6-0.5,1.5-0.7,2.1-1.2c0,0,0,0,0,0c0.1-0.1,0.1-0.1,0,0c0,0,0,0,0,0c-1.3,4.2-5,6.9-8.4,9.1
			c1.6,0.7,3.3,0.1,4.8-0.7c-0.1,0.4,0,1-0.1,1.4c0.6-0.4,1.8-0.7,2.4-1.1c-1.9,3.8-4.8,6.6-8.5,8.7c1.8,0.4,4-0.1,5.8-0.8
			c-0.3,0.5-0.5,1.1-0.8,1.6c0.4-0.1,0.9-0.4,1.4-0.4c-1,4.5-5.3,5.8-7.5,9c1.5,0,3.1-0.4,4.5-0.8c-0.1,0.5,0,1.3,0,1.7
			c1.2-0.4,2.4-0.8,3.5-1.2c-1.6,4.5-6.5,6-8.5,9.5c1.5,0.1,3.2-0.4,4.8-0.6c-0.2,0.6,0,1.5-0.1,1.9c1-0.7,2.2-1.3,3.2-2
			c0.2,0.1-0.1,0.5,0.1,0.6c0.3,0.1,0.4-0.4,0.6-0.3c-2.4,4.1-5.5,6.6-9.6,9c0.1,0,0.3,0.1,0.4,0.1c1.8-0.8,4-1,5.8-1
			c0.4,0,0.7,0.4,0.6,0.8c0.5,0,0.9-0.1,1.2-0.1c0.6-0.6,1.6-0.7,2.2-1.1c0.1,0.2,0.2,0.4,0.4,0.6c0.9-0.4,1.8-0.8,2.7-1.3
			c0.5-0.3,1,0.2,0.9,0.7c0,0,0,0,0,0c0.1,0,0.2,0,0.3,0.1c0.4,0.2,1.2,0.7,2,1.1c0.4-0.1,0.8-0.1,1.2-0.2c0-0.1-0.1-0.1-0.1-0.2
			C20.9,370.2,21.1,369.9,21.3,369.7z"/>
		<path class="st17" d="M22,369.7c0.5,0.2,1,0.5,1.5,0.7c0.4-0.1,0.8-0.2,1.3-0.3c-0.1-0.1-0.2-0.2-0.3-0.3
			c-0.5-0.4-0.4-1.2,0.3-1.2c1.3,0,2.5,0.2,3.7,0.5c0,0,0.1,0,0.1,0c-0.4-0.4-0.1-1.1,0.5-1.1c0.7,0.1,1.4,0.2,2.1,0.3
			c0.2-0.1,0.4-0.1,0.6-0.2c0.1-0.3,0.3-0.5,0.6-0.5c0.3,0,0.6,0,0.9,0c0.4-0.2,0.8-0.3,1.1-0.4c-0.6-0.7-7.1-6.5-7.4-6.5
			c0.6,0.1,1.3,0,1.9,0.1c-0.6-0.2-1.3-0.7-2.1-0.9c0,0,0,0,0,0c-0.1,0-0.1,0,0,0c0,0,0,0,0,0c2.7-0.5,5.4-0.9,8.2-0.8
			c-2.7-2.5-6.6-3.3-9.1-7c0.4,0,0.8,0.1,1.2,0.1c-0.4-0.3-1.2-1.3-1.9-1.7c2.7-0.5,5.6,0.1,8.3-0.6c-3-1.8-7.5-2.7-9-6.4
			c0.7,0.3,1.8,0.3,2.5,0.6c-0.4-0.4-0.9-1.4-1.4-1.9c1.7,0.4,3.6,0.3,5.1-0.5c-3.6-1.9-5.3-2.3-7.2-5.9c0.9,0.2,0.8-0.2,1.4-0.3
			c-2.5-2.7-3.6-4.7-3.9-8.5c0.4,0.2,1,0.5,1.4,0.7c-0.2-0.5-0.4-1.1-0.6-1.6c1.3,1.1,3.4,1.9,4.8,0.5c-6.3-1.5-7.5-11.7-8.4-16.8
			l-0.5,1.6c-0.1,0.7-0.2,1.4-0.4,2.1c-1,18.7,0.7,37.5,3.7,56.1C21.5,369.6,21.8,369.5,22,369.7z"/>
		<polyline class="st18" points="19.6,367.9 19.4,381.2 23.1,381.2 21.7,367.7 		"/>
	</g>
	<g>
		<path class="st19" d="M100.7,377.3c0.2,0.5-0.2,10.1-0.2,10.1l4.4,1.2l-1.8-11.9"/>
		<path class="st20" d="M111,327c-4.8,0-8.3-16.6-8.4-19.8c0.2,6.8-3.4,14.8-7.4,20.1c0.7,0,1.3-0.1,1.9-0.5c0,0.2-0.9,1.3-0.7,1.6
			c0.1,0.1,0.2,0.2,0.3,0.3c0.7-0.5,1.7-1.2,2.5-1.8c0-0.1-0.6,1.4-0.6,1.6c0,0,1.3-0.5,1.2-0.7c-1.9,4.5-4.8,7.8-8.9,10.3
			c0.9-0.4,2.2-0.6,3.1-1c0,0.6-0.8,1.1-0.7,1.8c0.1,0.1,0.2,0.2,0.3,0.3c0.8-0.4,1.3-0.7,2.2-1.2c0.1-0.1,0.1-0.1,0,0
			c0,0-0.5,1.3-0.3,1.2c0.1,0,2.1-0.6,2.1-0.6c0-0.2,0-0.2-0.2-0.2c-1.2,4.4-4.2,7.5-8,9.7c1.1-0.4,2.4-0.5,3.6-1
			c0,0.5-0.4,1.2-0.4,1.8c0.3-0.1,1.8-0.9,2.1-0.9c0,0-0.4,0.8-0.3,0.9c0.4-0.3,1.2-0.6,1.8-0.9c-1.8,4.4-4.2,8.6-8.5,11
			c1-0.1,1.6-0.2,2.7-0.7c0.3,0.3-0.7,1.2,0,1.7c0.5-0.4,2.2-1.3,2.6-1.6c0.1,0.3-0.5,1.2-0.4,1.6c0.1-0.1,2.1-0.8,2.2-0.8
			c0,0-0.4,0.4-0.1,0.5c0.1,0.1,0.6-0.4,0.7-0.5c-2,4.5-5.3,8-10,9.6c-0.1-0.1-0.1,0.8,0,0.8c1.6-0.3,2.6,0.1,4.5-1.2
			c0,0.3-0.4,1.5-0.5,1.7c0.7-0.1,1.5-1,2-1c0.5,0.3-0.5,0.9-0.2,1.3c1-0.5,2.3-0.8,3.4-1.5c-0.9,3.9-4.8,7-8.6,8.2
			c0.1,0-0.3,0.7-0.3,0.7c1.7-0.3,3.2-0.1,5-1c0.1,0.4-0.2,1.3-0.2,1.8c0.1-1,8.3-1.3,9.2-1.6c-0.7,0.7-1.3,1.9-2.1,2.6
			c1.1-0.7,3.2-1.1,4.4-2c1.2,2.4,1.1,1,2.7,2c-0.1-0.3-0.1-1.7,0-2c-0.2-0.2-0.2-0.3-0.2-0.1c0.8,0.6,2.3,1.2,2.8,1.6
			c0.1-0.1,0.2-0.2,0.3-0.3c-0.1-0.1-0.7-1.5-0.7-1.7c1.7,1.2,2.6,0.8,4.2,1.2c0,0-0.7-1.5-0.7-1.5c1.3,0.9,3.6,0.8,4.9,0.4
			c-0.9-0.6-1.8-1.1-2.8-1.5c0.1,0,0.9-0.1,0.7-0.2c-0.1-0.1,1.9,0.5,2.6,0.7c-1-0.7-2.1-1.9-3.1-2.5c2,0.9,3.5,1,5.4,1
			c-3.4-1.4-8.6-2.6-8.6-7.1c0.9,0.5,2.6,1,3.4,1.5c0.1-0.2,0.1-0.3,0.1-0.5c0-0.2-0.1-0.3-0.2-0.2c1.3,0.6,2.4,0.6,3.9,1
			c-2.6-3.6-7.1-4.8-8.7-9.4c1.1,0.6,2.2,0.7,3.1,1.2c-0.1-0.1-0.9-0.6-0.5-0.4c2.2,0.4,2.9,0.1,4.8-0.5c-6.5-0.9-7.7-6.6-9-11.9
			c1,0.8,2.5,1.3,3.4,2c0.1,0.1-0.6-1.3-0.8-1c-0.1,0-0.2,0-0.3-0.1c0.1,0.1,0.2,0.1,0.3,0.1c2.6,0.9,2.4,0.8,4.2-0.2
			c-4.8-0.2-5.8-6.4-7.1-10.1c0.9,0.4,2.4,0.8,3.1,1.2c-0.1-1-0.7-0.6-1-1.4c-0.1-0.1-0.1-0.1,0,0c0.4-0.1,1.3,0.8,1.8,0.8
			c0.1-0.1,0.2-0.2,0.3-0.3c0.2,0.3-0.6-2-0.7-1.5c2.2,0.8,1.9,0.2,4.1,0c-4.3-1.4-7.8-6.3-8.9-10.5c0.1,0,1.9,0.8,2.1,0.9
			c0.2,0.2-1-1.8-1-1.5c0.7,0.4,1.7,0.9,2.4,1.2c0.4-0.1,0.4-1.6,0.2-1.5C109.4,326.8,109.7,327,111,327z"/>
		<path class="st21" d="M112.9,373.2c2,0.9,3.5,1,5.4,1c-3.4-1.4-8.6-2.6-8.6-7.1c0.9,0.5,2.6,1,3.4,1.5c0.1-0.2,0.1-0.3,0.1-0.5
			c0,0,0-0.1,0-0.1c1.2,0.5,2.3,0.6,3.7,0.9c-2.6-3.6-7.1-4.8-8.7-9.4c1.1,0.6,2.2,0.7,3.1,1.2c-0.1-0.1-0.9-0.6-0.5-0.4
			c2.2,0.4,2.9,0.1,4.8-0.5c-6.5-0.9-7.7-6.6-9-11.9c1.1,0.8,2.6,1.3,3.4,2c0.1,0.1-0.3-0.6-0.5-0.9c2.4,0.8,2.2,0.7,4-0.3
			c-4.8-0.2-5.8-6.4-7.1-10.1c0.9,0.4,2.4,0.8,3.1,1.2c-0.1-1-0.7-0.6-1-1.4c0.4,0,1.3,0.8,1.8,0.8c0.1-0.1,0.2-0.2,0.3-0.3
			c0.2,0.2-0.2-1-0.5-1.4c2,0.7,1.8,0.2,3.9-0.1c-4.3-1.4-7.8-6.3-8.9-10.5c0.1,0,1.9,0.8,2.1,0.9c0.2,0.1-0.6-1.1-0.9-1.4
			c0.7,0.4,1.6,0.8,2.3,1.2c0.4-0.1,0.4-1.2,0.3-1.4c1.1,0.4,1.3,0.6,2.6,0.6c-3.5,0-7.1-9.9-8.4-15.9c-0.1,3,0.5,7.3,0.5,10.1
			c-0.2,9.7-1,19.3-1.4,28.9c-0.4,9.2-0.3,18.4-0.1,27.6c0.2-0.1,0.3-0.2,0.4-0.3c1.2,2.4,1.1,1,2.7,2c-0.1-0.3-0.1-1.7,0-2
			c0,0-0.1-0.1-0.1-0.1c0.8,0.6,2.2,1.1,2.7,1.6c0.1-0.1,0.2-0.2,0.3-0.3c-0.1-0.1-0.7-1.5-0.7-1.7c1.7,1.2,2.6,0.8,4.2,1.2
			c0,0-0.7-1.5-0.7-1.5c1.3,0.9,3.6,0.8,4.9,0.4c-0.9-0.6-1.8-1.1-2.8-1.5c0.1,0,0.9-0.1,0.7-0.2c-0.1-0.1,1.9,0.5,2.6,0.7
			C115,375,113.9,373.9,112.9,373.2z M109,348.8c0,0-0.1-0.1-0.1-0.1C108.9,348.7,108.9,348.7,109,348.8z"/>
		<g>
			<g>
				<path class="st21" d="M96.3,348.5c0.2-0.1,0.4-0.2,0.6-0.2c-0.1-0.1-0.2-0.1-0.3-0.2c0,0.2,0.1,0.4,0.1,0.5
					c0,0.2,0.2,0.2,0.4,0.1c0.5-0.4,1-0.8,1.4-1.2c-0.1-0.1-0.3-0.1-0.4-0.2c-0.1,0.5-0.1,1,0.5,1.2c0.5,0.2,1.1-0.4,1.4-0.7
					c-0.2-0.1-0.3-0.2-0.5-0.2c0,0,0,0.1,0,0.1c0,0.2,0.2,0.4,0.4,0.3c0.6-0.3,1.1-0.8,1.4-1.4c0.1-0.2-0.2-0.4-0.3-0.3
					c-0.6,0.3-1,0.8-1.4,1.2c0.2,0.1,0.3,0.1,0.5,0.2c0,0,0-0.1,0-0.1c0-0.2-0.4-0.3-0.5-0.1c-0.3,0.5-1.1,0.8-1-0.1
					c0-0.3-0.3-0.3-0.4-0.2c-0.4,0.4-0.9,0.8-1.3,1.2c0.1,0,0.2,0.1,0.4,0.1c0-0.2-0.1-0.4-0.1-0.5c0-0.1-0.1-0.2-0.3-0.2
					c-0.3,0.1-0.5,0.1-0.7,0.3C95.9,348.2,96,348.6,96.3,348.5L96.3,348.5z"/>
			</g>
		</g>
		<g>
			<g>
				<path class="st21" d="M93.3,359.7c0.6-0.2,1.3-0.6,1.9-0.9c-0.1-0.1-0.3-0.2-0.4-0.4c-0.8,2.5,1.9,1.1,2.9,0.2
					c-0.2-0.1-0.3-0.2-0.5-0.3c0,0.3,0,0.6-0.1,0.8c-0.1,0.2,0.1,0.4,0.3,0.4c0.7-0.1,1.4-0.3,1.9-0.8c0.2-0.2-0.1-0.5-0.3-0.4
					c-0.6,0.3-1,0.5-1.7,0.6c0.1,0.1,0.2,0.3,0.3,0.4c0.1-0.3,0.1-0.6,0.2-1c0-0.3-0.3-0.5-0.5-0.3c-0.3,0.3-0.6,0.5-0.9,0.7
					c-0.5,0.4-1.4,0.9-1.1-0.2c0.1-0.2-0.2-0.5-0.4-0.4c-0.6,0.3-1.2,0.6-1.8,1C92.9,359.4,93.1,359.8,93.3,359.7L93.3,359.7z"/>
			</g>
		</g>
		<g>
			<g>
				<path class="st21" d="M91.4,370.3c1.5-0.4,3-0.8,4.5-1.3c-0.1-0.1-0.2-0.3-0.4-0.4c-0.3,0.3-0.5,0.7-0.7,1.1
					c-0.2,0.3,0.1,0.6,0.4,0.5c0.8-0.3,1.5-0.8,2.3-0.9c-0.1-0.1-0.3-0.2-0.4-0.4c-0.1,0.3-0.1,0.6-0.1,0.9
					c-0.1,0.2,0.3,0.4,0.5,0.3c0.6-0.4,1.1-0.7,1.6-1.3c0.2-0.3-0.2-0.6-0.4-0.4c-0.5,0.4-0.9,0.8-1.4,1.1c0.2,0.1,0.3,0.2,0.5,0.3
					c0.1-0.3,0.1-0.6,0.1-0.9c0-0.2-0.2-0.4-0.4-0.4c-0.9,0.1-1.6,0.7-2.5,1c0.1,0.2,0.3,0.3,0.4,0.5c0.2-0.4,0.4-0.7,0.6-1.1
					c0.2-0.3-0.1-0.5-0.4-0.4c-1.4,0.5-2.9,0.9-4.3,1.3C91,369.9,91.1,370.4,91.4,370.3L91.4,370.3z"/>
			</g>
		</g>
		<g>
			<g>
				<path class="st21" d="M96,338.9c0.7,0.1,1.7-0.1,2.3-0.5c-0.1-0.1-0.3-0.2-0.4-0.4c-0.1,0.3-0.3,0.6-0.5,0.9
					c-0.2,0.2,0.1,0.5,0.3,0.5c0.8-0.2,1.7-0.4,2.5-0.7c-0.1,0-0.3-0.1-0.4-0.1c0,0.2,0.1,0.3,0.1,0.5c0,0.2,0.3,0.3,0.4,0.2
					c0.5-0.3,1.1-0.4,1.5-0.9c0.1-0.2-0.1-0.4-0.3-0.3c-0.5,0.3-1,0.5-1.5,0.7c0.1,0.1,0.3,0.1,0.4,0.2c0-0.3-0.1-0.3-0.2-0.6
					c-0.1-0.2-0.3-0.2-0.4-0.1c-0.8,0.3-1.5,0.5-2.3,0.6c0.1,0.2,0.2,0.3,0.3,0.5c0.2-0.3,0.4-0.6,0.6-1c0.1-0.2-0.2-0.5-0.4-0.4
					c-0.7,0.3-1.4,0.3-2.1,0.6C95.8,338.6,95.8,338.9,96,338.9L96,338.9z"/>
			</g>
		</g>
		<g>
			<g>
				<path class="st21" d="M99.5,328.3c0.8-0.4,1.6-1,2.2-1.6c-0.1-0.1-0.3-0.2-0.4-0.3c-0.2,0.5-0.4,1-0.5,1.5
					c-0.1,0.2,0.1,0.5,0.3,0.4c0.6-0.2,1.4-0.4,1.7-1c0.1-0.2-0.1-0.5-0.3-0.4c-0.5,0.3-1,0.6-1.5,0.7c0.1,0.1,0.2,0.3,0.3,0.4
					c0.2-0.5,0.3-1,0.5-1.5c0.1-0.3-0.2-0.5-0.4-0.3c-0.6,0.6-1.3,1.2-2,1.6C99,328,99.2,328.4,99.5,328.3L99.5,328.3z"/>
			</g>
		</g>
	</g>
	<g>
		<path class="st19" d="M68.6,375.4c0.2,0.8-0.9,14.1-0.9,14.1l5,0.9l-0.5-15.8"/>
		<path class="st20" d="M68.9,302.8c0,0.1-0.7,3.8-0.7,3.9c-0.7,5.3-3.6,11.5-7.7,16.1c1.5,0.1,1.9-0.4,3.1-0.9
			c-0.4,0.8-1.5,1.4-1.4,2.4c0.4-0.3,3.7-2.2,3-1.7c0.2,0.7-0.1,0.9,0.8,0.6c-1.6,5.1-3.4,10.9-7.8,14.3c1.2-0.5,2.4-0.7,3.7-1.5
			c-0.4,1-1.3,1.1-1.5,2.4c-0.6,0.3,3.1-0.8,2.5-1c0,0-0.2,0.7-0.4,0.5c0.6-0.6,1.4-1.4,1.9-1.9c-1.2,4.3-3.9,8.2-7.9,10.6
			c1.5-0.2,3.2,0,4.8-0.4c0,0.9-1,1.6-1.1,2.4c1.2-0.6,2.9-1,4.3-1.9c0.1-0.1,0.1-0.1,0,0c-2,4.4-6,9.4-10,12.1
			c1.7-0.3,2.8-0.3,4.8-1.1c-0.1,0.5-1.3,1.4-0.7,2c0,0,2.2-1,2.2-1c0.2-0.1,0.5,0.7,0.7,0.8c0.9-0.5,1.8-1.1,2.7-1.7
			c-1.6,4.8-6.5,8.9-10.8,11c1.2,0,2.8,0.6,5.5-0.5c-0.3,0.8-0.8,2.2-1.2,2.8c1.3-0.7,3.6-1.1,4.8-1.9c-1.4,3.9-4.8,7.3-8.4,9.2
			c2.4-0.1,4.5,0.3,6.9-0.3c0.1,0.4-0.7,1.2-0.7,1.7c1.3-0.5,2.8-1.3,4.2-2c0.6-0.1,0.2,1.1,0.3,1.1c0.9-0.8,3.3-1.9,4.5-3
			c0.3,0.7,0.1,1.7,0.4,2.5c-0.1-0.2,1.9-1.2,2.2-1.3c1.9,1.3,4.2,0.5,6.2,2.1c-0.1-1.1-0.2-2.6-0.4-3.6c0.5,0.6,2.4,1.7,3.1,2.6
			c-0.3-1.3,0.1-2.7-0.1-4c2.5-0.1,4.9-1.3,7.3-1.6c-4.9-1.5-8.5-6.1-10-10.8c0-0.2,1.6,0.7,1.7,0.7c-0.5-0.6-1.5-2-1.9-2.7
			c2.8,0.3,4.1-0.8,6.3-1.1c-3.9-2.1-7.1-6.1-9.1-10.2c0.2,0,2,0.8,2.4,0.8c0.3-0.6-1.2-1.6-0.5-2.1c1.7,0,3.4-0.4,5.1-0.2
			c-3.7-1.5-7-5.2-7.6-9.6c0.5-0.4,1.6,0.7,2.1,0.8c-0.3-0.5-1.1-2.2-1.2-2.9c2,0.2,3.7-0.8,5.2-0.9c-4.4-1.5-8.2-6.8-8.3-11.5
			c0.5,0.2,1.9,1.2,2.5,1.4c-0.2-1.1-1-1.9-1.3-2.9c1.5,0.6,2.8,0.3,4.3,0.5c-5.3-2.7-8.5-9.7-8.4-15.6"/>
		<path class="st21" d="M81,374.3c2.5-0.1,4.9-1.3,7.3-1.6c-4.9-1.5-8.5-6.1-10-10.8c0-0.2,1.6,0.7,1.7,0.7c-0.5-0.6-1.5-2-1.9-2.7
			c2.8,0.3,4.1-0.8,6.3-1.1c-3.9-2.1-7.1-6.1-9.1-10.2c0.2,0,2,0.8,2.4,0.8c0.3-0.6-1.2-1.6-0.5-2.1c1.7,0,3.4-0.4,5.1-0.2
			c-3.7-1.5-7-5.2-7.6-9.6c0.5-0.4,1.6,0.7,2.1,0.8c-0.3-0.5-1.1-2.2-1.2-2.9c2,0.2,3.7-0.8,5.2-0.9c-4.4-1.5-8.2-6.8-8.3-11.5
			c0.5,0.2,1.9,1.2,2.5,1.4c-0.2-1.1-1-1.9-1.3-2.9c1.5,0.6,2.8,0.3,4.3,0.5c-4.2-2.1-7-7-8-11.8c-0.3-1.3-0.8-7.5-0.8-7.5
			c0,2,0,7.8,0,9.8c0,4.7-0.3,9.4-0.4,14.1c-0.2,9.7-0.2,19.4,0.2,29c0.3,7.5,0.8,15,1.3,22.5c0,0.1,0.1,0.2,0.1,0.3
			c-0.1-0.2,1.9-1.2,2.2-1.3c1.9,1.3,4.2,0.5,6.2,2.1c-0.1-1.1-0.2-2.6-0.4-3.6c0.5,0.6,2.4,1.7,3.1,2.6
			C80.7,377.1,81.2,375.6,81,374.3z"/>
		<g>
			<g>
				<path class="st21" d="M61.8,348.6c1.1-0.5,2.2-1,3.3-1.5c-0.2-0.1-0.3-0.2-0.5-0.3c0,0.3,0,0.6,0,0.9c0,0.2,0.2,0.4,0.4,0.4
					c0.8-0.2,1.8-0.2,2.5-0.7c0.4-0.2,0.1-0.7-0.3-0.6c-0.8,0.3-1.6,0.4-2.4,0.6c0.1,0.1,0.3,0.2,0.4,0.4c0-0.3,0-0.6,0-0.9
					c0-0.2-0.2-0.5-0.5-0.3c-1.1,0.5-2.2,1-3.2,1.5C61.2,348.2,61.4,348.7,61.8,348.6L61.8,348.6z"/>
			</g>
		</g>
		<g>
			<g>
				<path class="st21" d="M59.4,359.9c0.6-0.5,1.2-0.7,2-0.9c-0.1-0.1-0.3-0.2-0.4-0.3c0,0.4,0.1,0.7,0.1,1.1c0,0.2,0.3,0.3,0.5,0.2
					c1.4-0.5,2.5-1.4,3.7-2.3c-0.1-0.2-0.3-0.4-0.4-0.5c-0.3,0.3-0.5,0.6-0.8,1c-0.2,0.2,0.1,0.5,0.3,0.5c0.4-0.1,0.7-0.3,1-0.4
					c0.2-0.1,0.2-0.5-0.1-0.5c-0.4,0-0.7,0.2-1,0.3c0.1,0.2,0.2,0.4,0.3,0.5c0.3-0.3,0.5-0.6,0.8-0.9c0.3-0.3-0.1-0.8-0.4-0.5
					c-1.1,0.8-2.3,1.7-3.6,2.2c0.2,0.1,0.3,0.2,0.5,0.2c0-0.4-0.1-0.7-0.1-1.1c0-0.2-0.2-0.3-0.4-0.3c-0.9,0.2-1.6,0.5-2.2,1.1
					C58.8,359.7,59.1,360.1,59.4,359.9L59.4,359.9z"/>
			</g>
		</g>
		<g>
			<g>
				<path class="st21" d="M58.6,368.8c-0.4,0.6-0.7,1.3-0.9,2.1c-0.1,0.2,0.2,0.5,0.4,0.4c1.3-0.8,2.6-1.6,4.1-2
					c-0.1-0.2-0.2-0.3-0.3-0.5c-0.3,0.4-0.5,0.7-0.8,1.1c-0.2,0.2,0.1,0.6,0.3,0.5c1.5-0.2,2.9-0.9,4.1-1.8c0.3-0.2,0-0.6-0.3-0.5
					c-1.3,0.7-2.5,1.4-3.9,1.6c0.1,0.2,0.2,0.3,0.3,0.5c0.3-0.3,0.5-0.7,0.8-1.1c0.2-0.2-0.1-0.6-0.3-0.5c-1.6,0.4-3,1.2-4.3,2.1
					c0.2,0.1,0.3,0.2,0.5,0.3c0.2-0.7,0.4-1.3,0.8-2C59.2,368.9,58.8,368.5,58.6,368.8L58.6,368.8z"/>
			</g>
		</g>
		<g>
			<g>
				<path class="st21" d="M61.6,338.3c1.2-0.5,2.2-1.4,3.3-2c-0.1-0.2-0.3-0.4-0.4-0.6c-0.2,0.2-0.4,0.4-0.6,0.5
					c-0.3,0.3,0,0.8,0.4,0.6c0.7-0.4,1.4-0.6,2-1.1c-0.2-0.1-0.4-0.2-0.6-0.3c0,0.3,0,0.6-0.1,0.9c0,0.2,0.1,0.4,0.3,0.4
					c0.3,0,0.7-0.1,1-0.2c0.2-0.1,0.3-0.5,0.1-0.6c0,0,0,0,0,0c-0.4-0.2-0.8,0.3-0.4,0.6c0,0,0,0,0,0c0-0.2,0.1-0.4,0.1-0.6
					c-0.3,0.1-0.5,0.1-0.8,0.1c0.1,0.1,0.3,0.3,0.4,0.4c0-0.3,0-0.6,0-0.9c0-0.3-0.3-0.5-0.6-0.3c-0.5,0.4-1.2,0.6-1.8,1
					c0.1,0.2,0.3,0.4,0.4,0.6c0.2-0.2,0.4-0.4,0.6-0.5c0.3-0.3,0-0.8-0.4-0.6c-1.1,0.7-2.1,1.5-3.2,2.1
					C60.9,337.9,61.2,338.5,61.6,338.3L61.6,338.3z"/>
			</g>
		</g>
	</g>
	<g>
		<path class="st19" d="M40.9,400.7l-1.6-17.9l-3.5,1.2c0,0.7,0.5,11.7,0.7,16.6C38,400.6,39.5,400.7,40.9,400.7z"/>
		<polygon class="st21" points="49.1,311.6 49.1,311.6 49.1,311.6 		"/>
		<path class="st21" d="M49.2,311.7c0,0-0.1-0.1-0.1-0.1h0C49.1,311.6,49.1,311.6,49.2,311.7z"/>
		<path class="st21" d="M49.1,311.6C49.1,311.6,49.1,311.6,49.1,311.6C49.1,311.6,49.1,311.6,49.1,311.6z"/>
		<path class="st22" d="M65.5,385.4c0.2-0.1-6.5-4.6-7-4.9c-3.6-2.2-6.9-4.2-8.8-8.1c1.2,0.8,2.8,1.6,4.1,2.1
			c-0.5-0.8-0.7-2-1.5-2.8c0.7,0.6,1.7,0.9,2.4,1.3c-0.4-0.7-0.6-1.6-1.1-2.4c1.7,1.4,7.2,3.5,3.9,0c1.4,1.6,4.1,2.4,5.4,0.4
			c-1.8,3-14.4-12.8-15-15.4c1,0.7,2.4,1.2,3.4,1.9c-0.4-0.6-0.8-1.6-1.3-2.2c1.1,1,2.4,1.4,3.4,1.9c-0.4-0.6-0.7-1.5-1.1-2.1
			c1.9,1.5,4.6,1.5,6.3-0.2c-4.7,4.5-13.4-15-13.7-17.5c0.4,0.8,1,1.6,1.6,2.2c0.3-0.1,0.7-0.2,1.1-0.2c-0.1-0.7-0.3-1.5-0.8-2.1
			c0.8,1,1.7,1,2.6,1.5c0-0.5,0.1-1.1,0.1-1.7c1.5,0.8,3.2,0.7,4.4-0.6c-8.6-4-9.9-13.5-11.4-21.6c0.4,1.3,1.1,2.1,2.4,1.7
			c-0.1-0.5,0-1.4-0.1-2c2.6,2.5,4.7-0.7,3.3-1.2c1.1,0.4,2.1,0.3,3,0.5c-0.6-0.7-1.5-1.6-2.3-2.1c0.1,0,0.1,0,0.1,0c0,0,0,0,0,0
			c-9.6-6.7-7.9-18.6-9.5-29.3c-1.2,34.9-2.3,69.9-1.9,104.8c0.3-0.3,0.6-0.7,0.9-1.1c0.9,1.7,1.6,1.8,3.2,1.7
			c-0.1-0.4-0.1-1.6-0.2-1.8c0.7,2,2.6,3.1,4.4,2.4c-0.3-0.8-0.4-2.1-0.9-2.9c1.6,1.7,6.2,4,4.8-0.5c1.4,2,6,3.2,4-0.4
			c0.1,0,0.1,0.1,0.2,0.1c1.9,2.5,6,2.5,3.6-1c0.9,1.1,2.1,1.2,3.2,1.7c0.2-0.1-0.1-0.6,0.1-0.7C62.4,385.5,64.1,385.8,65.5,385.4z"
			/>
		<path class="st21" d="M32.8,314c0,0-0.1,0.1-0.1,0.2C32.7,314.1,32.8,314,32.8,314C32.9,313.8,32.9,313.8,32.8,314z"/>
		<path class="st24" d="M39.6,282.3c0-0.1,0-0.3-0.1-0.4c0,8.7-2.1,30.2-13.6,31.6c1.1,1.7,3.2,0.3,4.8-1c-0.6,1-0.7,2.6-1.1,3.6
			c0.1,0.1,0.1,0.1,0.2,0.2c1-0.6,2.1-1,2.9-2.1c0-0.1,0.1-0.1,0.1-0.2c0.1-0.1,0.1-0.1,0,0c0,0.1-0.1,0.1-0.1,0.2
			c-0.1,0.1-0.1,0.3,0,0.4c0.3-0.3,0.9-0.9,1.3-1.1c-2.4,7.1-2.9,19.9-11.5,22.7c0,0,0,0.7,0,0.7c1.1-0.3,2.9-0.3,4-0.9
			c-0.4,1-0.2,2.5-0.5,3.4c0.9-0.7,2.5-1.6,3.4-2.5c-0.1,0.8,0.2,1.9,0.1,2.7c0.7-0.7,1.9-1.3,2.5-2.4c-3.8,7.7-8.2,14.6-16.2,18.3
			c1,2.7,4.4,0.3,6.1-0.8c-0.5,0.9-0.5,2.1-0.9,3c0.5-0.5,2.1-1,2.6-1.5c-0.1,0.6,0,1.3-0.1,1.9c0.8-0.7,2.1-1.3,2.8-2.3
			c-0.3,4.3-4.6,9.3-7.8,11.9c-2.2,1.8-5.6,2.1-7.2,3.9c1.6,1.2,4,0.9,6,0.2c-0.9,1.2-0.8,2.4-1.1,3.8c1.4-0.7,2.6-2,3.8-3
			c-0.2,0.7-0.3,1.6-0.5,2.3c0.5-0.5,1.6-1.2,2.1-1.7c-2.1,7.1-7.8,8.2-12.3,12.3c1.9,2.3,5.3,0.8,7.7-0.3c-0.5,4.3,2.6,2.9,4.4,0.7
			c0.1,0.7,0.5,1.3,0.6,1.9c2.5-1,6.4-2.2,9-2.6c0.1,0.1,0.1,0.1,0.2,0.2c-0.3,0.8-0.3,2.2-0.7,3c1-0.8,2.7-1.3,3.8-1.9
			c0.7,2.3,2.2,1.9,3.5,0.7c-0.2-16.2,1.2-32.3,1.5-48.5C39.6,319.9,39,301.1,39.6,282.3z"/>
	</g>
</g>
<g id="Layer_8">
	<g>
		<path class="st25" d="M70.1,414.8c0.2-2.9,0.6-6,0.9-8.8c-1.3,2.5-1.8,5.8-2,8.7c-0.9-2.3-0.9-4.9-1.4-7.3c-0.2,2.6-0.2,5.3-0.4,8
			c-1-2.1-0.9-4.2-1.6-6.3c-0.2,1.9-0.4,4.6-1.6,6c-0.1-1.9,0.4-3.9,1-5.7c-0.7,1.8-1.4,3.9-2.4,5.6c0.9-2.9,1.1-7.2,3.3-9.5
			c-3.4,3.4-3.6,6.9-5.7,10.8c0.4-3.6,1.4-7.1,1.7-10.7c-1.5,3-2.7,6.4-3.1,9.7c0-3.7,0.2-7.4-0.1-11.1c-2.3,2.7-0.9,7.6-2,9.9
			c-0.6-2.1-0.4-4.5-0.3-6.8c-0.9,2.3-0.6,5.3-1.3,7.4c-0.1-2-0.1-4-0.1-6c-1,2-1.2,4.5-2.4,6.3c0.1-2.8,1.2-6.5,2.7-8.8
			c-3.1,1.6-2.9,5.9-4.7,8.5c0.3-3,0.8-6.6,2.1-9.3c-1.4,3.2-3.5,5.7-4.1,9.4c0-3.8,0.6-7.5,1-11.1c-1.7,2.2-2.3,7.2-2,10.1
			c-1.3-3.2-1.7-7.3-2.1-10.7c-0.9,3.1-0.2,6.8-0.7,10c0.2-2.5-0.7-4.4-0.8-6.7c-1.2,2.1-0.5,5-1.3,7.4c-0.6-1.6-0.5-4-0.2-5.7
			c-0.8,1.8-1.6,3.8-2.3,5.8c-0.2-2,0.3-4.8,1.1-7c-1,2.3-2.2,4.6-3.2,6.7c0.6-3.1,0.5-6.4,0.9-9.5c-2.1,3.2-1.1,6.6-2.2,9.8
			c-1.1-2.3-1.2-4.9-1.7-7.4c0.4,2.4,0.3,5.6,0,7.7c-0.5-2.3-1-4.5-1.9-6.8c0.4,2.2,0.5,5.3-0.2,7.5c-0.5-1.7-0.5-3.9-0.1-5.7
			c-0.8,1.4-1,3.4-1.7,5c0.1-2.7,0-5.1,1.1-7.7c-1.9,2.1-2.4,5.2-3.4,7.7c0-2.9-0.3-7.4,1-10c-2,2.4-2.5,6.3-2.4,9.3
			c-0.6-2.5-1.3-5.2-1.4-7.8c-0.8,1.6,0,5.6,0,8.1c-0.8-2.5-2.1-5.4-2.6-8.2c0.3,2.8,0.5,5.7,0.5,8.5c-1.1-1.7-1.3-4-1.4-5.9
			c-0.6,2-0.9,4.4-2,6c-0.1-2.2,0.4-4.5,0.6-6.7c-1.2,1.6-2.3,4.8-2.7,6.1c-0.1-2.7,0.8-6.1,1.9-8.6c-1.7,2.5-3.1,5.3-3.6,8.4
			c0-3.3-0.5-7,0.4-10.2c-1.4,2.5-2.4,7.7-2.1,11.2c-0.2-3.3-1.6-6.6-1.7-10c0,3.6,0,7.2,0.3,10.7c-0.7-2.4-1.7-4.8-2.5-7.2
			c0.3,2.5,0.1,5.4,0.1,7.5c-1.2-2.1-1.5-4.9-1.5-7.4c-0.9,1.6-0.9,4.4-1.9,6.1c-0.2-1.9,0.3-3.8,0.2-5.7c-0.9,1.7-1.3,3.7-2,5.6
			c0.6-3.8,0.9-8,2.6-11.6c-2.5,4.4-3.3,7.9-4.4,12.7c-1.2-2.5-1.6-6.5-1.6-9.6c-1.3,2.2-0.9,6.8-0.8,9.9c-0.6-1.5-1.3-3.3-2-5v10.1
			h72.5c0.9-4.5,0.3-9.7,1.5-14.5C72.5,408.5,71.8,412.7,70.1,414.8z"/>
		<path class="st25" d="M72.8,414.1l-1.7,6.4H146c0.9-4.5,0.3-9.7,1.5-14.5c-1.9,2.6-2.5,6.7-4.2,8.8c0.2-2.9,0.6-6,0.9-8.8
			c-1.3,2.5-1.8,5.8-2,8.7c-0.9-2.3-0.9-4.9-1.4-7.3c-0.2,2.6-0.2,5.3-0.4,8c-1-2.1-0.9-4.2-1.6-6.3c-0.2,1.9-0.4,4.6-1.6,6
			c-0.1-1.9,0.4-3.9,1-5.7c-0.7,1.8-1.4,3.9-2.4,5.6c0.9-2.9,1.1-7.2,3.3-9.5c-3.4,3.4-3.6,6.9-5.7,10.8c0.4-3.6,1.4-7.1,1.7-10.7
			c-1.5,3-2.7,6.4-3.1,9.7c0-3.7,0.2-7.4-0.1-11.1c-2.3,2.7-0.9,7.6-2,9.9c-0.6-2.1-0.4-4.5-0.3-6.8c-0.9,2.3-0.6,5.3-1.3,7.4
			c-0.1-2-0.1-4-0.1-6c-1,2-1.2,4.5-2.4,6.3c0.1-2.8,1.2-6.5,2.7-8.8c-3.1,1.6-2.9,5.9-4.7,8.5c0.3-3,0.8-6.6,2.1-9.3
			c-1.4,3.2-3.5,5.7-4.1,9.4c0-3.8,0.6-7.5,1-11.1c-1.7,2.2-2.3,7.2-2,10.1c-1.3-3.2-1.7-7.3-2.1-10.7c-0.9,3.1-0.2,6.8-0.7,10
			c0.2-2.5-0.7-4.4-0.8-6.7c-1.2,2.1-0.5,5-1.3,7.4c-0.6-1.6-0.5-4-0.2-5.7c-0.8,1.8-1.6,3.8-2.3,5.8c-0.2-2,0.3-4.8,1.1-7
			c-1,2.3-2.2,4.6-3.2,6.7c0.6-3.1,0.5-6.4,0.9-9.5c-2.1,3.2-1.1,6.6-2.2,9.8c-1.1-2.3-1.2-4.9-1.7-7.4c0.4,2.4,0.3,5.6,0,7.7
			c-0.5-2.3-1-4.5-1.9-6.8c0.4,2.2,0.5,5.3-0.2,7.5c-0.5-1.7-0.5-3.9-0.1-5.7c-0.8,1.4-1,3.4-1.7,5c0.1-2.7,0-5.1,1.1-7.7
			c-1.9,2.1-2.4,5.2-3.4,7.7c0-2.9-0.3-7.4,1-10c-2,2.4-2.5,6.3-2.4,9.3c-0.6-2.5-1.3-5.2-1.4-7.8c-0.8,1.6,0,5.6,0,8.1
			c-0.8-2.5-2.1-5.4-2.6-8.2c0.3,2.8,0.5,5.7,0.5,8.5c-1.1-1.7-1.3-4-1.4-5.9c-0.6,2-0.9,4.4-2,6c-0.1-2.2,0.4-4.5,0.6-6.7
			c-1.2,1.6-2.3,4.8-2.7,6.1c-0.1-2.7,0.8-6.1,1.9-8.6c-1.7,2.5-3.1,5.3-3.6,8.4c0-3.3-0.5-7,0.4-10.2c-1.4,2.5-2.4,7.7-2.1,11.2
			c-0.2-3.3-1.6-6.6-1.7-10c0,3.6,0,7.2,0.3,10.7c-0.7-2.4-1.7-4.8-2.5-7.2c0.3,2.5,0.1,5.4,0.1,7.5c-1.2-2.1-1.5-4.9-1.5-7.4
			c-0.9,1.6-0.9,4.4-1.9,6.1c-0.2-1.9,0.3-3.8,0.2-5.7c-0.9,1.7-1.3,3.7-2,5.6c0.6-3.8,0.9-8,2.6-11.6c-2.5,4.4-3.3,7.9-4.4,12.7
			c-1.2-2.5-1.6-6.5-1.6-9.6c-1.3,2.2-0.9,6.8-0.8,9.9c-1.1-2.9-2.6-6.9-4.1-8.8C72.2,408.7,73,412.4,72.8,414.1z"/>
		<path class="st25" d="M145.9,414.1l-1.7,6.4h74.9c0.9-4.5,0.3-9.7,1.5-14.5c-1.9,2.6-2.5,6.7-4.2,8.8c0.2-2.9,0.6-6,0.9-8.8
			c-1.3,2.5-1.8,5.8-2,8.7c-0.9-2.3-0.9-4.9-1.4-7.3c-0.2,2.6-0.2,5.3-0.4,8c-1-2.1-0.9-4.2-1.6-6.3c-0.2,1.9-0.4,4.6-1.6,6
			c-0.1-1.9,0.4-3.9,1-5.7c-0.7,1.8-1.4,3.9-2.4,5.6c0.9-2.9,1.1-7.2,3.3-9.5c-3.4,3.4-3.6,6.9-5.7,10.8c0.4-3.6,1.4-7.1,1.7-10.7
			c-1.5,3-2.7,6.4-3.1,9.7c0-3.7,0.2-7.4-0.1-11.1c-2.3,2.7-0.9,7.6-2,9.9c-0.6-2.1-0.4-4.5-0.3-6.8c-0.9,2.3-0.6,5.3-1.3,7.4
			c-0.1-2-0.1-4-0.1-6c-1,2-1.2,4.5-2.4,6.3c0.1-2.8,1.2-6.5,2.7-8.8c-3.1,1.6-2.9,5.9-4.7,8.5c0.3-3,0.8-6.6,2.1-9.3
			c-1.4,3.2-3.5,5.7-4.1,9.4c0-3.8,0.6-7.5,1-11.1c-1.7,2.2-2.3,7.2-2,10.1c-1.3-3.2-1.7-7.3-2.1-10.7c-0.9,3.1-0.2,6.8-0.7,10
			c0.2-2.5-0.7-4.4-0.8-6.7c-1.2,2.1-0.5,5-1.3,7.4c-0.6-1.6-0.5-4-0.2-5.7c-0.8,1.8-1.6,3.8-2.3,5.8c-0.2-2,0.3-4.8,1.1-7
			c-1,2.3-2.2,4.6-3.2,6.7c0.6-3.1,0.5-6.4,0.9-9.5c-2.1,3.2-1.1,6.6-2.2,9.8c-1.1-2.3-1.2-4.9-1.7-7.4c0.4,2.4,0.3,5.6,0,7.7
			c-0.5-2.3-1-4.5-1.9-6.8c0.4,2.2,0.5,5.3-0.2,7.5c-0.5-1.7-0.5-3.9,0-5.7c-0.8,1.4-1,3.4-1.7,5c0.1-2.7,0-5.1,1.1-7.7
			c-1.9,2.1-2.4,5.2-3.4,7.7c0-2.9-0.3-7.4,1-10c-2,2.4-2.5,6.3-2.4,9.3c-0.6-2.5-1.3-5.2-1.4-7.8c-0.8,1.6,0,5.6,0,8.1
			c-0.8-2.5-2.1-5.4-2.6-8.2c0.3,2.8,0.5,5.7,0.5,8.5c-1.1-1.7-1.3-4-1.4-5.9c-0.6,2-0.9,4.4-2,6c-0.1-2.2,0.4-4.5,0.6-6.7
			c-1.2,1.6-2.3,4.8-2.7,6.1c-0.1-2.7,0.8-6.1,1.9-8.6c-1.7,2.5-3.1,5.3-3.6,8.4c0-3.3-0.5-7,0.4-10.2c-1.4,2.5-2.4,7.7-2.1,11.2
			c-0.2-3.3-1.6-6.6-1.7-10c0,3.6,0,7.2,0.4,10.7c-0.7-2.4-1.7-4.8-2.5-7.2c0.3,2.5,0.1,5.4,0.1,7.5c-1.2-2.1-1.5-4.9-1.5-7.4
			c-0.9,1.6-0.9,4.4-1.9,6.1c-0.2-1.9,0.3-3.8,0.2-5.7c-0.9,1.7-1.3,3.7-2,5.6c0.6-3.8,0.9-8,2.6-11.6c-2.5,4.4-3.3,7.9-4.4,12.7
			c-1.2-2.5-1.6-6.5-1.6-9.6c-1.3,2.2-0.9,6.8-0.8,9.9c-1.1-2.9-2.6-6.9-4.1-8.8C145.3,408.7,146.1,412.4,145.9,414.1z"/>
		<path class="st25" d="M219,414.1l-1.7,6.4h74.9c0.9-4.5,0.3-9.7,1.5-14.5c-1.9,2.6-2.5,6.7-4.2,8.8c0.2-2.9,0.6-6,0.9-8.8
			c-1.3,2.5-1.8,5.8-2,8.7c-0.9-2.3-0.9-4.9-1.4-7.3c-0.2,2.6-0.2,5.3-0.4,8c-1-2.1-0.9-4.2-1.6-6.3c-0.2,1.9-0.4,4.6-1.6,6
			c-0.1-1.9,0.4-3.9,1-5.7c-0.7,1.8-1.4,3.9-2.4,5.6c0.9-2.9,1.1-7.2,3.3-9.5c-3.4,3.4-3.6,6.9-5.7,10.8c0.3-3.6,1.4-7.1,1.7-10.7
			c-1.5,3-2.7,6.4-3.1,9.7c0-3.7,0.2-7.4-0.1-11.1c-2.3,2.7-0.9,7.6-2,9.9c-0.6-2.1-0.4-4.5-0.3-6.8c-0.9,2.3-0.6,5.3-1.3,7.4
			c-0.1-2-0.1-4-0.1-6c-1,2-1.2,4.5-2.4,6.3c0.1-2.8,1.2-6.5,2.7-8.8c-3.1,1.6-2.9,5.9-4.7,8.5c0.3-3,0.8-6.6,2.1-9.3
			c-1.4,3.2-3.5,5.7-4.1,9.4c0-3.8,0.6-7.5,1-11.1c-1.7,2.2-2.3,7.2-2,10.1c-1.3-3.2-1.7-7.3-2.1-10.7c-0.9,3.1-0.2,6.8-0.7,10
			c0.2-2.5-0.7-4.4-0.8-6.7c-1.2,2.1-0.5,5-1.3,7.4c-0.6-1.6-0.5-4-0.2-5.7c-0.8,1.8-1.6,3.8-2.3,5.8c-0.2-2,0.3-4.8,1.1-7
			c-1,2.3-2.2,4.6-3.2,6.7c0.6-3.1,0.5-6.4,0.9-9.5c-2.1,3.2-1.1,6.6-2.2,9.8c-1.1-2.3-1.2-4.9-1.7-7.4c0.4,2.4,0.3,5.6,0,7.7
			c-0.5-2.3-1-4.5-1.9-6.8c0.4,2.2,0.5,5.3-0.2,7.5c-0.5-1.7-0.5-3.9,0-5.7c-0.8,1.4-1,3.4-1.7,5c0.1-2.7,0-5.1,1.1-7.7
			c-1.9,2.1-2.4,5.2-3.4,7.7c0-2.9-0.3-7.4,1-10c-2,2.4-2.5,6.3-2.4,9.3c-0.6-2.5-1.3-5.2-1.4-7.8c-0.8,1.6,0,5.6,0,8.1
			c-0.8-2.5-2.1-5.4-2.6-8.2c0.3,2.8,0.5,5.7,0.5,8.5c-1.1-1.7-1.3-4-1.4-5.9c-0.6,2-0.9,4.4-2,6c-0.1-2.2,0.4-4.5,0.6-6.7
			c-1.2,1.6-2.3,4.8-2.7,6.1c-0.1-2.7,0.8-6.1,1.9-8.6c-1.7,2.5-3.1,5.3-3.6,8.4c0-3.3-0.4-7,0.4-10.2c-1.4,2.5-2.4,7.7-2.1,11.2
			c-0.2-3.3-1.6-6.6-1.7-10c0,3.6,0,7.2,0.3,10.7c-0.7-2.4-1.7-4.8-2.5-7.2c0.3,2.5,0.1,5.4,0.1,7.5c-1.2-2.1-1.5-4.9-1.5-7.4
			c-0.9,1.6-0.9,4.4-1.9,6.1c-0.2-1.9,0.3-3.8,0.2-5.7c-0.9,1.7-1.3,3.7-2,5.6c0.6-3.8,0.9-8,2.6-11.6c-2.5,4.4-3.3,7.9-4.4,12.7
			c-1.2-2.5-1.6-6.5-1.6-9.6c-1.3,2.2-0.9,6.8-0.8,9.9c-1.1-2.9-2.6-6.9-4.1-8.8C218.4,408.7,219.2,412.4,219,414.1z"/>
		<path class="st25" d="M290.4,420.5h72.9v-6.9c-0.2,0.5-0.5,0.9-0.8,1.2c0.2-2.5,0.5-5.2,0.8-7.7v-0.8c-1.2,2.5-1.7,5.7-1.8,8.4
			c-0.9-2.3-0.9-4.9-1.4-7.3c-0.2,2.6-0.2,5.3-0.4,8c-1-2.1-0.9-4.2-1.6-6.3c-0.2,1.9-0.4,4.6-1.6,6c-0.1-1.9,0.4-3.9,1-5.7
			c-0.7,1.8-1.4,3.9-2.4,5.6c0.9-2.9,1.1-7.2,3.3-9.5c-3.4,3.4-3.6,6.9-5.7,10.8c0.3-3.6,1.4-7.1,1.7-10.7c-1.5,3-2.7,6.4-3.1,9.7
			c0-3.7,0.2-7.4-0.1-11.1c-2.3,2.7-0.9,7.6-2,9.9c-0.6-2.1-0.4-4.5-0.3-6.8c-0.9,2.3-0.6,5.3-1.3,7.4c-0.1-2-0.1-4-0.1-6
			c-1,2-1.2,4.5-2.4,6.3c0.1-2.8,1.2-6.5,2.7-8.8c-3.1,1.6-2.9,5.9-4.7,8.5c0.3-3,0.8-6.6,2.1-9.3c-1.4,3.2-3.5,5.7-4.1,9.4
			c0-3.8,0.6-7.5,1-11.1c-1.7,2.2-2.3,7.2-2,10.1c-1.3-3.2-1.7-7.3-2.1-10.7c-0.9,3.1-0.2,6.8-0.7,10c0.2-2.5-0.7-4.4-0.8-6.7
			c-1.2,2.1-0.5,5-1.3,7.4c-0.6-1.6-0.5-4-0.2-5.7c-0.8,1.8-1.6,3.8-2.3,5.8c-0.2-2,0.3-4.8,1.1-7c-1,2.3-2.2,4.6-3.2,6.7
			c0.6-3.1,0.5-6.4,0.9-9.5c-2.1,3.2-1.1,6.6-2.2,9.8c-1.1-2.3-1.2-4.9-1.7-7.4c0.4,2.4,0.3,5.6,0,7.7c-0.5-2.3-1-4.5-1.9-6.8
			c0.4,2.2,0.5,5.3-0.2,7.5c-0.5-1.7-0.5-3.9,0-5.7c-0.8,1.4-1,3.4-1.7,5c0.1-2.7,0-5.1,1.1-7.7c-1.9,2.1-2.4,5.2-3.4,7.7
			c0-2.9-0.3-7.4,1-10c-2,2.4-2.5,6.3-2.4,9.3c-0.6-2.5-1.3-5.2-1.4-7.8c-0.8,1.6,0,5.6,0,8.1c-0.8-2.5-2.1-5.4-2.6-8.2
			c0.3,2.8,0.5,5.7,0.5,8.5c-1.1-1.7-1.3-4-1.4-5.9c-0.6,2-0.9,4.4-2,6c-0.1-2.2,0.4-4.5,0.6-6.7c-1.2,1.6-2.3,4.8-2.7,6.1
			c-0.1-2.7,0.8-6.1,1.9-8.6c-1.7,2.5-3.1,5.3-3.6,8.4c0-3.3-0.4-7,0.4-10.2c-1.4,2.5-2.4,7.7-2.1,11.2c-0.2-3.3-1.6-6.6-1.7-10
			c0,3.6,0,7.2,0.3,10.7c-0.7-2.4-1.7-4.8-2.5-7.2c0.3,2.5,0.1,5.4,0.1,7.5c-1.2-2.1-1.5-4.9-1.5-7.4c-0.9,1.6-0.9,4.4-1.9,6.1
			c-0.2-1.9,0.3-3.8,0.2-5.7c-0.9,1.7-1.3,3.7-2,5.6c0.6-3.8,0.9-8,2.6-11.6c-2.5,4.4-3.3,7.9-4.4,12.7c-1.2-2.5-1.6-6.5-1.6-9.6
			c-1.3,2.2-0.9,6.8-0.8,9.9c-1.1-2.9-2.6-6.9-4.1-8.8c0.9,2.1,1.7,5.8,1.5,7.6L290.4,420.5z"/>
	</g>
	<g>
		<path class="st25" d="M14,414.4c-0.4-0.5-1.2-0.6-1.8-0.6c1-0.2,2.2-1,1.7-1.9c-0.4-0.7-1.5-1.1-2.4-0.8c-0.8,0.3-1.3,0.9-1.5,1.6
			c0,0,0,0,0,0c0.1-0.4-0.2-1.1-0.5-1.3c-0.5-0.5-1.8-0.5-2.3,0c-0.5,0.4-0.7,1.2-0.2,1.7c0.3,0.2,0.6,0.4,1.1,0.6
			c-0.3,0-0.6,0-0.9,0.1c-0.7,0.2-1.3,0.7-1.3,1.3c0,0.1,0,0.2,0,0.2c0.1,0.7,1,1,1.8,0.9c0.5-0.1,1.3-0.3,1.5-0.7c0,0,0,0,0,0
			c-0.1,0.3-0.4,0.6-0.5,0.9c0,0.4,0.2,0.8,0.5,1.1c0.5,0.4,1.3,0.5,1.9,0.2c0.7-0.4,0.6-1.3,0.3-2c0.2,0.3,0.4,0.5,0.8,0.6
			c0.7,0.3,1.3,0.2,1.8-0.3C14.4,415.6,14.4,414.9,14,414.4z"/>
		<g>
			<path class="st26" d="M6,414.6c0.1,0.7,1,1,1.8,0.9c0.5-0.1,1.4-0.3,1.5-0.8c-0.1,0.4-0.5,0.6-0.5,1c0,0.4,0.2,0.8,0.5,1.1
				c0.5,0.4,1.3,0.5,1.9,0.2c0.8-0.5,0.6-1.7,0.1-2.3c0.2,0.4,0.5,0.7,1,0.9c0.7,0.3,1.3,0.2,1.8-0.3c0.5-0.4,0.5-1.1,0-1.6
				c-0.4-0.5-1.2-0.6-1.8-0.6c1-0.2,2.2-1,1.7-1.9c-0.4-0.7-1.5-1.1-2.4-0.8c-0.8,0.3-1.4,1-1.6,1.7c0.2-0.4-0.1-1.1-0.5-1.4
				c-0.5-0.5-1.8-0.5-2.3,0c-0.5,0.4-0.7,1.2-0.2,1.7c0.4,0.4,1.2,0.7,1.8,0.6c-0.2,0-0.4,0-0.6-0.1c-0.4,0-0.7,0-1.1,0.1
				c-0.7,0.2-1.3,0.7-1.3,1.3C6,414.5,6,414.6,6,414.6z"/>
			<path class="st27" d="M10.5,412.1c-0.9,0-1.8,0.3-2.1,1.1c-0.4,1,0.7,1.8,1.9,1.9c0.9,0.1,1.8-0.2,2.2-1c0.2-0.4,0.1-0.8-0.1-1.2
				c-0.4-0.6-1-0.7-1.7-0.9"/>
			<path class="st28" d="M10.5,412.1c-0.8,0-1.7,0.3-2,1c-0.4,1,0.7,1.6,1.7,1.7c0.9,0.1,1.7-0.2,2-0.9c0.2-0.4,0.1-0.7-0.1-1.1
				c-0.3-0.5-0.9-0.7-1.5-0.8"/>
			<path class="st29" d="M10,414.1c-0.8-0.5-0.5-1.3,0.1-1.8c-0.6,0.1-1.1,0.3-1.3,0.9c-0.3,0.8,0.6,1.4,1.5,1.5
				c0.6,0.1,1.1-0.1,1.5-0.4C11.2,414.5,10.5,414.5,10,414.1z"/>
		</g>
	</g>
	<g>
		<path class="st25" d="M112.5,412.7c-0.4-0.5-1.2-0.6-1.8-0.6c1-0.2,2.2-1,1.7-1.9c-0.4-0.7-1.5-1.1-2.4-0.8
			c-0.8,0.3-1.3,0.9-1.5,1.6c0,0,0,0,0,0c0.1-0.4-0.2-1.1-0.5-1.3c-0.5-0.5-1.8-0.5-2.3,0c-0.5,0.4-0.7,1.2-0.2,1.7
			c0.3,0.2,0.6,0.4,1.1,0.6c-0.3,0-0.6,0-0.9,0.1c-0.7,0.2-1.3,0.7-1.3,1.3c0,0.1,0,0.2,0,0.2c0.1,0.7,1,1,1.8,0.9
			c0.5-0.1,1.3-0.3,1.5-0.7c0,0,0,0,0,0c-0.1,0.3-0.4,0.6-0.5,0.9c0,0.4,0.2,0.8,0.5,1.1c0.5,0.4,1.3,0.5,1.9,0.2
			c0.7-0.4,0.6-1.3,0.3-2c0.2,0.3,0.4,0.5,0.8,0.6c0.7,0.3,1.3,0.2,1.8-0.3C112.9,413.8,112.9,413.1,112.5,412.7z"/>
		<g>
			<path class="st26" d="M104.5,412.9c0.1,0.7,1,1,1.8,0.9c0.5-0.1,1.4-0.3,1.5-0.8c-0.1,0.4-0.5,0.6-0.5,1c0,0.4,0.2,0.8,0.5,1.1
				c0.5,0.4,1.3,0.5,1.9,0.2c0.8-0.5,0.6-1.7,0.1-2.3c0.2,0.4,0.5,0.7,1,0.9c0.7,0.3,1.3,0.2,1.8-0.3c0.5-0.4,0.5-1.1,0-1.6
				c-0.4-0.5-1.2-0.6-1.8-0.6c1-0.2,2.2-1,1.7-1.9c-0.4-0.7-1.5-1.1-2.4-0.8c-0.8,0.3-1.4,1-1.6,1.7c0.2-0.4-0.1-1.1-0.5-1.4
				c-0.5-0.5-1.8-0.5-2.3,0c-0.5,0.4-0.7,1.2-0.2,1.7c0.4,0.4,1.2,0.7,1.8,0.6c-0.2,0-0.4,0-0.6-0.1c-0.4,0-0.7,0-1.1,0.1
				c-0.7,0.2-1.3,0.7-1.3,1.3C104.5,412.7,104.5,412.8,104.5,412.9z"/>
			<path class="st27" d="M109,410.3c-0.9,0-1.8,0.3-2.1,1.1c-0.4,1,0.7,1.8,1.9,1.9c0.9,0.1,1.8-0.2,2.2-1c0.2-0.4,0.1-0.8-0.1-1.2
				c-0.4-0.6-1-0.7-1.7-0.9"/>
			<path class="st28" d="M109,410.4c-0.8,0-1.7,0.3-2,1c-0.4,1,0.7,1.6,1.7,1.7c0.9,0.1,1.7-0.2,2-0.9c0.2-0.4,0.1-0.7-0.1-1.1
				c-0.3-0.5-0.9-0.7-1.5-0.8"/>
			<path class="st29" d="M108.5,412.4c-0.8-0.5-0.5-1.3,0.1-1.8c-0.6,0.1-1.1,0.3-1.3,0.9c-0.3,0.8,0.6,1.4,1.5,1.5
				c0.6,0.1,1.1-0.1,1.5-0.4C109.7,412.7,109,412.7,108.5,412.4z"/>
		</g>
	</g>
	<g>
		<path class="st25" d="M215.7,414.7c-0.4-0.5-1.2-0.6-1.8-0.6c1-0.2,2.2-1,1.7-1.9c-0.4-0.7-1.5-1.1-2.4-0.8
			c-0.8,0.3-1.3,0.9-1.5,1.6c0,0,0,0,0,0c0.1-0.4-0.2-1.1-0.5-1.3c-0.5-0.5-1.8-0.5-2.3,0c-0.5,0.4-0.7,1.2-0.2,1.7
			c0.3,0.2,0.6,0.4,1.1,0.6c-0.3,0-0.6,0-0.9,0.1c-0.7,0.2-1.3,0.7-1.3,1.3c0,0.1,0,0.2,0,0.2c0.1,0.7,1,1,1.8,0.9
			c0.5-0.1,1.3-0.3,1.5-0.7c0,0,0,0,0,0c-0.1,0.3-0.4,0.6-0.5,0.9c0,0.4,0.2,0.8,0.5,1.1c0.5,0.4,1.3,0.5,1.9,0.2
			c0.7-0.4,0.6-1.3,0.3-2c0.2,0.3,0.4,0.5,0.8,0.6c0.7,0.3,1.3,0.2,1.8-0.3C216.2,415.8,216.2,415.1,215.7,414.7z"/>
		<g>
			<path class="st26" d="M207.8,414.9c0.1,0.7,1,1,1.8,0.9c0.5-0.1,1.4-0.3,1.5-0.8c-0.1,0.4-0.5,0.6-0.5,1c0,0.4,0.2,0.8,0.5,1.1
				c0.5,0.4,1.3,0.5,1.9,0.2c0.8-0.5,0.6-1.7,0.1-2.3c0.2,0.4,0.5,0.7,1,0.9c0.7,0.3,1.3,0.2,1.8-0.3c0.5-0.4,0.5-1.1,0-1.6
				c-0.4-0.5-1.2-0.6-1.8-0.6c1-0.2,2.2-1,1.7-1.9c-0.4-0.7-1.5-1.1-2.4-0.8c-0.8,0.3-1.4,1-1.6,1.7c0.2-0.4-0.1-1.1-0.5-1.4
				c-0.5-0.5-1.8-0.5-2.3,0c-0.5,0.4-0.7,1.2-0.2,1.7c0.4,0.4,1.2,0.7,1.8,0.6c-0.2,0-0.4,0-0.6-0.1c-0.4,0-0.7,0-1.1,0.1
				c-0.7,0.2-1.3,0.7-1.3,1.3C207.7,414.7,207.8,414.8,207.8,414.9z"/>
			<path class="st27" d="M212.2,412.3c-0.9,0-1.8,0.3-2.1,1.1c-0.4,1,0.7,1.8,1.9,1.9c0.9,0.1,1.8-0.2,2.2-1
				c0.2-0.4,0.1-0.8-0.1-1.2c-0.4-0.6-1-0.7-1.7-0.9"/>
			<path class="st28" d="M212.2,412.4c-0.8,0-1.7,0.3-2,1c-0.4,1,0.7,1.6,1.7,1.7c0.9,0.1,1.7-0.2,2-0.9c0.2-0.4,0.1-0.7-0.1-1.1
				c-0.3-0.5-0.9-0.7-1.5-0.8"/>
			<path class="st29" d="M211.8,414.4c-0.8-0.5-0.5-1.3,0.1-1.8c-0.6,0.1-1.1,0.3-1.3,0.9c-0.3,0.8,0.6,1.4,1.5,1.5
				c0.6,0.1,1.1-0.1,1.5-0.4C213,414.7,212.3,414.7,211.8,414.4z"/>
		</g>
	</g>
	<g>
		<path class="st25" d="M270.7,411.4c-0.4-0.5-1.2-0.6-1.8-0.6c1-0.2,2.2-1,1.7-1.9c-0.4-0.7-1.5-1.1-2.4-0.8
			c-0.8,0.3-1.3,0.9-1.5,1.6c0,0,0,0,0,0c0.1-0.4-0.2-1.1-0.5-1.3c-0.5-0.5-1.8-0.5-2.3,0c-0.5,0.4-0.7,1.2-0.2,1.7
			c0.3,0.2,0.6,0.4,1.1,0.6c-0.3,0-0.6,0-0.9,0.1c-0.7,0.2-1.3,0.7-1.3,1.3c0,0.1,0,0.2,0,0.2c0.1,0.7,1,1,1.8,0.9
			c0.5-0.1,1.3-0.3,1.5-0.7c0,0,0,0,0,0c-0.1,0.3-0.4,0.6-0.5,0.9c0,0.4,0.2,0.8,0.5,1.1c0.5,0.4,1.3,0.5,1.9,0.2
			c0.7-0.4,0.6-1.3,0.3-2c0.2,0.3,0.4,0.5,0.8,0.6c0.7,0.3,1.3,0.2,1.8-0.3C271.2,412.6,271.2,411.9,270.7,411.4z"/>
		<g>
			<path class="st26" d="M262.8,411.6c0.1,0.7,1,1,1.8,0.9c0.5-0.1,1.4-0.3,1.5-0.8c-0.1,0.4-0.5,0.6-0.5,1c0,0.4,0.2,0.8,0.5,1.1
				c0.5,0.4,1.3,0.5,1.9,0.2c0.8-0.5,0.6-1.7,0.1-2.3c0.2,0.4,0.5,0.7,1,0.9c0.7,0.3,1.3,0.2,1.8-0.3c0.5-0.4,0.5-1.1,0-1.6
				c-0.4-0.5-1.2-0.6-1.8-0.6c1-0.2,2.2-1,1.7-1.9c-0.4-0.7-1.5-1.1-2.4-0.8c-0.8,0.3-1.4,1-1.6,1.7c0.2-0.4-0.1-1.1-0.5-1.4
				c-0.5-0.5-1.8-0.5-2.3,0c-0.5,0.4-0.7,1.2-0.2,1.7c0.4,0.4,1.2,0.7,1.8,0.6c-0.2,0-0.4,0-0.6-0.1c-0.4,0-0.7,0-1.1,0.1
				c-0.7,0.2-1.3,0.7-1.3,1.3C262.7,411.5,262.8,411.6,262.8,411.6z"/>
			<path class="st27" d="M267.2,409.1c-0.9,0-1.8,0.3-2.1,1.1c-0.4,1,0.7,1.8,1.9,1.9c0.9,0.1,1.8-0.2,2.2-1
				c0.2-0.4,0.1-0.8-0.1-1.2c-0.4-0.6-1-0.7-1.7-0.9"/>
			<path class="st28" d="M267.2,409.1c-0.8,0-1.7,0.3-2,1c-0.4,1,0.7,1.6,1.7,1.7c0.9,0.1,1.7-0.2,2-0.9c0.2-0.4,0.1-0.7-0.1-1.1
				c-0.3-0.5-0.9-0.7-1.5-0.8"/>
			<path class="st29" d="M266.8,411.1c-0.8-0.5-0.5-1.3,0.1-1.8c-0.6,0.1-1.1,0.3-1.3,0.9c-0.3,0.8,0.6,1.4,1.5,1.5
				c0.6,0.1,1.1-0.1,1.5-0.4C268,411.5,267.3,411.5,266.8,411.1z"/>
		</g>
	</g>
	<g>
		<path class="st25" d="M310,415.4c-0.4-0.5-1.2-0.6-1.8-0.6c1-0.2,2.2-1,1.7-1.9c-0.4-0.7-1.5-1.1-2.4-0.8
			c-0.8,0.3-1.3,0.9-1.5,1.6c0,0,0,0,0,0c0.1-0.4-0.2-1.1-0.5-1.3c-0.5-0.5-1.8-0.5-2.3,0c-0.5,0.4-0.7,1.2-0.2,1.7
			c0.3,0.2,0.6,0.4,1.1,0.6c-0.3,0-0.6,0-0.9,0.1c-0.7,0.2-1.3,0.7-1.3,1.3c0,0.1,0,0.2,0,0.2c0.1,0.7,1,1,1.8,0.9
			c0.5-0.1,1.3-0.3,1.5-0.7c0,0,0,0,0,0c-0.1,0.3-0.4,0.6-0.5,0.9c0,0.4,0.2,0.8,0.5,1.1c0.5,0.4,1.3,0.5,1.9,0.2
			c0.7-0.4,0.6-1.3,0.3-2c0.2,0.3,0.4,0.5,0.8,0.6c0.7,0.3,1.3,0.2,1.8-0.3C310.4,416.6,310.4,415.9,310,415.4z"/>
		<g>
			<path class="st26" d="M302,415.6c0.1,0.7,1,1,1.8,0.9c0.5-0.1,1.4-0.3,1.5-0.8c-0.1,0.4-0.5,0.6-0.5,1c0,0.4,0.2,0.8,0.5,1.1
				c0.5,0.4,1.3,0.5,1.9,0.2c0.8-0.5,0.6-1.7,0.1-2.3c0.2,0.4,0.5,0.7,1,0.9c0.7,0.3,1.3,0.2,1.8-0.3c0.5-0.4,0.5-1.1,0-1.6
				c-0.4-0.5-1.2-0.6-1.8-0.6c1-0.2,2.2-1,1.7-1.9c-0.4-0.7-1.5-1.1-2.4-0.8c-0.8,0.3-1.4,1-1.6,1.7c0.2-0.4-0.1-1.1-0.5-1.4
				c-0.5-0.5-1.8-0.5-2.3,0c-0.5,0.4-0.7,1.2-0.2,1.7c0.4,0.4,1.2,0.7,1.8,0.6c-0.2,0-0.4,0-0.6-0.1c-0.4,0-0.7,0-1.1,0.1
				c-0.7,0.2-1.3,0.7-1.3,1.3C302,415.5,302,415.6,302,415.6z"/>
			<path class="st27" d="M306.5,413.1c-0.9,0-1.8,0.3-2.1,1.1c-0.4,1,0.7,1.8,1.9,1.9c0.9,0.1,1.8-0.2,2.2-1
				c0.2-0.4,0.1-0.8-0.1-1.2c-0.4-0.6-1-0.7-1.7-0.9"/>
			<path class="st28" d="M306.5,413.1c-0.8,0-1.7,0.3-2,1c-0.4,1,0.7,1.6,1.7,1.7c0.9,0.1,1.7-0.2,2-0.9c0.2-0.4,0.1-0.7-0.1-1.1
				c-0.3-0.5-0.9-0.7-1.5-0.8"/>
			<path class="st29" d="M306,415.1c-0.8-0.5-0.5-1.3,0.1-1.8c-0.6,0.1-1.1,0.3-1.3,0.9c-0.3,0.8,0.6,1.4,1.5,1.5
				c0.6,0.1,1.1-0.1,1.5-0.4C307.2,415.5,306.5,415.5,306,415.1z"/>
		</g>
	</g>
	<g>
		<path class="st25" d="M356.6,413c-0.4-0.5-1.2-0.6-1.8-0.6c1-0.2,2.2-1,1.7-1.9c-0.4-0.7-1.5-1.1-2.4-0.8
			c-0.8,0.3-1.3,0.9-1.5,1.6c0,0,0,0,0,0c0.1-0.4-0.2-1.1-0.5-1.3c-0.5-0.5-1.8-0.5-2.3,0c-0.5,0.4-0.7,1.2-0.2,1.7
			c0.3,0.2,0.6,0.4,1.1,0.6c-0.3,0-0.6,0-0.9,0.1c-0.7,0.2-1.3,0.7-1.3,1.3c0,0.1,0,0.2,0,0.2c0.1,0.7,1,1,1.8,0.9
			c0.5-0.1,1.3-0.3,1.5-0.7c0,0,0,0,0,0c-0.1,0.3-0.4,0.6-0.5,0.9c0,0.4,0.2,0.8,0.5,1.1c0.5,0.4,1.3,0.5,1.9,0.2
			c0.7-0.4,0.6-1.3,0.3-2c0.2,0.3,0.4,0.5,0.8,0.6c0.7,0.3,1.3,0.2,1.8-0.3C357,414.1,357,413.5,356.6,413z"/>
		<g>
			<path class="st26" d="M348.6,413.2c0.1,0.7,1,1,1.8,0.9c0.5-0.1,1.4-0.3,1.5-0.8c-0.1,0.4-0.5,0.6-0.5,1c0,0.4,0.2,0.8,0.5,1.1
				c0.5,0.4,1.3,0.5,1.9,0.2c0.8-0.5,0.6-1.7,0.1-2.3c0.2,0.4,0.5,0.7,1,0.9c0.7,0.3,1.3,0.2,1.8-0.3c0.5-0.4,0.5-1.1,0-1.6
				c-0.4-0.5-1.2-0.6-1.8-0.6c1-0.2,2.2-1,1.7-1.9c-0.4-0.7-1.5-1.1-2.4-0.8c-0.8,0.3-1.4,1-1.6,1.7c0.2-0.4-0.1-1.1-0.5-1.4
				c-0.5-0.5-1.8-0.5-2.3,0c-0.5,0.4-0.7,1.2-0.2,1.7c0.4,0.4,1.2,0.7,1.8,0.6c-0.2,0-0.4,0-0.6-0.1c-0.4,0-0.7,0-1.1,0.1
				c-0.7,0.2-1.3,0.7-1.3,1.3C348.6,413.1,348.6,413.1,348.6,413.2z"/>
			<path class="st27" d="M353.1,410.7c-0.9,0-1.8,0.3-2.1,1.1c-0.4,1,0.7,1.8,1.9,1.9c0.9,0.1,1.8-0.2,2.2-1
				c0.2-0.4,0.1-0.8-0.1-1.2c-0.4-0.6-1-0.7-1.7-0.9"/>
			<path class="st28" d="M353.1,410.7c-0.8,0-1.7,0.3-2,1c-0.4,1,0.7,1.6,1.7,1.7c0.9,0.1,1.7-0.2,2-0.9c0.2-0.4,0.1-0.7-0.1-1.1
				c-0.3-0.5-0.9-0.7-1.5-0.8"/>
			<path class="st29" d="M352.6,412.7c-0.8-0.5-0.5-1.3,0.1-1.8c-0.6,0.1-1.1,0.3-1.3,0.9c-0.3,0.8,0.6,1.4,1.5,1.5
				c0.6,0.1,1.1-0.1,1.5-0.4C353.8,413.1,353.1,413,352.6,412.7z"/>
		</g>
	</g>
	<g>
		<path class="st25" d="M157,415.2c-0.4-0.5-1.2-0.6-1.8-0.6c1-0.2,2.2-1,1.7-1.9c-0.4-0.7-1.5-1.1-2.4-0.8
			c-0.8,0.3-1.3,0.9-1.5,1.6c0,0,0,0,0,0c0.1-0.4-0.2-1.1-0.5-1.3c-0.5-0.5-1.8-0.5-2.3,0c-0.5,0.4-0.7,1.2-0.2,1.7
			c0.3,0.2,0.6,0.4,1.1,0.6c-0.3,0-0.6,0-0.9,0.1c-0.7,0.2-1.3,0.7-1.3,1.3c0,0.1,0,0.2,0,0.2c0.1,0.7,1,1,1.8,0.9
			c0.5-0.1,1.3-0.3,1.5-0.7c0,0,0,0,0,0c-0.1,0.3-0.4,0.6-0.5,0.9c0,0.4,0.2,0.8,0.5,1.1c0.5,0.4,1.3,0.5,1.9,0.2
			c0.7-0.4,0.6-1.3,0.3-2c0.2,0.3,0.4,0.5,0.8,0.6c0.7,0.3,1.3,0.2,1.8-0.3C157.4,416.3,157.4,415.6,157,415.2z"/>
		<g>
			<path class="st26" d="M149,415.4c0.1,0.7,1,1,1.8,0.9c0.5-0.1,1.4-0.3,1.5-0.8c-0.1,0.4-0.5,0.6-0.5,1c0,0.4,0.2,0.8,0.5,1.1
				c0.5,0.4,1.3,0.5,1.9,0.2c0.8-0.5,0.6-1.7,0.1-2.3c0.2,0.4,0.5,0.7,1,0.9c0.7,0.3,1.3,0.2,1.8-0.3c0.5-0.4,0.5-1.1,0-1.6
				c-0.4-0.5-1.2-0.6-1.8-0.6c1-0.2,2.2-1,1.7-1.9c-0.4-0.7-1.5-1.1-2.4-0.8c-0.8,0.3-1.4,1-1.6,1.7c0.2-0.4-0.1-1.1-0.5-1.4
				c-0.5-0.5-1.8-0.5-2.3,0c-0.5,0.4-0.7,1.2-0.2,1.7c0.4,0.4,1.2,0.7,1.8,0.6c-0.2,0-0.4,0-0.6-0.1c-0.4,0-0.7,0-1.1,0.1
				c-0.7,0.2-1.3,0.7-1.3,1.3C149,415.2,149,415.3,149,415.4z"/>
			<path class="st27" d="M153.5,412.8c-0.9,0-1.8,0.3-2.1,1.1c-0.4,1,0.7,1.8,1.9,1.9c0.9,0.1,1.8-0.2,2.2-1
				c0.2-0.4,0.1-0.8-0.1-1.2c-0.4-0.6-1-0.7-1.7-0.9"/>
			<path class="st28" d="M153.5,412.9c-0.8,0-1.7,0.3-2,1c-0.4,1,0.7,1.6,1.7,1.7c0.9,0.1,1.7-0.2,2-0.9c0.2-0.4,0.1-0.7-0.1-1.1
				c-0.3-0.5-0.9-0.7-1.5-0.8"/>
			<path class="st29" d="M153,414.9c-0.8-0.5-0.5-1.3,0.1-1.8c-0.6,0.1-1.1,0.3-1.3,0.9c-0.3,0.8,0.6,1.4,1.5,1.5
				c0.6,0.1,1.1-0.1,1.5-0.4C154.2,415.2,153.5,415.2,153,414.9z"/>
		</g>
	</g>
	<g>
		<path class="st25" d="M54.2,413.2c-0.4-0.5-1.2-0.6-1.8-0.6c1-0.2,2.2-1,1.7-1.9c-0.4-0.7-1.5-1.1-2.4-0.8
			c-0.8,0.3-1.3,0.9-1.5,1.6c0,0,0,0,0,0c0.1-0.4-0.2-1.1-0.5-1.3c-0.5-0.5-1.8-0.5-2.3,0c-0.5,0.4-0.7,1.2-0.2,1.7
			c0.3,0.2,0.6,0.4,1.1,0.6c-0.3,0-0.6,0-0.9,0.1c-0.7,0.2-1.3,0.7-1.3,1.3c0,0.1,0,0.2,0,0.2c0.1,0.7,1,1,1.8,0.9
			c0.5-0.1,1.3-0.3,1.5-0.7c0,0,0,0,0,0c-0.1,0.3-0.4,0.6-0.5,0.9c0,0.4,0.2,0.8,0.5,1.1c0.5,0.4,1.3,0.5,1.9,0.2
			c0.7-0.4,0.6-1.3,0.3-2c0.2,0.3,0.4,0.5,0.8,0.6c0.7,0.3,1.3,0.2,1.8-0.3C54.7,414.3,54.7,413.6,54.2,413.2z"/>
		<g>
			<path class="st26" d="M46.3,413.4c0.1,0.7,1,1,1.8,0.9c0.5-0.1,1.4-0.3,1.5-0.8c-0.1,0.4-0.5,0.6-0.5,1c0,0.4,0.2,0.8,0.5,1.1
				c0.5,0.4,1.3,0.5,1.9,0.2c0.8-0.5,0.6-1.7,0.1-2.3c0.2,0.4,0.5,0.7,1,0.9c0.7,0.3,1.3,0.2,1.8-0.3c0.5-0.4,0.5-1.1,0-1.6
				c-0.4-0.5-1.2-0.6-1.8-0.6c1-0.2,2.2-1,1.7-1.9c-0.4-0.7-1.5-1.1-2.4-0.8c-0.8,0.3-1.4,1-1.6,1.7c0.2-0.4-0.1-1.1-0.5-1.4
				c-0.5-0.5-1.8-0.5-2.3,0c-0.5,0.4-0.7,1.2-0.2,1.7c0.4,0.4,1.2,0.7,1.8,0.6c-0.2,0-0.4,0-0.6-0.1c-0.4,0-0.7,0-1.1,0.1
				c-0.7,0.2-1.3,0.7-1.3,1.3C46.2,413.2,46.3,413.3,46.3,413.4z"/>
			<path class="st27" d="M50.7,410.8c-0.9,0-1.8,0.3-2.1,1.1c-0.4,1,0.7,1.8,1.9,1.9c0.9,0.1,1.8-0.2,2.2-1c0.2-0.4,0.1-0.8-0.1-1.2
				c-0.4-0.6-1-0.7-1.7-0.9"/>
			<path class="st28" d="M50.7,410.9c-0.8,0-1.7,0.3-2,1c-0.4,1,0.7,1.6,1.7,1.7c0.9,0.1,1.7-0.2,2-0.9c0.2-0.4,0.1-0.7-0.1-1.1
				c-0.3-0.5-0.9-0.7-1.5-0.8"/>
			<path class="st29" d="M50.3,412.9c-0.8-0.5-0.5-1.3,0.1-1.8c-0.6,0.1-1.1,0.3-1.3,0.9c-0.3,0.8,0.6,1.4,1.5,1.5
				c0.6,0.1,1.1-0.1,1.5-0.4C51.5,413.2,50.8,413.2,50.3,412.9z"/>
		</g>
	</g>
	<g>
		<path class="st25" d="M69.8,400.5c-0.2-0.3-0.7-0.4-1.1-0.4c0.6-0.1,1.3-0.6,1-1.1c-0.2-0.4-0.9-0.6-1.4-0.5
			c-0.5,0.2-0.8,0.5-0.9,0.9c0,0,0,0,0,0c0.1-0.2-0.1-0.6-0.3-0.8c-0.3-0.3-1.1-0.3-1.4,0c-0.3,0.3-0.4,0.7-0.1,1
			c0.2,0.1,0.4,0.3,0.6,0.3c-0.2,0-0.4,0-0.6,0.1c-0.4,0.1-0.8,0.4-0.8,0.8c0,0,0,0.1,0,0.1c0.1,0.4,0.6,0.6,1.1,0.5
			c0.3,0,0.7-0.2,0.9-0.4c0,0,0,0,0,0c-0.1,0.2-0.3,0.3-0.3,0.6c0,0.2,0.1,0.5,0.3,0.6c0.3,0.2,0.8,0.3,1.1,0.1
			c0.4-0.2,0.4-0.8,0.2-1.2c0.1,0.2,0.3,0.3,0.5,0.4c0.4,0.2,0.8,0.1,1.1-0.2C70.1,401.1,70.1,400.7,69.8,400.5z"/>
		<g>
			<path class="st26" d="M65.1,400.6c0.1,0.4,0.6,0.6,1.1,0.5c0.3-0.1,0.8-0.2,0.9-0.4c-0.1,0.2-0.3,0.4-0.3,0.6
				c0,0.2,0.1,0.5,0.3,0.6c0.3,0.2,0.8,0.3,1.1,0.1c0.5-0.3,0.3-1,0.1-1.4c0.1,0.2,0.3,0.4,0.6,0.5c0.4,0.2,0.8,0.1,1.1-0.2
				c0.3-0.3,0.3-0.7,0-0.9c-0.2-0.3-0.7-0.4-1.1-0.4c0.6-0.1,1.3-0.6,1-1.1c-0.2-0.4-0.9-0.6-1.4-0.5c-0.5,0.2-0.8,0.6-0.9,1
				c0.1-0.2-0.1-0.7-0.3-0.8c-0.3-0.3-1.1-0.3-1.4,0c-0.3,0.3-0.4,0.7-0.1,1c0.2,0.2,0.7,0.4,1.1,0.4c-0.1,0-0.2,0-0.3,0
				c-0.2,0-0.4,0-0.6,0c-0.4,0.1-0.8,0.4-0.8,0.8C65.1,400.5,65.1,400.5,65.1,400.6z"/>
			<path class="st27" d="M67.8,399.1c-0.5,0-1.1,0.2-1.3,0.7c-0.2,0.6,0.4,1,1.1,1.1c0.6,0.1,1.1-0.1,1.3-0.6
				c0.1-0.2,0.1-0.5-0.1-0.7C68.6,399.2,68.3,399.1,67.8,399.1"/>
			<path class="st28" d="M67.8,399.1c-0.5,0-1,0.2-1.2,0.6c-0.2,0.6,0.4,1,1,1c0.5,0.1,1-0.1,1.2-0.5c0.1-0.2,0.1-0.4-0.1-0.6
				C68.6,399.3,68.2,399.2,67.8,399.1"/>
			<path class="st29" d="M67.5,400.3c-0.5-0.3-0.3-0.8,0.1-1.1c-0.3,0.1-0.6,0.2-0.7,0.5c-0.2,0.5,0.4,0.8,0.9,0.9
				c0.3,0,0.7,0,0.9-0.2C68.2,400.5,67.8,400.5,67.5,400.3z"/>
		</g>
	</g>
	<g>
		<path class="st25" d="M96.6,402.1c-0.2-0.3-0.7-0.4-1.1-0.4c0.6-0.1,1.3-0.6,1-1.1c-0.2-0.4-0.9-0.6-1.4-0.5
			c-0.5,0.2-0.8,0.5-0.9,0.9c0,0,0,0,0,0c0.1-0.2-0.1-0.6-0.3-0.8c-0.3-0.3-1.1-0.3-1.4,0c-0.3,0.3-0.4,0.7-0.1,1
			c0.2,0.1,0.4,0.3,0.6,0.3c-0.2,0-0.4,0-0.6,0.1c-0.4,0.1-0.8,0.4-0.8,0.8c0,0,0,0.1,0,0.1c0.1,0.4,0.6,0.6,1.1,0.5
			c0.3,0,0.7-0.2,0.9-0.4c0,0,0,0,0,0c-0.1,0.2-0.3,0.3-0.3,0.6c0,0.2,0.1,0.5,0.3,0.6c0.3,0.2,0.8,0.3,1.1,0.1
			c0.4-0.2,0.4-0.8,0.2-1.2c0.1,0.2,0.3,0.3,0.5,0.4c0.4,0.2,0.8,0.1,1.1-0.2C96.9,402.8,96.9,402.4,96.6,402.1z"/>
		<g>
			<path class="st26" d="M91.9,402.3c0.1,0.4,0.6,0.6,1.1,0.5c0.3-0.1,0.8-0.2,0.9-0.4c-0.1,0.2-0.3,0.4-0.3,0.6
				c0,0.2,0.1,0.5,0.3,0.6c0.3,0.2,0.8,0.3,1.1,0.1c0.5-0.3,0.3-1,0.1-1.4c0.1,0.2,0.3,0.4,0.6,0.5c0.4,0.2,0.8,0.1,1.1-0.2
				c0.3-0.3,0.3-0.7,0-0.9c-0.2-0.3-0.7-0.4-1.1-0.4c0.6-0.1,1.3-0.6,1-1.1c-0.2-0.4-0.9-0.6-1.4-0.5c-0.5,0.2-0.8,0.6-0.9,1
				c0.1-0.2-0.1-0.7-0.3-0.8c-0.3-0.3-1.1-0.3-1.4,0c-0.3,0.3-0.4,0.7-0.1,1c0.2,0.2,0.7,0.4,1.1,0.4c-0.1,0-0.2,0-0.3,0
				c-0.2,0-0.4,0-0.6,0c-0.4,0.1-0.8,0.4-0.8,0.8C91.9,402.2,91.9,402.2,91.9,402.3z"/>
			<path class="st27" d="M94.6,400.8c-0.5,0-1.1,0.2-1.3,0.7c-0.2,0.6,0.4,1,1.1,1.1c0.6,0.1,1.1-0.1,1.3-0.6
				c0.1-0.2,0.1-0.5-0.1-0.7C95.4,400.9,95.1,400.8,94.6,400.8"/>
			<path class="st28" d="M94.6,400.8c-0.5,0-1,0.2-1.2,0.6c-0.2,0.6,0.4,1,1,1c0.5,0.1,1-0.1,1.2-0.5c0.1-0.2,0.1-0.4-0.1-0.6
				C95.4,400.9,95,400.9,94.6,400.8"/>
			<path class="st29" d="M94.3,402c-0.5-0.3-0.3-0.8,0.1-1.1c-0.3,0.1-0.6,0.2-0.7,0.5c-0.2,0.5,0.4,0.8,0.9,0.9
				c0.3,0,0.7,0,0.9-0.2C95,402.2,94.6,402.2,94.3,402z"/>
		</g>
	</g>
	<g>
		<path class="st25" d="M148,397.1c-0.2-0.3-0.7-0.4-1.1-0.4c0.6-0.1,1.3-0.6,1-1.1c-0.2-0.4-0.9-0.6-1.4-0.5
			c-0.5,0.2-0.8,0.5-0.9,0.9c0,0,0,0,0,0c0.1-0.2-0.1-0.6-0.3-0.8c-0.3-0.3-1.1-0.3-1.4,0c-0.3,0.3-0.4,0.7-0.1,1
			c0.2,0.1,0.4,0.3,0.6,0.3c-0.2,0-0.4,0-0.6,0.1c-0.4,0.1-0.8,0.4-0.8,0.8c0,0,0,0.1,0,0.1c0.1,0.4,0.6,0.6,1.1,0.5
			c0.3,0,0.7-0.2,0.9-0.4c0,0,0,0,0,0c-0.1,0.2-0.3,0.3-0.3,0.6c0,0.2,0.1,0.5,0.3,0.6c0.3,0.2,0.8,0.3,1.1,0.1
			c0.4-0.2,0.4-0.8,0.2-1.2c0.1,0.2,0.3,0.3,0.5,0.4c0.4,0.2,0.8,0.1,1.1-0.2C148.3,397.8,148.3,397.4,148,397.1z"/>
		<g>
			<path class="st26" d="M143.3,397.2c0.1,0.4,0.6,0.6,1.1,0.5c0.3-0.1,0.8-0.2,0.9-0.4c-0.1,0.2-0.3,0.4-0.3,0.6
				c0,0.2,0.1,0.5,0.3,0.6c0.3,0.2,0.8,0.3,1.1,0.1c0.5-0.3,0.3-1,0.1-1.4c0.1,0.2,0.3,0.4,0.6,0.5c0.4,0.2,0.8,0.1,1.1-0.2
				c0.3-0.3,0.3-0.7,0-0.9c-0.2-0.3-0.7-0.4-1.1-0.4c0.6-0.1,1.3-0.6,1-1.1c-0.2-0.4-0.9-0.6-1.4-0.5c-0.5,0.2-0.8,0.6-0.9,1
				c0.1-0.2-0.1-0.7-0.3-0.8c-0.3-0.3-1.1-0.3-1.4,0c-0.3,0.3-0.4,0.7-0.1,1c0.2,0.2,0.7,0.4,1.1,0.4c-0.1,0-0.2,0-0.3,0
				c-0.2,0-0.4,0-0.6,0c-0.4,0.1-0.8,0.4-0.8,0.8C143.3,397.2,143.3,397.2,143.3,397.2z"/>
			<path class="st27" d="M146,395.7c-0.5,0-1.1,0.2-1.3,0.7c-0.2,0.6,0.4,1,1.1,1.1c0.6,0.1,1.1-0.1,1.3-0.6
				c0.1-0.2,0.1-0.5-0.1-0.7C146.8,395.9,146.5,395.8,146,395.7"/>
			<path class="st28" d="M146,395.8c-0.5,0-1,0.2-1.2,0.6c-0.2,0.6,0.4,1,1,1c0.5,0.1,1-0.1,1.2-0.5c0.1-0.2,0.1-0.4-0.1-0.6
				C146.8,395.9,146.4,395.8,146,395.8"/>
			<path class="st29" d="M145.7,397c-0.5-0.3-0.3-0.8,0.1-1.1c-0.3,0.1-0.6,0.2-0.7,0.5c-0.2,0.5,0.4,0.8,0.9,0.9
				c0.3,0,0.7,0,0.9-0.2C146.4,397.2,146,397.2,145.7,397z"/>
		</g>
	</g>
	<g>
		<path class="st25" d="M188.1,400.5c-0.2-0.3-0.7-0.4-1.1-0.4c0.6-0.1,1.3-0.6,1-1.1c-0.2-0.4-0.9-0.6-1.4-0.5
			c-0.5,0.2-0.8,0.5-0.9,0.9c0,0,0,0,0,0c0.1-0.2-0.1-0.6-0.3-0.8c-0.3-0.3-1.1-0.3-1.4,0c-0.3,0.3-0.4,0.7-0.1,1
			c0.2,0.1,0.4,0.3,0.6,0.3c-0.2,0-0.4,0-0.6,0.1c-0.4,0.1-0.8,0.4-0.8,0.8c0,0,0,0.1,0,0.1c0.1,0.4,0.6,0.6,1.1,0.5
			c0.3,0,0.7-0.2,0.9-0.4c0,0,0,0,0,0c-0.1,0.2-0.3,0.3-0.3,0.6c0,0.2,0.1,0.5,0.3,0.6c0.3,0.2,0.8,0.3,1.1,0.1
			c0.4-0.2,0.4-0.8,0.2-1.2c0.1,0.2,0.3,0.3,0.5,0.4c0.4,0.2,0.8,0.1,1.1-0.2C188.4,401.2,188.4,400.8,188.1,400.5z"/>
		<g>
			<path class="st26" d="M183.4,400.6c0.1,0.4,0.6,0.6,1.1,0.5c0.3-0.1,0.8-0.2,0.9-0.4c-0.1,0.2-0.3,0.4-0.3,0.6
				c0,0.2,0.1,0.5,0.3,0.6c0.3,0.2,0.8,0.3,1.1,0.1c0.5-0.3,0.3-1,0.1-1.4c0.1,0.2,0.3,0.4,0.6,0.5c0.4,0.2,0.8,0.1,1.1-0.2
				c0.3-0.3,0.3-0.7,0-0.9c-0.2-0.3-0.7-0.4-1.1-0.4c0.6-0.1,1.3-0.6,1-1.1c-0.2-0.4-0.9-0.6-1.4-0.5c-0.5,0.2-0.8,0.6-0.9,1
				c0.1-0.2-0.1-0.7-0.3-0.8c-0.3-0.3-1.1-0.3-1.4,0c-0.3,0.3-0.4,0.7-0.1,1c0.2,0.2,0.7,0.4,1.1,0.4c-0.1,0-0.2,0-0.3,0
				c-0.2,0-0.4,0-0.6,0c-0.4,0.1-0.8,0.4-0.8,0.8C183.4,400.5,183.4,400.6,183.4,400.6z"/>
			<path class="st27" d="M186,399.1c-0.5,0-1.1,0.2-1.3,0.7c-0.2,0.6,0.4,1,1.1,1.1c0.6,0.1,1.1-0.1,1.3-0.6
				c0.1-0.2,0.1-0.5-0.1-0.7C186.9,399.3,186.6,399.2,186,399.1"/>
			<path class="st28" d="M186,399.2c-0.5,0-1,0.2-1.2,0.6c-0.2,0.6,0.4,1,1,1c0.5,0.1,1-0.1,1.2-0.5c0.1-0.2,0.1-0.4-0.1-0.6
				C186.8,399.3,186.5,399.2,186,399.2"/>
			<path class="st29" d="M185.8,400.3c-0.5-0.3-0.3-0.8,0.1-1.1c-0.3,0.1-0.6,0.2-0.7,0.5c-0.2,0.5,0.4,0.8,0.9,0.9
				c0.3,0,0.7,0,0.9-0.2C186.5,400.6,186.1,400.5,185.8,400.3z"/>
		</g>
	</g>
	<g>
		<path class="st25" d="M222.6,395.9c-0.2-0.3-0.7-0.4-1.1-0.4c0.6-0.1,1.3-0.6,1-1.1c-0.2-0.4-0.9-0.6-1.4-0.5
			c-0.5,0.2-0.8,0.5-0.9,0.9c0,0,0,0,0,0c0.1-0.2-0.1-0.6-0.3-0.8c-0.3-0.3-1.1-0.3-1.4,0c-0.3,0.3-0.4,0.7-0.1,1
			c0.2,0.1,0.4,0.3,0.6,0.3c-0.2,0-0.4,0-0.6,0.1c-0.4,0.1-0.8,0.4-0.8,0.8c0,0,0,0.1,0,0.1c0.1,0.4,0.6,0.6,1.1,0.5
			c0.3,0,0.7-0.2,0.9-0.4c0,0,0,0,0,0c-0.1,0.2-0.3,0.3-0.3,0.6c0,0.2,0.1,0.5,0.3,0.6c0.3,0.2,0.8,0.3,1.1,0.1
			c0.4-0.2,0.4-0.8,0.2-1.2c0.1,0.2,0.3,0.3,0.5,0.4c0.4,0.2,0.8,0.1,1.1-0.2C222.9,396.6,222.9,396.2,222.6,395.9z"/>
		<g>
			<path class="st26" d="M217.9,396.1c0.1,0.4,0.6,0.6,1.1,0.5c0.3-0.1,0.8-0.2,0.9-0.4c-0.1,0.2-0.3,0.4-0.3,0.6
				c0,0.2,0.1,0.5,0.3,0.6c0.3,0.2,0.8,0.3,1.1,0.1c0.5-0.3,0.3-1,0.1-1.4c0.1,0.2,0.3,0.4,0.6,0.5c0.4,0.2,0.8,0.1,1.1-0.2
				c0.3-0.3,0.3-0.7,0-0.9c-0.2-0.3-0.7-0.4-1.1-0.4c0.6-0.1,1.3-0.6,1-1.1c-0.2-0.4-0.9-0.6-1.4-0.5c-0.5,0.2-0.8,0.6-0.9,1
				c0.1-0.2-0.1-0.7-0.3-0.8c-0.3-0.3-1.1-0.3-1.4,0c-0.3,0.3-0.4,0.7-0.1,1c0.2,0.2,0.7,0.4,1.1,0.4c-0.1,0-0.2,0-0.3,0
				c-0.2,0-0.4,0-0.6,0c-0.4,0.1-0.8,0.4-0.8,0.8C217.9,396,217.9,396,217.9,396.1z"/>
			<path class="st27" d="M220.5,394.6c-0.5,0-1.1,0.2-1.3,0.7c-0.2,0.6,0.4,1,1.1,1.1c0.6,0.1,1.1-0.1,1.3-0.6
				c0.1-0.2,0.1-0.5-0.1-0.7C221.4,394.7,221,394.6,220.5,394.6"/>
			<path class="st28" d="M220.5,394.6c-0.5,0-1,0.2-1.2,0.6c-0.2,0.6,0.4,1,1,1c0.5,0.1,1-0.1,1.2-0.5c0.1-0.2,0.1-0.4-0.1-0.6
				C221.3,394.7,221,394.6,220.5,394.6"/>
			<path class="st29" d="M220.3,395.8c-0.5-0.3-0.3-0.8,0.1-1.1c-0.3,0.1-0.6,0.2-0.7,0.5c-0.2,0.5,0.4,0.8,0.9,0.9
				c0.3,0,0.7,0,0.9-0.2C221,396,220.6,396,220.3,395.8z"/>
		</g>
	</g>
	<g>
		<path class="st25" d="M274.5,399.6c-0.2-0.3-0.7-0.4-1.1-0.4c0.6-0.1,1.3-0.6,1-1.1c-0.2-0.4-0.9-0.6-1.4-0.5
			c-0.5,0.2-0.8,0.5-0.9,0.9c0,0,0,0,0,0c0.1-0.2-0.1-0.6-0.3-0.8c-0.3-0.3-1.1-0.3-1.4,0c-0.3,0.3-0.4,0.7-0.1,1
			c0.2,0.1,0.4,0.3,0.6,0.3c-0.2,0-0.4,0-0.6,0.1c-0.4,0.1-0.8,0.4-0.8,0.8c0,0,0,0.1,0,0.1c0.1,0.4,0.6,0.6,1.1,0.5
			c0.3,0,0.7-0.2,0.9-0.4c0,0,0,0,0,0c-0.1,0.2-0.3,0.3-0.3,0.6c0,0.2,0.1,0.5,0.3,0.6c0.3,0.2,0.8,0.3,1.1,0.1
			c0.4-0.2,0.4-0.8,0.2-1.2c0.1,0.2,0.3,0.3,0.5,0.4c0.4,0.2,0.8,0.1,1.1-0.2C274.8,400.3,274.7,399.9,274.5,399.6z"/>
		<g>
			<path class="st26" d="M269.8,399.7c0.1,0.4,0.6,0.6,1.1,0.5c0.3-0.1,0.8-0.2,0.9-0.4c-0.1,0.2-0.3,0.4-0.3,0.6
				c0,0.2,0.1,0.5,0.3,0.6c0.3,0.2,0.8,0.3,1.1,0.1c0.5-0.3,0.3-1,0.1-1.4c0.1,0.2,0.3,0.4,0.6,0.5c0.4,0.2,0.8,0.1,1.1-0.2
				c0.3-0.3,0.3-0.7,0-0.9c-0.2-0.3-0.7-0.4-1.1-0.4c0.6-0.1,1.3-0.6,1-1.1c-0.2-0.4-0.9-0.6-1.4-0.5c-0.5,0.2-0.8,0.6-0.9,1
				c0.1-0.2-0.1-0.7-0.3-0.8c-0.3-0.3-1.1-0.3-1.4,0c-0.3,0.3-0.4,0.7-0.1,1c0.2,0.2,0.7,0.4,1.1,0.4c-0.1,0-0.2,0-0.3,0
				c-0.2,0-0.4,0-0.6,0c-0.4,0.1-0.8,0.4-0.8,0.8C269.7,399.6,269.8,399.7,269.8,399.7z"/>
			<path class="st27" d="M272.4,398.2c-0.5,0-1.1,0.2-1.3,0.7c-0.2,0.6,0.4,1,1.1,1.1c0.6,0.1,1.1-0.1,1.3-0.6
				c0.1-0.2,0.1-0.5-0.1-0.7C273.3,398.4,272.9,398.3,272.4,398.2"/>
			<path class="st28" d="M272.4,398.2c-0.5,0-1,0.2-1.2,0.6c-0.2,0.6,0.4,1,1,1c0.5,0.1,1-0.1,1.2-0.5c0.1-0.2,0.1-0.4-0.1-0.6
				C273.2,398.4,272.9,398.3,272.4,398.2"/>
			<path class="st29" d="M272.1,399.4c-0.5-0.3-0.3-0.8,0.1-1.1c-0.3,0.1-0.6,0.2-0.7,0.5c-0.2,0.5,0.4,0.8,0.9,0.9
				c0.3,0,0.7,0,0.9-0.2C272.9,399.6,272.4,399.6,272.1,399.4z"/>
		</g>
	</g>
	<g>
		<path class="st25" d="M296.5,400.1c-0.2-0.3-0.7-0.4-1.1-0.4c0.6-0.1,1.3-0.6,1-1.1c-0.2-0.4-0.9-0.6-1.4-0.5
			c-0.5,0.2-0.8,0.5-0.9,0.9c0,0,0,0,0,0c0.1-0.2-0.1-0.6-0.3-0.8c-0.3-0.3-1.1-0.3-1.4,0c-0.3,0.3-0.4,0.7-0.1,1
			c0.2,0.1,0.4,0.3,0.6,0.3c-0.2,0-0.4,0-0.6,0.1c-0.4,0.1-0.8,0.4-0.8,0.8c0,0,0,0.1,0,0.1c0.1,0.4,0.6,0.6,1.1,0.5
			c0.3,0,0.7-0.2,0.9-0.4c0,0,0,0,0,0c-0.1,0.2-0.3,0.3-0.3,0.6c0,0.2,0.1,0.5,0.3,0.6c0.3,0.2,0.8,0.3,1.1,0.1
			c0.4-0.2,0.4-0.8,0.2-1.2c0.1,0.2,0.3,0.3,0.5,0.4c0.4,0.2,0.8,0.1,1.1-0.2C296.8,400.8,296.8,400.4,296.5,400.1z"/>
		<g>
			<path class="st26" d="M291.8,400.2c0.1,0.4,0.6,0.6,1.1,0.5c0.3-0.1,0.8-0.2,0.9-0.4c-0.1,0.2-0.3,0.4-0.3,0.6
				c0,0.2,0.1,0.5,0.3,0.6c0.3,0.2,0.8,0.3,1.1,0.1c0.5-0.3,0.3-1,0.1-1.4c0.1,0.2,0.3,0.4,0.6,0.5c0.4,0.2,0.8,0.1,1.1-0.2
				c0.3-0.3,0.3-0.7,0-0.9c-0.2-0.3-0.7-0.4-1.1-0.4c0.6-0.1,1.3-0.6,1-1.1c-0.2-0.4-0.9-0.6-1.4-0.5c-0.5,0.2-0.8,0.6-0.9,1
				c0.1-0.2-0.1-0.7-0.3-0.8c-0.3-0.3-1.1-0.3-1.4,0c-0.3,0.3-0.4,0.7-0.1,1c0.2,0.2,0.7,0.4,1.1,0.4c-0.1,0-0.2,0-0.3,0
				c-0.2,0-0.4,0-0.6,0c-0.4,0.1-0.8,0.4-0.8,0.8C291.8,400.1,291.8,400.2,291.8,400.2z"/>
			<path class="st27" d="M294.5,398.7c-0.5,0-1.1,0.2-1.3,0.7c-0.2,0.6,0.4,1,1.1,1.1c0.6,0.1,1.1-0.1,1.3-0.6
				c0.1-0.2,0.1-0.5-0.1-0.7C295.3,398.9,295,398.8,294.5,398.7"/>
			<path class="st28" d="M294.5,398.7c-0.5,0-1,0.2-1.2,0.6c-0.2,0.6,0.4,1,1,1c0.5,0.1,1-0.1,1.2-0.5c0.1-0.2,0.1-0.4-0.1-0.6
				C295.3,398.9,294.9,398.8,294.5,398.7"/>
			<path class="st29" d="M294.2,399.9c-0.5-0.3-0.3-0.8,0.1-1.1c-0.3,0.1-0.6,0.2-0.7,0.5c-0.2,0.5,0.4,0.8,0.9,0.9
				c0.3,0,0.7,0,0.9-0.2C294.9,400.1,294.5,400.1,294.2,399.9z"/>
		</g>
	</g>
	<g>
		<path class="st25" d="M249.5,395.1c-0.2-0.3-0.7-0.4-1.1-0.4c0.6-0.1,1.3-0.6,1-1.1c-0.2-0.4-0.9-0.6-1.4-0.5
			c-0.5,0.2-0.8,0.5-0.9,0.9c0,0,0,0,0,0c0.1-0.2-0.1-0.6-0.3-0.8c-0.3-0.3-1.1-0.3-1.4,0c-0.3,0.3-0.4,0.7-0.1,1
			c0.2,0.1,0.4,0.3,0.6,0.3c-0.2,0-0.4,0-0.6,0.1c-0.4,0.1-0.8,0.4-0.8,0.8c0,0,0,0.1,0,0.1c0.1,0.4,0.6,0.6,1.1,0.5
			c0.3,0,0.7-0.2,0.9-0.4c0,0,0,0,0,0c-0.1,0.2-0.3,0.3-0.3,0.6c0,0.2,0.1,0.5,0.3,0.6c0.3,0.2,0.8,0.3,1.1,0.1
			c0.4-0.2,0.4-0.8,0.2-1.2c0.1,0.2,0.3,0.3,0.5,0.4c0.4,0.2,0.8,0.1,1.1-0.2C249.8,395.7,249.7,395.3,249.5,395.1z"/>
		<g>
			<path class="st26" d="M244.8,395.2c0.1,0.4,0.6,0.6,1.1,0.5c0.3-0.1,0.8-0.2,0.9-0.4c-0.1,0.2-0.3,0.4-0.3,0.6
				c0,0.2,0.1,0.5,0.3,0.6c0.3,0.2,0.8,0.3,1.1,0.1c0.5-0.3,0.3-1,0.1-1.4c0.1,0.2,0.3,0.4,0.6,0.5c0.4,0.2,0.8,0.1,1.1-0.2
				c0.3-0.3,0.3-0.7,0-0.9c-0.2-0.3-0.7-0.4-1.1-0.4c0.6-0.1,1.3-0.6,1-1.1c-0.2-0.4-0.9-0.6-1.4-0.5c-0.5,0.2-0.8,0.6-0.9,1
				c0.1-0.2-0.1-0.7-0.3-0.8c-0.3-0.3-1.1-0.3-1.4,0c-0.3,0.3-0.4,0.7-0.1,1c0.2,0.2,0.7,0.4,1.1,0.4c-0.1,0-0.2,0-0.3,0
				c-0.2,0-0.4,0-0.6,0c-0.4,0.1-0.8,0.4-0.8,0.8C244.7,395.1,244.7,395.1,244.8,395.2z"/>
			<path class="st27" d="M247.4,393.7c-0.5,0-1.1,0.2-1.3,0.7c-0.2,0.6,0.4,1,1.1,1.1c0.6,0.1,1.1-0.1,1.3-0.6
				c0.1-0.2,0.1-0.5-0.1-0.7C248.3,393.9,247.9,393.7,247.4,393.7"/>
			<path class="st28" d="M247.4,393.7c-0.5,0-1,0.2-1.2,0.6c-0.2,0.6,0.4,1,1,1c0.5,0.1,1-0.1,1.2-0.5c0.1-0.2,0.1-0.4-0.1-0.6
				C248.2,393.9,247.9,393.8,247.4,393.7"/>
			<path class="st29" d="M247.1,394.9c-0.5-0.3-0.3-0.8,0.1-1.1c-0.3,0.1-0.6,0.2-0.7,0.5c-0.2,0.5,0.4,0.8,0.9,0.9
				c0.3,0,0.7,0,0.9-0.2C247.9,395.1,247.4,395.1,247.1,394.9z"/>
		</g>
	</g>
	<g>
		<path class="st25" d="M209.3,401c-0.2-0.3-0.7-0.4-1.1-0.4c0.6-0.1,1.3-0.6,1-1.1c-0.2-0.4-0.9-0.6-1.4-0.5
			c-0.5,0.2-0.8,0.5-0.9,0.9c0,0,0,0,0,0c0.1-0.2-0.1-0.6-0.3-0.8c-0.3-0.3-1.1-0.3-1.4,0c-0.3,0.3-0.4,0.7-0.1,1
			c0.2,0.1,0.4,0.3,0.6,0.3c-0.2,0-0.4,0-0.6,0.1c-0.4,0.1-0.8,0.4-0.8,0.8c0,0,0,0.1,0,0.1c0.1,0.4,0.6,0.6,1.1,0.5
			c0.3,0,0.7-0.2,0.9-0.4c0,0,0,0,0,0c-0.1,0.2-0.3,0.3-0.3,0.6c0,0.2,0.1,0.5,0.3,0.6c0.3,0.2,0.8,0.3,1.1,0.1
			c0.4-0.2,0.4-0.8,0.2-1.2c0.1,0.2,0.3,0.3,0.5,0.4c0.4,0.2,0.8,0.1,1.1-0.2C209.5,401.7,209.5,401.3,209.3,401z"/>
		<g>
			<path class="st26" d="M204.6,401.1c0.1,0.4,0.6,0.6,1.1,0.5c0.3-0.1,0.8-0.2,0.9-0.4c-0.1,0.2-0.3,0.4-0.3,0.6
				c0,0.2,0.1,0.5,0.3,0.6c0.3,0.2,0.8,0.3,1.1,0.1c0.5-0.3,0.3-1,0.1-1.4c0.1,0.2,0.3,0.4,0.6,0.5c0.4,0.2,0.8,0.1,1.1-0.2
				c0.3-0.3,0.3-0.7,0-0.9c-0.2-0.3-0.7-0.4-1.1-0.4c0.6-0.1,1.3-0.6,1-1.1c-0.2-0.4-0.9-0.6-1.4-0.5c-0.5,0.2-0.8,0.6-0.9,1
				c0.1-0.2-0.1-0.7-0.3-0.8c-0.3-0.3-1.1-0.3-1.4,0c-0.3,0.3-0.4,0.7-0.1,1c0.2,0.2,0.7,0.4,1.1,0.4c-0.1,0-0.2,0-0.3,0
				c-0.2,0-0.4,0-0.6,0c-0.4,0.1-0.8,0.4-0.8,0.8C204.5,401,204.5,401.1,204.6,401.1z"/>
			<path class="st27" d="M207.2,399.6c-0.5,0-1.1,0.2-1.3,0.7c-0.2,0.6,0.4,1,1.1,1.1c0.6,0.1,1.1-0.1,1.3-0.6
				c0.1-0.2,0.1-0.5-0.1-0.7C208.1,399.8,207.7,399.7,207.2,399.6"/>
			<path class="st28" d="M207.2,399.7c-0.5,0-1,0.2-1.2,0.6c-0.2,0.6,0.4,1,1,1c0.5,0.1,1-0.1,1.2-0.5c0.1-0.2,0.1-0.4-0.1-0.6
				C208,399.8,207.7,399.7,207.2,399.7"/>
			<path class="st29" d="M206.9,400.8c-0.5-0.3-0.3-0.8,0.1-1.1c-0.3,0.1-0.6,0.2-0.7,0.5c-0.2,0.5,0.4,0.8,0.9,0.9
				c0.3,0,0.7,0,0.9-0.2C207.6,401.1,207.2,401,206.9,400.8z"/>
		</g>
	</g>
	<g>
		<path class="st25" d="M116.1,396.9c-0.2-0.3-0.7-0.4-1.1-0.4c0.6-0.1,1.3-0.6,1-1.1c-0.2-0.4-0.9-0.6-1.4-0.5
			c-0.5,0.2-0.8,0.5-0.9,0.9c0,0,0,0,0,0c0.1-0.2-0.1-0.6-0.3-0.8c-0.3-0.3-1.1-0.3-1.4,0c-0.3,0.3-0.4,0.7-0.1,1
			c0.2,0.1,0.4,0.3,0.6,0.3c-0.2,0-0.4,0-0.6,0.1c-0.4,0.1-0.8,0.4-0.8,0.8c0,0,0,0.1,0,0.1c0.1,0.4,0.6,0.6,1.1,0.5
			c0.3,0,0.7-0.2,0.9-0.4c0,0,0,0,0,0c-0.1,0.2-0.3,0.3-0.3,0.6c0,0.2,0.1,0.5,0.3,0.6c0.3,0.2,0.8,0.3,1.1,0.1
			c0.4-0.2,0.4-0.8,0.2-1.2c0.1,0.2,0.3,0.3,0.5,0.4c0.4,0.2,0.8,0.1,1.1-0.2C116.4,397.5,116.4,397.1,116.1,396.9z"/>
		<g>
			<path class="st26" d="M111.4,397c0.1,0.4,0.6,0.6,1.1,0.5c0.3-0.1,0.8-0.2,0.9-0.4c-0.1,0.2-0.3,0.4-0.3,0.6
				c0,0.2,0.1,0.5,0.3,0.6c0.3,0.2,0.8,0.3,1.1,0.1c0.5-0.3,0.3-1,0.1-1.4c0.1,0.2,0.3,0.4,0.6,0.5c0.4,0.2,0.8,0.1,1.1-0.2
				c0.3-0.3,0.3-0.7,0-0.9c-0.2-0.3-0.7-0.4-1.1-0.4c0.6-0.1,1.3-0.6,1-1.1c-0.2-0.4-0.9-0.6-1.4-0.5c-0.5,0.2-0.8,0.6-0.9,1
				c0.1-0.2-0.1-0.7-0.3-0.8c-0.3-0.3-1.1-0.3-1.4,0c-0.3,0.3-0.4,0.7-0.1,1c0.2,0.2,0.7,0.4,1.1,0.4c-0.1,0-0.2,0-0.3,0
				c-0.2,0-0.4,0-0.6,0c-0.4,0.1-0.8,0.4-0.8,0.8C111.4,396.9,111.4,396.9,111.4,397z"/>
			<path class="st27" d="M114,395.5c-0.5,0-1.1,0.2-1.3,0.7c-0.2,0.6,0.4,1,1.1,1.1c0.6,0.1,1.1-0.1,1.3-0.6
				c0.1-0.2,0.1-0.5-0.1-0.7C114.9,395.7,114.5,395.5,114,395.5"/>
			<path class="st28" d="M114,395.5c-0.5,0-1,0.2-1.2,0.6c-0.2,0.6,0.4,1,1,1c0.5,0.1,1-0.1,1.2-0.5c0.1-0.2,0.1-0.4-0.1-0.6
				C114.8,395.7,114.5,395.6,114,395.5"/>
			<path class="st29" d="M113.8,396.7c-0.5-0.3-0.3-0.8,0.1-1.1c-0.3,0.1-0.6,0.2-0.7,0.5c-0.2,0.5,0.4,0.8,0.9,0.9
				c0.3,0,0.7,0,0.9-0.2C114.5,396.9,114.1,396.9,113.8,396.7z"/>
		</g>
	</g>
	<g>
		<path class="st25" d="M136.5,400.3c-0.2-0.3-0.7-0.4-1.1-0.4c0.6-0.1,1.3-0.6,1-1.1c-0.2-0.4-0.9-0.6-1.4-0.5
			c-0.5,0.2-0.8,0.5-0.9,0.9c0,0,0,0,0,0c0.1-0.2-0.1-0.6-0.3-0.8c-0.3-0.3-1.1-0.3-1.4,0c-0.3,0.3-0.4,0.7-0.1,1
			c0.2,0.1,0.4,0.3,0.6,0.3c-0.2,0-0.4,0-0.6,0.1c-0.4,0.1-0.8,0.4-0.8,0.8c0,0,0,0.1,0,0.1c0.1,0.4,0.6,0.6,1.1,0.5
			c0.3,0,0.7-0.2,0.9-0.4c0,0,0,0,0,0c-0.1,0.2-0.3,0.3-0.3,0.6c0,0.2,0.1,0.5,0.3,0.6c0.3,0.2,0.8,0.3,1.1,0.1
			c0.4-0.2,0.4-0.8,0.2-1.2c0.1,0.2,0.3,0.3,0.5,0.4c0.4,0.2,0.8,0.1,1.1-0.2C136.8,401,136.7,400.6,136.5,400.3z"/>
		<g>
			<path class="st26" d="M131.8,400.4c0.1,0.4,0.6,0.6,1.1,0.5c0.3-0.1,0.8-0.2,0.9-0.4c-0.1,0.2-0.3,0.4-0.3,0.6
				c0,0.2,0.1,0.5,0.3,0.6c0.3,0.2,0.8,0.3,1.1,0.1c0.5-0.3,0.3-1,0.1-1.4c0.1,0.2,0.3,0.4,0.6,0.5c0.4,0.2,0.8,0.1,1.1-0.2
				c0.3-0.3,0.3-0.7,0-0.9c-0.2-0.3-0.7-0.4-1.1-0.4c0.6-0.1,1.3-0.6,1-1.1c-0.2-0.4-0.9-0.6-1.4-0.5c-0.5,0.2-0.8,0.6-0.9,1
				c0.1-0.2-0.1-0.7-0.3-0.8c-0.3-0.3-1.1-0.3-1.4,0c-0.3,0.3-0.4,0.7-0.1,1c0.2,0.2,0.7,0.4,1.1,0.4c-0.1,0-0.2,0-0.3,0
				c-0.2,0-0.4,0-0.6,0c-0.4,0.1-0.8,0.4-0.8,0.8C131.8,400.3,131.8,400.4,131.8,400.4z"/>
			<path class="st27" d="M134.4,398.9c-0.5,0-1.1,0.2-1.3,0.7c-0.2,0.6,0.4,1,1.1,1.1c0.6,0.1,1.1-0.1,1.3-0.6
				c0.1-0.2,0.1-0.5-0.1-0.7C135.3,399.1,134.9,399,134.4,398.9"/>
			<path class="st28" d="M134.4,398.9c-0.5,0-1,0.2-1.2,0.6c-0.2,0.6,0.4,1,1,1c0.5,0.1,1-0.1,1.2-0.5c0.1-0.2,0.1-0.4-0.1-0.6
				C135.2,399.1,134.9,399,134.4,398.9"/>
			<path class="st29" d="M134.2,400.1c-0.5-0.3-0.3-0.8,0.1-1.1c-0.3,0.1-0.6,0.2-0.7,0.5c-0.2,0.5,0.4,0.8,0.9,0.9
				c0.3,0,0.7,0,0.9-0.2C134.9,400.3,134.5,400.3,134.2,400.1z"/>
		</g>
	</g>
</g>
</svg>
