<?xml version="1.0" encoding="utf-8"?>
<!-- Generator: Adobe Illustrator 21.1.0, SVG Export Plug-In . SVG Version: 6.00 Build 0)  -->
<svg version="1.1" xmlns="http://www.w3.org/2000/svg" xmlns:xlink="http://www.w3.org/1999/xlink" x="0px" y="0px"
	 viewBox="0 0 362.8 204.1" style="enable-background:new 0 0 362.8 204.1;" xml:space="preserve">
<style type="text/css">
	.st0{fill:#49BEED;}
	.st1{fill:#AFCFA4;}
	.st2{fill:#C8D7A4;}
	.st3{fill:url(#SVGID_1_);}
	.st4{fill:url(#SVGID_2_);}
	.st5{fill:#74BE92;}
	.st6{fill:#1AAB6E;}
	.st7{fill:#1A8463;}
	.st8{fill:#6CC06D;}
	.st9{fill:#D9E362;}
	.st10{fill:#B9D766;}
	.st11{fill:#83C66C;}
	.st12{fill:#469281;}
	.st13{fill:#077563;}
	.st14{fill:#005F50;}
	.st15{fill:#44502A;}
	.st16{fill:#48893E;}
	.st17{fill:#367031;}
	.st18{fill:#144616;}
	.st19{fill:#285D26;}
	.st20{fill:#245823;}
	.st21{fill:#88C540;}
	.st22{fill:#FFFFFF;}
	.st23{fill:#B9E5FB;}
	.st24{fill:#FFD940;}
	.st25{fill:#FFF791;}
</style>
<g id="Layer_7">
</g>
<g id="Layer_3">
	<rect class="st0" width="362.8" height="157"/>
	<path class="st1" d="M167,121c21,16,47.3,22.1,71.3,8.1c14.7-8.6,28.4-17.5,42.2-28.1c-0.4,0.2-1.3,0.5-1.7,0.7
		c-14.7,7-30.7,14.2-46.4,18.5c-13.7,3.8-29.1,3.2-42-3.1c-32.4-15.9-52.9-52-89.1-61.7c-12.1-3.3-24.5-2.7-36.5,0
		c12,0.5,23.9,3,35.1,7.7C128,74,143,102,167,121z"/>
	<path class="st2" d="M280.3,101.1c-13.6,9.7-27.3,19.3-42.1,27.9c-24,14-50,8-71.1-8c-24-19-39-47-67.1-58
		c-11.2-4.7-23.1-7.2-35.1-7.7c-11.9,2.6-23.4,7.2-34.2,12.1C21.6,71.5,12.6,76,3.7,80.7c-1,0.5-2.2,1-3.4,1.6V190
		c0.1,0,0.2,0,0.3,0c27.4,2.5,55.7,0.5,83.2-0.4c44.3-1.4,88.6-2.9,132.9-2.9c24,0,47.8,0.1,71.7,1.7c16.1,1.1,32.3,2.3,48.4,3.1
		c7.1,0.4,18.4,1.7,23.8-4.1c0.9-1,1.7-2.2,2.3-3.4V79.6c-1.5,0-2.9,0.1-3.5,0.1C331.9,79.7,304.7,89.5,280.3,101.1z"/>
	<linearGradient id="SVGID_1_" gradientUnits="userSpaceOnUse" x1="22.4395" y1="31.8333" x2="104.099" y2="31.8333">
		<stop  offset="0" style="stop-color:#FFFFFF"/>
		<stop  offset="1" style="stop-color:#B1E3FA"/>
	</linearGradient>
	<path class="st3" d="M62.3,21.3c4-2.7,10.1-4.6,14.4-2.1c2,1.1,3.7,3,4.4,5.2c0.6,1.9,0,3.7-0.1,5.7c-0.1,0.6-0.7,2.4-0.4,3
		c0.5,1.3,3.9,1.1,4.9,1.1c3.4,0,6.7-0.1,10.1,0.6c3,0.6,8.3,1.6,8.5,5.5c0.4,5.3-9.7,4.5-12.9,4.8c-9.6,0.8-19.2,0.7-28.8,0.7
		c-10,0-20.1-0.2-30-1c-2.3-0.2-7.8,0.1-9.4-2.2c-1.9-2.6,1.3-6.5,3.3-8c3.8-2.9,7.4-2,11.4-0.2c0.2-3.9,0.6-8,4.2-10.3
		c2.6-1.7,6.8-2.7,9.4-0.6c1.1,0.9,3.6,4.7,5.4,3.9c0.4-0.2,1-1.7,1.2-2c1-1.3,2.2-2.5,3.6-3.5C61.8,21.6,62.1,21.5,62.3,21.3z"/>
	<linearGradient id="SVGID_2_" gradientUnits="userSpaceOnUse" x1="222.0372" y1="35.261" x2="359.1987" y2="35.261">
		<stop  offset="0" style="stop-color:#FFFFFF"/>
		<stop  offset="1" style="stop-color:#B1E3FA"/>
	</linearGradient>
	<path class="st4" d="M300,58.8c11.1,0.2,22.3,0.7,33.4,1c1.8,0,3.6,0,5.3,0.1c1.6,0.1,3.1,0.5,4.7,0.6c3.5,0.2,7.1-0.2,10.6-0.6
		c2.8-0.4,5.2-2,5.3-5c0-3.3-3.3-5.6-6.2-6.4c-4.3-1.2-8.9-0.2-13,1.4c-2.1,0.8-4.5,2-3.1-1.1c1-2.1,2.1-5.2,1-7.4
		c-1.3-2.4-3.6-3-6.1-3.1c-1.1,0-2.1-0.2-3.2,0.1c-0.7,0.2-3.7,1.2-4,1.9c2-4.4,5-9.8,4-14.9c-0.7-3.7-3.8-7.1-7.3-8.3
		c-3.9-1.3-9-0.7-12.6,1.3c-0.8,0.4-6.3,4.2-5.9,5.1c-0.9-2-1.1-4.2-2.2-6.1c-0.8-1.5-2.3-3.1-3.6-4.2c-4.4-3.8-11.5-3.6-16.8-2.3
		c-5.3,1.3-11.9,5.3-12.8,11.2c-0.3,1.8,0.1,3.7,0,5.5c-2-0.7-3.5-1.7-5.7-1.8c-3.6-0.1-6.5,1-8.9,3.7c-2.4,2.7-3.4,6.1-2.4,9.7
		c0.7,2.5,2.6,4,3.9,6c-2-0.2-4.2-0.9-6.1-1.4c-4.1-1-8.2-1.9-12.4-1.6c-3.6,0.3-7.5,1.4-10.4,3.6c-2.1,1.6-4.4,4-2.5,6.6
		c1.6,2.1,4.5,3.4,7,3.8c8.7,1.4,17.5,1.1,26.2,1.6c9.2,0.5,18.5,0.7,27.7,0.9c4.1,0.1,8.1,0.1,12.2,0.1
		C297.2,58.7,298.6,58.7,300,58.8z"/>
</g>
<g id="Layer_6">
</g>
<g id="Layer_4">
	<path class="st5" d="M197.7,151.1c-0.3-0.8-0.5-1.3-0.7-1.1c-0.8,0.7-1.2,1.7-1.2,2.7c1.2-1.6,1.1-8.8-0.8-10
		c-0.7,1.1-1.3,2.3-1.2,3.7c0-3,1.6-17.6-2.8-17.9c-4.7-0.3-3.3,13.4-4.2,15.7c-2.9-1.7-2.6-6.3-4.1-9c-1.1-2.1-2.8-7.5-5.3-8.2
		c-5-1.3-4.1,7.8-6.5,9.6c-4.2,3.2-3-7.3-5-8.9c-2.9-2.3-4.2,5.5-5.6,7c-1.3-3.3,2-14.9-2-16.8c-3.2-1.5-4.9,5.5-5,7.6
		c-0.5-3.4-0.6-16-6-14.7c-5.7,1.4-4.8,14.8-5.1,19c-1-1.6-2.7-7.8-4.6-7.9c-2.1-0.1-3.5,5-4.1,6.4c0.8-1.8,0.5-7.1,0.4-9.2
		c-0.1-2.1-1.1-6.4-3.9-6.6c-4.3-0.3-4.8,9.4-6,12.2c-0.4-5.2,2.5-16.8-2.8-19.7c-6.2-3.5-8.9,11.3-9.3,15.2
		c-0.9-1.3-0.3-3.5-0.4-5.2c-0.1-1.9-0.6-8.2-2.5-9.3c-3.8-2.2-5.5,9.3-6.6,11.5c-1.4-2.5,0.8-16.2-4.1-14.8
		c-3.1,0.9-4.1,5.4-4.6,8.1c-0.3,1.7-0.4,3.4-0.4,5.2c0,0.9-1.2,5.6-1.1,5.7c-2-3.1-1-15.1-7-13.8c-4.2,0.9-5,11.5-8.3,9.3
		c-3.4-2.2-1.3-12.4-7.5-9.3c-5,2.6-4.2,13-8.5,14.6c-0.1-1.4-0.2-6.9-2-7c-1.6-0.1-2.9,3.4-4,4c-0.5-2.4-0.3-11.2-3.1-12.3
		c-2.2-0.8-3.9,4.2-4.6,5.6c-0.8-4.9-5.7-17.7-10.6-18.6c-8-1.5-11.9,13.7-13.2,19c-1.7-1.2-2.5-3.8-4.2-4.9
		c-1.1,1.5-1.5,3.4-1.5,5.2c-1.7-3.4-5.4-11.9-9.7-11.3c-4.6,0.7-6.9,5.7-7.9,12.3v30.2c0.2,0,0.4,0.1,0.6,0.1
		c0,0.7,0.5,1.1,0.4,1.9c6.2,0.9,13.1-1.3,19.3-1.6c13.6-0.7,27.5,1.3,41.1,1.9c14.7,0.7,29.5-0.2,44.3,1.3c6.7,0.7,13.3,0.8,20.1,1
		c5.4,0.2,9.3,2.4,14.2,4.5c9.1,3.8,18.8,2.7,28.2,4.8c8.1,1.8,18,3.9,26.4,2.8c2.8-0.4,4-1.8,4.3-4.7
		C198.8,156,198.3,152.8,197.7,151.1z"/>
	<path class="st5" d="M362.7,113.5c-0.2-0.7-0.4-1.3-0.7-1.8c-2.9-4.4-4,5.2-5.7,7.3c-2.4-1.7,0.6-10.6-3.6-10.6
		c-2.7,0-5.2,10.2-6.4,12.2c-1.3-2.7-0.5-12-4.9-9.5c-4.7,2.7-1.4,12.2-4,15.5c-1.3-3.3-1.6-10.4-6-7.9c-3.9,2.1-3.8,9.2-7.4,10.9
		c-0.1-2.6,0.6-15-2-16c-2.8-1.1-4.5,4.8-5.6,6.4c0-4-2.3-14.1-7.3-14.6c-6.7-0.7-6.7,12.8-9.4,16.2c-1.4-1.2-2.2-6.5-4.4-6.6
		c-2.9-0.2-3.9,7.9-4.3,9.8c-0.5,2.5-2.3,12.1-5.5,6.3c-2.3-4.1,0.1-10.5-4.5-13.8c-4.4-3.2-4.9,6.1-5.3,9
		c-0.3,2.6-0.4,13.7-5.4,11.7c-4.6-1.8-1.7-10.7-5.3-12.7c-1,1.6-1.5,4.7-3.3,5.3c-0.8-3.8-3.5-10.1-6.4-4.3
		c-2.6,5.2-1.4,12.3-2.4,18c-0.7,4.2-1.4,7.7-1,11.8c0.2,2.6,0,4.9,2.7,5.7c2.7,0.8,8.2-0.3,11.2-0.2c9.9,0.3,19.7,1.5,29.6,2
		c14.7,0.7,29.5-0.2,44.3,1.3c3.6,0.4,7.4,1.3,10.9,1.4c0.9,0,9.2-1.2,12-1.8V113.5z"/>
	<path class="st6" d="M190.9,155c-0.3-1.8-1.3-3-3.5-2c0.8-1,2.4-2.7,2.1-4c-0.6-2.5-6-2.1-7.7-1.4c0.6-2.6,3.2-5.2,0.3-7.6
		c-1.5-1.3-3-1-4.1,0.1c0.3-3.9-13.3-7.5-10.4,1.2c-1.4,0-1.4,2.3-1,3.7c-2.4-1.3-5.6-3.3-7.4-0.5c0.3-0.8,0.3-1.6-0.2-2.4
		c-0.4,0.3-0.8,0.5-1.2,0.8c0.7-2.3,2.7-3.4,2-6.3c-0.5-2.3-2.8-4.9-5.3-3.5c1.5-4.3-6.5-6.3-9.5-5.5c-4.6,1.2-7.2,5.9-7,10.4
		c-0.9-1.1-2-1.3-2.8,0c0.4-2.4-3.5-6.1-4.5-2.1c0.2-3.3-1.5-7.3-4.9-8.2c-2.4-0.6-5.9,0.4-7.4,2.6c3.1-7.3-9.1-8.5-8.3-3.5
		c-1-2.6-4.4,4.5-5,5.1c-0.2-1.7-0.5-3.7,1.2-4.6c-0.4-1-0.3-1.3-0.3-2.3c-1-1.4-3.2-3-4.2-1.5c2.3-3.7-11.4-5.4-9.2,1.5
		c-3.5-2.9-6.2,1.4-5.8,3.8c-1.7-1.1-4.1-1.5-5.9-0.8c0.7-1.5,0-3.2-1.3-2.4c1.2-1.8,0.8-4.5-0.9-6c-2.3-2-4.9-0.4-6.9,1
		c0.3-2.6-2.1-4.6-4.6-4.7c-1.1-0.1-2.3,0.2-3,1c-0.4,0.4-1.2,3.9-1.2,3.9c-1.2,0.1-1.8-0.3-2.8,0.7c-0.8,0.8-2.2,3.3-1.2,4.3
		c-1.3-2.8-6.7,1.9-3.2,4.1c-1-0.1-5.1-0.7-4.2,1.6c0.9-0.7,0.1-2.7-0.4-3.4c-0.9-1.2-1.8-1.1-3.1-0.6c1-1.6,1.6-3.1,0.4-4.9
		c-1.5-2.3-5.3-2.3-7-0.4c0.3-2.5-0.7-5.1-2.3-7c-4.1-4.9-7.2-0.9-11.4,0.3c-2.4,0.7-4.7-1-7.3,1.4c-1.6,1.6-2.2,4.5-1.5,6.6
		c-1.9-1.6-4.4,0.3-5.6,2.2c0.3-3.1-4-5.9-6.7-3c0.7-1.6-0.7-2-2.2-2.2c-1.7-0.3-3.4,0.6-4.9,1.8v40.8c0.2,0,0.4,0.1,0.6,0.1
		c0,0.7,0.5,1.1,0.4,1.9c6.2,0.9,13.1-1.3,19.3-1.6c13.6-0.7,27.5,1.3,41.1,1.9c14.7,0.7,29.5-0.2,44.3,1.3
		c15,1.5,30.2,1.1,45.3,0.2c7.7-0.4,15.4-1,23.1-1.4c5.6-0.3,14.3,0.8,16.8-6C190.9,158.6,191.2,156.6,190.9,155z"/>
	<path class="st6" d="M362.8,131.4c-2.9-0.3-6.7,3.2-7.7,5.2c2.8-7.1-5.7-7.6-7.5-3c0.2-0.6-3.8-2.1-4.3-2.3c-1.6-0.5-3-0.4-4.6-0.2
		c-2.5,0.3-6.1,1.2-5.9,4.4c-1.5,0-2.2,1.4-2.2,2.8c-0.2-1.2-0.8-3.1-1.7-3.9c-1-0.9-1.7-0.4-2.8-0.1c0.2-0.8,0.7-1.6,0.9-2.5
		c0.1-1.2-0.5-2.6-1.2-3.6c-1.5-2-3.8-1.9-5.1,0.2c-0.5-2.4-3.7-1.8-5.1-0.8c-1.8,1.3-2.9,3.7-2.7,6c-0.6-2.7-2.3-2-4.3-1.7
		c-1.2,0.1-2.2,0.1-3.3,0.6c-0.3,0.1-3,1.7-2.7,2c-1-1.7-2.2-1.5-3.9-1.3c-0.8,0.1-1.8-0.2-2.5,0.1c-1,0.5-0.5,1-0.8,1.6
		c1.4-2.6-5.7-2.5-6.8-2.1c-3.1,1.1-6.4,6.1-3.5,9c-1.6-0.3-4.2-1.3-4.1,1.5c-0.9-4.9-7.6-3.5-7.6,1c-0.9-0.8-2.1-1.4-3.3-1.4
		c-0.4,0-2.8,0.2-3,0.4c2.9-2.3,3.6-5.8-0.7-7.6c-2.5-1.1-8.4,0.3-6.6,3.5c-1.1-2.8-5.5-2.5-7.5-0.6c-2.1,2.1-1.7,5.7-0.5,8
		c-3.3-2.6-5.7,0.3-3.6,3.3c-1.1-1.7-3.4-3.7-4.8-1.7c0.4-1,0.2-2.4-0.9-3.1c-1.6-1-3.9,0.6-5.3,1.4c3.2-2.4,1.6-6-2.3-6.8
		c-4.2-0.9-5,1.9-7.5,4.1c-6.3-2.6-4.5,3.7-4.2,6.9c-4.4-3-4,4.4-3.1,6.4c1.7,4,3.8,7.3,8.2,7.6c5.9,0.4,11.9,0.4,17.9,0.2
		c13.3-0.4,26.5-1.9,39.8-2.5c14.3-0.6,28.9,0.9,43,2.4c11.2,1.2,22.9,1.4,33.9,3.9V131.4z"/>
</g>
<g id="Layer_5">
	<g>
		<g>
			<path class="st7" d="M146.8,135.6c-0.2,8.5-1.5,18.1,0.7,26.5c0.1,0.6,1.1,0.6,1.1,0c-0.1-4.2-0.7-8.3-0.7-12.5
				c-0.1-4.6,0.1-9.2,0-13.9C147.9,135,146.8,134.9,146.8,135.6L146.8,135.6z"/>
		</g>
	</g>
	<g>
		<g>
			<path class="st7" d="M143.7,138.6c1.5,1.5,2,3.4,3,5.2c0.2,0.4,0.8,0.2,0.7-0.2c-0.3-2-1.6-4.1-3-5.6
				C143.9,137.6,143.3,138.2,143.7,138.6L143.7,138.6z"/>
		</g>
	</g>
	<g>
		<g>
			<path class="st7" d="M147.7,148.7c0.8-0.7,1.5-1.5,2.3-2.2c0.7-0.7,1.5-1.4,2.1-2.2c0.2-0.4-0.2-1-0.6-0.7
				c-0.9,0.5-1.5,1.3-2.2,2c-0.7,0.8-1.5,1.5-2.2,2.3C146.5,148.4,147.2,149.2,147.7,148.7L147.7,148.7z"/>
		</g>
	</g>
	<g>
		<g>
			<path class="st7" d="M121.5,135.3c-0.2,8.4-1.4,18.1,1.5,26.2c0.1,0.4,0.8,0.2,0.7-0.2c-1-8.7-1.1-17.2-1.2-25.9
				C122.5,134.8,121.5,134.7,121.5,135.3L121.5,135.3z"/>
		</g>
	</g>
	<g>
		<g>
			<path class="st7" d="M118.6,136.5c0.7,1.7,1.5,3.7,2.8,5.1c0.3,0.4,0.8,0,0.7-0.4c-0.6-1.8-1.8-3.3-2.6-5
				C119.2,135.5,118.3,136,118.6,136.5L118.6,136.5z"/>
		</g>
	</g>
	<g>
		<g>
			<path class="st7" d="M123.1,146.6c1.4-1.7,2.8-3.3,4.3-4.9c0.4-0.5-0.2-1.3-0.7-0.8c-1.6,1.6-3,3.3-4.4,5.1
				C121.8,146.6,122.7,147.1,123.1,146.6L123.1,146.6z"/>
		</g>
	</g>
	<g>
		<g>
			<path class="st7" d="M122,152.2c-1.4-1.1-2.7-2.4-4-3.6c-0.4-0.4-1.1,0.3-0.7,0.8c1.2,1.4,2.6,2.7,4.1,3.8
				C121.9,153.6,122.6,152.6,122,152.2L122,152.2z"/>
		</g>
	</g>
	<g>
		<g>
			<path class="st7" d="M230.3,147.4c0.3,6.1,0.3,12.3,1.4,18.3c0.1,0.4,0.7,0.4,0.7,0c-0.2-6.1-1-12.3-1.3-18.4
				C231,146.8,230.3,146.9,230.3,147.4L230.3,147.4z"/>
		</g>
	</g>
	<g>
		<g>
			<path class="st7" d="M227.3,149.3c1,1.3,1.9,2.9,3.2,4c0.3,0.2,0.6-0.1,0.5-0.4c-0.7-1.5-1.9-2.8-3-4.2
				C227.7,148.2,226.9,148.8,227.3,149.3L227.3,149.3z"/>
		</g>
	</g>
	<g>
		<g>
			<path class="st7" d="M173.6,144.2c-0.2,6.3,0.4,12.7,1.2,18.9c0.1,0.4,0.7,0.4,0.7,0c0.1-6.3-1.1-12.5-1-18.8
				C174.4,143.8,173.6,143.7,173.6,144.2L173.6,144.2z"/>
		</g>
	</g>
	<g>
		<g>
			<path class="st7" d="M171.4,146.4c0.8,0.9,1.5,1.8,2.3,2.6c0.2,0.2,0.6,0.1,0.6-0.3c-0.3-1.3-1.4-2-2.2-2.9
				C171.7,145.5,171.1,146,171.4,146.4L171.4,146.4z"/>
		</g>
	</g>
	<g>
		<g>
			<path class="st7" d="M175,153c1.3-1.5,2.6-3.1,3.5-4.9c0.2-0.3-0.3-0.6-0.6-0.4c-1.4,1.4-2.3,3.3-3.5,4.8
				C174,153,174.6,153.4,175,153L175,153z"/>
		</g>
	</g>
	<g>
		<g>
			<path class="st7" d="M174.7,156.4c-1.1-1.1-2.6-2-4-2.5c-0.4-0.1-0.7,0.3-0.5,0.7c0.9,1.2,2.6,1.7,3.8,2.6
				C174.5,157.5,175.1,156.8,174.7,156.4L174.7,156.4z"/>
		</g>
	</g>
	<g>
		<g>
			<path class="st7" d="M5.7,128.4c0.7,9.9,1.4,19.8,2.5,29.6c0,0.5,0.8,0.4,0.8,0c0.3-9.9-1.9-19.8-2.6-29.7
				C6.3,127.8,5.7,128,5.7,128.4L5.7,128.4z"/>
		</g>
	</g>
	<g>
		<g>
			<path class="st7" d="M2.7,132c1.3,1.3,2.6,2.7,3.9,4.1c0.3,0.3,0.7,0,0.6-0.4c-0.8-1.8-2.4-2.9-3.8-4.2C3,131,2.3,131.6,2.7,132
				L2.7,132z"/>
		</g>
	</g>
	<g>
		<g>
			<path class="st7" d="M7.7,141.2c1.2-1.3,2.5-2.7,3.2-4.4c0.2-0.4-0.4-0.7-0.6-0.5c-1.3,1.2-2.1,2.8-3.3,4.1
				C6.6,140.9,7.3,141.6,7.7,141.2L7.7,141.2z"/>
		</g>
	</g>
</g>
<g id="Layer_2">
	<path class="st8" d="M80.5,157.7c1.6-2.8,3.7-0.5,4.1,1.7c1.3-1.2,2.7-0.7,3.8,0.5c-0.3-4.5,7.2-10.1,9.4-4.3
		c4.2-4.4,9.4,1.5,6.8,5.8c1.4-1,1.3-0.6,2.2,0.6c-0.5-1.9,0.6-3.1,2.3-2c-0.1-2.3,1.5-4.1,3.8-4.6c2-0.4,7.6,2.1,5.3,3.6
		c0.5-4.1,5.7-1.3,7,0.6c1.8,2.7,1,6.2,1.6,9c-9.4,2.9-21.2,0.7-30.9,0.7c-8.8,0-17,0.1-25.6-0.4c-3.1-6.2-1.5-7.8,4.8-6.3
		C71.1,157.3,78.7,151.1,80.5,157.7"/>
	<path class="st8" d="M33.8,159.6c-1.1-1.7-5.2-4-6.6-1.9c-0.7-1.4-4.2-2.7-5.7-2.4c-2.3,0.5-3.9,2.2-3.8,4.6
		c-1.6-1.1-2.7,0.2-2.3,2c-0.9-1.2-0.9-1.6-2.2-0.6c2.6-4.3-2.6-10.2-6.8-5.8c-1.2-3.3-4.2-2.9-6.5-1.1v14.9c1.5,0,3,0,4.5,0
		c9.7,0,21.6,2.1,30.9-0.7C34.8,165.7,35.6,162.3,33.8,159.6z"/>
	<path class="st8" d="M24.8,159c1.6-2.8,3.7-0.5,4.1,1.7c1.3-1.2,2.7-0.7,3.8,0.5c-0.3-4.5,7.2-10.1,9.4-4.3
		c4.2-4.4,9.4,1.5,6.8,5.8c1.4-1,1.3-0.6,2.2,0.6c-0.5-1.9,0.6-3.1,2.3-2c-0.1-2.3,1.5-4.1,3.8-4.6c2-0.4,7.6,2.1,5.3,3.6
		c0.5-4.1,5.7-1.3,7,0.6c1.8,2.7,1,6.2,1.6,9c-9.4,2.9-21.2,0.7-30.9,0.7c-8.8,0-17,0.1-25.6-0.4c-3.1-6.2-1.5-7.8,4.8-6.3
		C15.4,158.6,23,152.4,24.8,159"/>
	<path class="st8" d="M189.8,157.7c1.6-2.8,3.7-0.5,4.1,1.7c1.3-1.2,2.7-0.7,3.8,0.5c-0.3-4.5,7.2-10.1,9.4-4.3
		c4.2-4.4,9.4,1.5,6.8,5.8c1.4-1,1.3-0.6,2.2,0.6c-0.5-1.9,0.6-3.1,2.3-2c-0.1-2.3,1.5-4.1,3.8-4.6c2-0.4,7.6,2.1,5.3,3.6
		c0.5-4.1,5.7-1.3,7,0.6c1.8,2.7,1,6.2,1.6,9c-9.4,2.9-21.2,0.7-30.9,0.7c-8.8,0-17,0.1-25.6-0.4c-3.1-6.2-1.5-7.8,4.8-6.3
		C180.4,157.3,188,151.1,189.8,157.7"/>
	<path class="st8" d="M134.1,159c1.6-2.8,3.7-0.5,4.1,1.7c1.3-1.2,2.7-0.7,3.8,0.5c-0.3-4.5,7.2-10.1,9.4-4.3
		c4.2-4.4,9.4,1.5,6.8,5.8c1.4-1,1.3-0.6,2.2,0.6c-0.5-1.9,0.6-3.1,2.3-2c-0.1-2.3,1.5-4.1,3.8-4.6c2-0.4,7.6,2.1,5.3,3.6
		c0.5-4.1,5.7-1.3,7,0.6c1.8,2.7,1,6.2,1.6,9c-9.4,2.9-21.2,0.7-30.9,0.7c-8.8,0-17,0.1-25.6-0.4c-3.1-6.2-1.5-7.8,4.8-6.3
		C124.7,158.6,132.3,152.4,134.1,159"/>
	<path class="st8" d="M299.1,157.7c1.6-2.8,3.7-0.5,4.1,1.7c1.3-1.2,2.7-0.7,3.8,0.5c-0.3-4.5,7.2-10.1,9.4-4.3
		c4.2-4.4,9.4,1.5,6.8,5.8c1.4-1,1.3-0.6,2.2,0.6c-0.5-1.9,0.6-3.1,2.3-2c-0.1-2.3,1.5-4.1,3.8-4.6c2-0.4,7.6,2.1,5.3,3.6
		c0.5-4.1,5.7-1.3,7,0.6c1.8,2.7,1,6.2,1.6,9c-9.4,2.9-21.2,0.7-30.9,0.7c-8.8,0-17,0.1-25.6-0.4c-3.1-6.2-1.5-7.8,4.8-6.3
		C289.7,157.3,297.3,151.1,299.1,157.7"/>
	<path class="st8" d="M243.5,159c1.6-2.8,3.7-0.5,4.1,1.7c1.3-1.2,2.7-0.7,3.8,0.5c-0.3-4.5,7.2-10.1,9.4-4.3
		c4.2-4.4,9.4,1.5,6.8,5.8c1.4-1,1.3-0.6,2.2,0.6c-0.5-1.9,0.6-3.1,2.3-2c-0.1-2.3,1.5-4.1,3.8-4.6c2-0.4,7.6,2.1,5.3,3.6
		c0.5-4.1,5.7-1.3,7,0.6c1.8,2.7,1,6.2,1.6,9c-9.4,2.9-21.2,0.7-30.9,0.7c-8.8,0-17,0.1-25.6-0.4c-3.1-6.2-1.5-7.8,4.8-6.3
		C234.1,158.6,241.7,152.4,243.5,159"/>
	<path class="st8" d="M362.3,157.1c-1,1.2-1.7,2.7-1.6,4.1c-1.1-1.2-2.5-1.7-3.8-0.5c-0.5-2.2-2.5-4.5-4.1-1.7
		c-1.8-6.6-9.4-0.4-5.4,5c-6.3-1.5-7.9,0.1-4.8,6.3c6.7,0.4,13.1,0.4,19.8,0.4V157.1z"/>
</g>
<g id="Layer_1">
	<path class="st9" d="M341.3,184c-114.7-16.8-231-17.2-341.3,9.7v10.4h362.8v-16.3C355.7,186.4,348.5,185.2,341.3,184z"/>
	<path class="st10" d="M341.3,184c7.2,1.2,14.4,2.4,21.5,3.8v-21.5H0v27.4C110.3,166.8,226.6,167.2,341.3,184z"/>
	<path class="st11" d="M40.6,184.3C40.7,184.3,40.7,184.3,40.6,184.3c1.6-0.2,14.6-5,19.6-7c-1,0.2-22.3,6-23.7,6.5
		C38.2,184.4,38.9,183.7,40.6,184.3z"/>
	<path class="st11" d="M71.3,174C71.3,174,71.4,174,71.3,174c1.6-0.2,14.6-5,19.6-7c-1,0.2-22,4.9-23.4,5.4
		C69.2,172.9,69.6,173.4,71.3,174z"/>
	<path class="st11" d="M103.3,172C103.3,172,103.4,172,103.3,172c1.6-0.2,14.6-5,19.6-7c-1,0.2-21,5.1-22.4,5.7
		C102.2,171.2,101.6,171.4,103.3,172z"/>
	<path class="st11" d="M275.1,175.8c0,0,0.2,0,0.2,0c1.5-0.2,14.6-4.5,19.5-6.5c-1,0.2-23.4,4.7-24.7,5.3
		C271.8,175.1,273.4,175.2,275.1,175.8z"/>
	<path class="st11" d="M307.9,183.5C307.9,183.5,307.9,183.5,307.9,183.5c1.6-0.2,14.7-5,19.6-7c-1,0.2-23.4,4.7-24.7,5.3
		C304.4,182.3,306.2,182.9,307.9,183.5z"/>
	<path class="st11" d="M336.4,193.1c0,0,1.5,0.4,1.5,0.5c1.5-0.2,18.8-8.1,23.7-10.1c-1,0.2-29,7.3-30.4,7.9
		C333,191.9,334.7,192.5,336.4,193.1z"/>
	<g>
		<path class="st12" d="M250.3,156.4c-2.6-16.2-4.2-32.5-3.2-48.8c-0.9,4.7-2.6,8.4-6.2,11.7c1.3,0.5,2.8,0.1,3.9-0.7
			c-0.3,0.5-0.4,1.1-0.6,1.5c0.5-0.4,1.3-0.6,1.8-1.1c0,0,0,0,0,0c0-0.1,0.1-0.1,0,0c0,0,0,0,0,0c-1.1,3.6-4.3,6-7.3,7.9
			c1.4,0.6,2.9,0.1,4.2-0.7c-0.1,0.4,0,0.8-0.1,1.2c0.5-0.4,1.6-0.6,2.1-0.9c-1.6,3.3-4.2,5.7-7.4,7.5c1.6,0.4,3.5-0.1,5-0.7
			c-0.3,0.4-0.5,0.9-0.7,1.4c0.3-0.1,0.8-0.3,1.2-0.4c-0.8,3.9-4.6,5-6.5,7.8c1.3,0,2.7-0.4,3.9-0.7c-0.1,0.4,0,1.1,0,1.5
			c1-0.4,2.1-0.7,3.1-1.1c-1.4,3.9-5.6,5.2-7.4,8.2c1.3,0.1,2.8-0.3,4.2-0.5c-0.1,0.5,0,1.3-0.1,1.6c0.8-0.6,1.9-1.1,2.7-1.8
			c0.1,0.1-0.1,0.4,0,0.5c0.2,0.1,0.4-0.3,0.5-0.2c-2.1,3.5-4.8,5.7-8.4,7.8c0.1,0,0.2,0.1,0.4,0.1c1.6-0.7,3.4-0.9,5-0.9
			c0.4,0,0.6,0.4,0.5,0.7c0.4,0,0.8-0.1,1.1-0.1c0.5-0.6,1.4-0.6,1.9-0.9c0.1,0.2,0.2,0.4,0.3,0.5c0.8-0.4,1.6-0.7,2.4-1.1
			c0.5-0.2,0.9,0.1,0.8,0.6c0,0,0,0,0,0c0.1,0,0.2,0,0.3,0.1c0.3,0.2,1.1,0.6,1.8,0.9c0.3,0,0.7-0.1,1-0.2c0-0.1-0.1-0.1-0.1-0.2
			C250,156.8,250.1,156.5,250.3,156.4z"/>
		<path class="st13" d="M250.9,156.3c0.4,0.2,0.9,0.4,1.3,0.6c0.4-0.1,0.7-0.2,1.1-0.3c-0.1-0.1-0.2-0.2-0.3-0.3
			c-0.4-0.3-0.3-1,0.3-1c1.1,0,2.2,0.2,3.2,0.4c0,0,0.1,0,0.1,0c-0.3-0.3-0.1-1,0.4-0.9c0.6,0.1,1.2,0.2,1.9,0.2
			c0.2-0.1,0.3-0.1,0.5-0.2c0.1-0.2,0.3-0.4,0.5-0.4c0.2,0,0.5,0,0.7,0c0.4-0.1,0.7-0.3,0.9-0.3c-0.5-0.6-6.2-5.6-6.4-5.7
			c0.5,0,1.1,0,1.6,0.1c-0.5-0.2-1.2-0.6-1.8-0.8c0,0,0,0,0,0c-0.1,0-0.1,0,0,0c0,0,0,0,0,0c2.4-0.4,4.7-0.8,7.1-0.7
			c-2.3-2.2-5.8-2.9-7.9-6.1c0.3,0,0.7,0.1,1.1,0.1c-0.4-0.3-1.1-1.2-1.6-1.5c2.4-0.4,4.9,0.1,7.2-0.5c-2.6-1.5-6.5-2.4-7.8-5.5
			c0.7,0.3,1.6,0.3,2.2,0.5c-0.4-0.3-0.8-1.2-1.2-1.6c1.5,0.4,3.2,0.2,4.4-0.4c-3.1-1.6-4.6-2-6.3-5.1c0.8,0.2,0.7-0.2,1.2-0.2
			c-2.1-2.4-3.1-4.1-3.4-7.4c0.4,0.2,0.9,0.5,1.2,0.6c-0.2-0.4-0.3-0.9-0.5-1.4c1.2,0.9,2.9,1.7,4.2,0.4c-5.5-1.3-6.6-10.1-7.3-14.6
			l-0.4,1.4c-0.1,0.6-0.2,1.3-0.3,1.9c-0.9,16.2,0.6,32.6,3.2,48.8C250.5,156.3,250.7,156.2,250.9,156.3z"/>
		<polyline class="st14" points="248.8,154.8 248.6,166.3 251.9,166.3 250.6,154.6 		"/>
	</g>
	<g>
		<path class="st15" d="M303.4,166.7c0.2,0.7-0.7,15.7-0.7,15.7l6.1,1.4l-2.2-17.9"/>
		<path class="st16" d="M316.8,101.2c-6.3,0-10.8-21.6-10.9-25.8c0.3,8.8-4.4,19.3-9.6,26.1c0.9,0,1.7-0.2,2.5-0.7
			c0,0.2-1.2,1.7-0.9,2c0.1,0.1,0.2,0.2,0.4,0.4c0.9-0.7,2.2-1.5,3.2-2.4c0-0.1-0.8,1.8-0.8,2.1c0,0,1.7-0.7,1.5-1
			c-2.5,5.9-6.3,10.2-11.6,13.4c1.1-0.5,2.8-0.8,4.1-1.3c0,0.8-1,1.4-0.9,2.3c0.1,0.1,0.2,0.2,0.4,0.4c1.1-0.5,1.7-0.9,2.8-1.6
			c0.1-0.1,0.1-0.1,0,0c0.1,0-0.7,1.6-0.4,1.6c0.1,0,2.7-0.7,2.7-0.7c0-0.2,0-0.3-0.2-0.2c-1.5,5.7-5.5,9.8-10.4,12.7
			c1.5-0.6,3.2-0.6,4.7-1.3c0,0.7-0.5,1.5-0.6,2.3c0.5-0.1,2.4-1.2,2.7-1.2c0,0-0.6,1-0.3,1.2c0.6-0.3,1.6-0.8,2.3-1.2
			c-2.3,5.8-5.5,11.2-11.1,14.4c1.3-0.2,2-0.2,3.5-0.9c0.4,0.4-0.9,1.5,0,2.2c0.7-0.6,2.9-1.7,3.4-2.1c0.1,0.4-0.6,1.5-0.6,2.1
			c0.2-0.1,2.8-1,2.9-1c0,0-0.5,0.6-0.2,0.7c0.1,0.1,0.8-0.6,0.9-0.6c-2.6,5.9-6.9,10.5-13,12.4c-0.1-0.1-0.1,1.1,0,1
			c2.1-0.4,3.4,0.1,5.9-1.6c0,0.3-0.6,1.9-0.7,2.3c0.9-0.1,1.9-1.3,2.6-1.3c0.7,0.4-0.6,1.2-0.2,1.6c1.3-0.7,3-1,4.4-1.9
			c-1.2,5.1-6.3,9.1-11.3,10.7c0.1,0.1-0.3,0.9-0.4,0.9c2.3-0.4,4.2-0.1,6.5-1.3c0.1,0.5-0.2,1.7-0.3,2.3c0.1-1.3,10.8-1.7,12-2
			c-0.9,0.9-1.7,2.5-2.7,3.4c1.4-1,4.1-1.5,5.8-2.6c1.5,3.1,1.4,1.3,3.5,2.6c-0.1-0.4-0.1-2.2,0-2.6c-0.2-0.2-0.2-0.3-0.2-0.2
			c1.1,0.8,3,1.5,3.7,2.1c0.1-0.1,0.2-0.2,0.4-0.3c-0.1-0.2-0.9-2-0.9-2.2c2.2,1.5,3.4,1,5.4,1.5c0,0-0.9-2-0.9-1.9
			c1.7,1.2,4.7,1.1,6.4,0.6c-1.1-0.8-2.4-1.5-3.7-2c0.2,0.1,1.2-0.1,0.9-0.3c-0.2-0.1,2.4,0.7,3.4,0.9c-1.3-0.9-2.7-2.4-4.1-3.3
			c2.6,1.2,4.5,1.3,7.1,1.3c-4.5-1.8-11.2-3.4-11.2-9.3c1.1,0.6,3.3,1.3,4.4,2c0.1-0.2,0.1-0.4,0.1-0.7c0-0.3-0.1-0.3-0.3-0.3
			c1.6,0.8,3.2,0.8,5.1,1.3c-3.4-4.7-9.3-6.2-11.3-12.2c1.4,0.8,2.9,1,4.1,1.5c-0.1-0.1-1.2-0.7-0.7-0.6c2.8,0.6,3.8,0.2,6.2-0.7
			c-8.4-1.2-10.1-8.6-11.7-15.5c1.4,1,3.3,1.7,4.5,2.6c0.2,0.2-0.8-1.7-1-1.3c-0.2,0-0.3-0.1-0.4-0.2c0.1,0.1,0.2,0.2,0.4,0.2
			c3.4,1.2,3.1,1.1,5.5-0.3c-6.2-0.3-7.6-8.3-9.2-13.1c1.1,0.5,3.2,1.1,4.1,1.6c-0.1-1.3-0.9-0.8-1.3-1.8c-0.1-0.1-0.1-0.1,0,0
			c0.5-0.1,1.7,1,2.3,1.1c0.1-0.1,0.2-0.2,0.3-0.4c0.3,0.3-0.7-2.6-0.9-1.9c2.9,1.1,2.5,0.3,5.3,0c-5.6-1.8-10.2-8.2-11.6-13.7
			c0.1,0,2.5,1.1,2.7,1.2c0.3,0.2-1.3-2.3-1.3-2c0.9,0.5,2.2,1.2,3.1,1.6c0.6-0.2,0.5-2,0.3-1.9
			C314.8,100.9,315.1,101.2,316.8,101.2z"/>
		<path class="st17" d="M319.3,161.4c2.6,1.2,4.5,1.3,7.1,1.3c-4.5-1.8-11.2-3.4-11.2-9.3c1.1,0.6,3.3,1.3,4.4,2
			c0.1-0.2,0.1-0.4,0.1-0.7c0-0.1,0-0.1,0-0.2c1.5,0.7,3,0.7,4.8,1.1c-3.4-4.7-9.3-6.2-11.3-12.2c1.4,0.8,2.9,1,4.1,1.5
			c-0.1-0.1-1.2-0.7-0.7-0.6c2.8,0.6,3.8,0.2,6.2-0.7c-8.4-1.2-10.1-8.6-11.7-15.5c1.4,1,3.3,1.7,4.5,2.6c0.1,0.1-0.3-0.8-0.7-1.2
			c3.1,1.1,2.9,0.9,5.1-0.4c-6.2-0.3-7.6-8.3-9.2-13.1c1.1,0.5,3.2,1.1,4.1,1.6c-0.1-1.3-0.9-0.8-1.3-1.8c0.5-0.1,1.7,1,2.3,1.1
			c0.1-0.1,0.2-0.2,0.3-0.4c0.2,0.2-0.3-1.3-0.6-1.8c2.6,0.9,2.3,0.2,5.1-0.2c-5.6-1.8-10.2-8.2-11.6-13.7c0.1,0,2.5,1.1,2.7,1.2
			c0.2,0.2-0.8-1.4-1.1-1.9c0.9,0.5,2.1,1.1,2.9,1.5c0.5-0.2,0.5-1.6,0.4-1.9c1.4,0.5,1.7,0.8,3.4,0.8c-4.5,0-9.2-12.9-10.9-20.7
			c-0.1,3.9,0.7,9.5,0.6,13.2c-0.3,12.6-1.3,25.1-1.8,37.7c-0.5,12-0.4,23.9-0.2,35.9c0.2-0.1,0.4-0.2,0.6-0.3
			c1.5,3.1,1.4,1.3,3.5,2.6c-0.1-0.4-0.1-2.2,0-2.6c-0.1,0-0.1-0.1-0.1-0.1c1.1,0.8,2.9,1.5,3.6,2c0.1-0.1,0.2-0.2,0.4-0.3
			c-0.1-0.2-0.9-2-0.9-2.2c2.2,1.5,3.4,1,5.4,1.5c0,0-0.9-2-0.9-1.9c1.7,1.2,4.7,1.1,6.4,0.6c-1.1-0.8-2.4-1.5-3.7-2
			c0.2,0.1,1.2-0.1,0.9-0.3c-0.2-0.1,2.4,0.7,3.4,0.9C322,163.7,320.6,162.2,319.3,161.4z M314.2,129.5c-0.1,0-0.1-0.1-0.2-0.1
			C314.1,129.4,314.1,129.5,314.2,129.5z"/>
		<g>
			<g>
				<path class="st17" d="M297.6,129.1c0.3-0.2,0.5-0.3,0.8-0.3c-0.1-0.1-0.2-0.2-0.3-0.2c0,0.2,0.1,0.5,0.2,0.7
					c0,0.2,0.3,0.3,0.5,0.2c0.6-0.5,1.3-1,1.8-1.6c-0.2-0.1-0.4-0.1-0.6-0.2c-0.1,0.7-0.1,1.3,0.6,1.6c0.7,0.3,1.4-0.5,1.9-0.9
					c-0.2-0.1-0.4-0.2-0.6-0.3c0,0.1,0,0.1,0,0.2c0,0.3,0.3,0.6,0.6,0.4c0.7-0.4,1.5-1,1.9-1.8c0.1-0.3-0.2-0.5-0.4-0.4
					c-0.7,0.3-1.3,1-1.9,1.5c0.2,0.1,0.4,0.2,0.7,0.2c0-0.1,0-0.1,0-0.2c-0.1-0.3-0.5-0.4-0.7-0.1c-0.4,0.7-1.4,1.1-1.3-0.1
					c0-0.3-0.4-0.4-0.6-0.2c-0.5,0.6-1.1,1-1.7,1.5c0.2,0.1,0.3,0.1,0.5,0.2c-0.1-0.2-0.1-0.5-0.2-0.7c0-0.1-0.2-0.3-0.3-0.2
					c-0.3,0.1-0.6,0.2-0.9,0.4C297.1,128.8,297.3,129.3,297.6,129.1L297.6,129.1z"/>
			</g>
		</g>
		<g>
			<g>
				<path class="st17" d="M293.8,143.7c0.8-0.3,1.6-0.7,2.5-1.1c-0.2-0.2-0.3-0.3-0.5-0.5c-1,3.3,2.5,1.4,3.7,0.3
					c-0.2-0.1-0.4-0.2-0.7-0.3c0,0.4,0,0.7-0.2,1.1c-0.1,0.3,0.1,0.6,0.5,0.5c0.9-0.1,1.9-0.3,2.4-1.1c0.2-0.3-0.1-0.6-0.4-0.5
					c-0.7,0.4-1.4,0.7-2.2,0.8c0.2,0.2,0.3,0.4,0.5,0.5c0.2-0.5,0.2-0.8,0.2-1.3c0-0.3-0.4-0.6-0.7-0.3c-0.3,0.3-0.7,0.6-1.1,0.9
					c-0.7,0.5-1.8,1.2-1.4-0.3c0.1-0.3-0.2-0.6-0.5-0.5c-0.8,0.4-1.6,0.8-2.4,1.3C293.2,143.4,293.4,143.8,293.8,143.7L293.8,143.7z
					"/>
			</g>
		</g>
		<g>
			<g>
				<path class="st17" d="M291.3,157.6c2-0.5,3.9-1.1,5.8-1.7c-0.2-0.2-0.3-0.4-0.5-0.6c-0.4,0.4-0.6,0.9-0.9,1.4
					c-0.2,0.4,0.1,0.8,0.5,0.6c1-0.4,1.9-1,3-1.2c-0.2-0.2-0.3-0.3-0.5-0.5c-0.1,0.4-0.1,0.8-0.2,1.2c-0.1,0.3,0.3,0.6,0.6,0.4
					c0.8-0.5,1.5-1,2-1.7c0.2-0.3-0.2-0.8-0.5-0.5c-0.6,0.6-1.1,1-1.8,1.5c0.2,0.1,0.4,0.3,0.6,0.4c0.1-0.4,0.1-0.8,0.2-1.2
					c0.1-0.3-0.3-0.5-0.5-0.5c-1.2,0.2-2.1,0.8-3.2,1.3c0.2,0.2,0.3,0.4,0.5,0.6c0.3-0.5,0.5-0.9,0.8-1.4c0.3-0.3-0.1-0.7-0.5-0.6
					c-1.8,0.7-3.7,1.2-5.6,1.7C290.8,157.1,290.9,157.7,291.3,157.6L291.3,157.6z"/>
			</g>
		</g>
		<g>
			<g>
				<path class="st17" d="M297.3,116.7c0.9,0.2,2.2-0.2,3-0.6c-0.2-0.2-0.3-0.3-0.5-0.5c-0.2,0.4-0.4,0.8-0.6,1.1
					c-0.2,0.3,0.1,0.7,0.4,0.6c1.1-0.2,2.2-0.5,3.2-0.9c-0.2-0.1-0.3-0.1-0.5-0.2c0,0.2,0.1,0.4,0.1,0.6c0,0.2,0.3,0.4,0.6,0.3
					c0.7-0.4,1.4-0.6,2-1.2c0.2-0.2-0.1-0.6-0.4-0.4c-0.6,0.4-1.3,0.6-1.9,1c0.2,0.1,0.4,0.2,0.6,0.3c0-0.4-0.1-0.4-0.2-0.8
					c-0.1-0.2-0.3-0.2-0.5-0.2c-1,0.3-2,0.6-3,0.8c0.1,0.2,0.3,0.4,0.4,0.6c0.3-0.4,0.5-0.8,0.7-1.3c0.1-0.3-0.2-0.6-0.5-0.5
					c-0.8,0.4-1.9,0.4-2.7,0.8C297,116.3,297,116.6,297.3,116.7L297.3,116.7z"/>
			</g>
		</g>
		<g>
			<g>
				<path class="st17" d="M301.8,102.8c1.1-0.5,2-1.3,2.9-2.1c-0.2-0.1-0.4-0.3-0.6-0.4c-0.3,0.6-0.5,1.3-0.7,1.9
					c-0.1,0.3,0.1,0.6,0.4,0.5c0.8-0.2,1.8-0.5,2.3-1.2c0.2-0.3-0.1-0.6-0.4-0.5c-0.7,0.3-1.3,0.7-2,0.9c0.1,0.2,0.3,0.3,0.4,0.5
					c0.2-0.6,0.4-1.3,0.7-1.9c0.2-0.3-0.3-0.7-0.6-0.4c-0.8,0.8-1.7,1.5-2.7,2.1C301.2,102.5,301.4,103,301.8,102.8L301.8,102.8z"/>
			</g>
		</g>
	</g>
	<g>
		<path class="st15" d="M270.9,160.7c0.2,0.8-0.9,14.1-0.9,14.1l5.3,0.9l-0.8-15.8"/>
		<path class="st16" d="M271.2,88.2c0,0.1-0.7,3.8-0.7,3.9c-0.7,5.3-3.6,11.5-7.7,16.1c1.5,0.1,1.9-0.4,3.1-0.9
			c-0.4,0.8-1.5,1.4-1.4,2.4c0.4-0.3,3.7-2.2,3-1.7c0.2,0.7-0.1,0.9,0.8,0.6c-1.6,5.1-3.4,10.9-7.8,14.3c1.2-0.5,2.4-0.7,3.7-1.5
			c-0.4,1-1.3,1.1-1.5,2.4c-0.6,0.3,3.1-0.8,2.5-1c0,0-0.2,0.7-0.4,0.5c0.6-0.6,1.4-1.4,1.9-1.9c-1.2,4.3-3.9,8.2-7.9,10.6
			c1.5-0.2,3.2,0,4.8-0.4c0,0.9-1,1.6-1.1,2.4c1.2-0.6,2.9-1,4.3-1.9c0.1-0.1,0.1-0.1,0,0c-2,4.4-6,9.4-10,12.1
			c1.7-0.3,2.8-0.3,4.8-1.1c-0.1,0.5-1.3,1.4-0.7,2c0,0,2.2-1,2.2-1c0.2-0.1,0.5,0.7,0.7,0.8c0.9-0.5,1.8-1.1,2.7-1.7
			c-1.6,4.8-6.5,8.9-10.8,11c1.2,0,2.8,0.6,5.5-0.5c-0.3,0.8-0.8,2.2-1.2,2.8c1.3-0.7,3.6-1.1,4.8-1.9c-1.4,3.9-4.8,7.3-8.4,9.2
			c2.4-0.1,4.5,0.3,6.9-0.3c0.1,0.4-0.7,1.2-0.7,1.7c1.3-0.5,2.8-1.3,4.2-2c0.6-0.1,0.2,1.1,0.3,1.1c0.9-0.8,3.3-1.9,4.5-3
			c0.3,0.7,0.1,1.7,0.4,2.5c-0.1-0.2,1.9-1.2,2.2-1.3c1.9,1.3,4.2,0.5,6.2,2.1c-0.1-1.1-0.2-2.6-0.4-3.6c0.5,0.6,2.4,1.7,3.1,2.6
			c-0.3-1.3,0.1-2.7-0.1-4c2.5-0.1,4.9-1.3,7.3-1.6c-4.9-1.5-8.5-6.1-10-10.8c0-0.2,1.6,0.7,1.7,0.7c-0.5-0.6-1.5-2-1.9-2.7
			c2.8,0.3,4.1-0.8,6.3-1.1c-3.9-2.1-7.1-6.1-9.1-10.2c0.2,0,2,0.8,2.4,0.8c0.3-0.6-1.2-1.6-0.5-2.1c1.7,0,3.4-0.4,5.1-0.2
			c-3.7-1.5-7-5.2-7.6-9.6c0.5-0.4,1.6,0.7,2.1,0.8c-0.3-0.5-1.1-2.2-1.2-2.9c2,0.2,3.7-0.8,5.2-0.9c-4.4-1.5-8.2-6.8-8.3-11.5
			c0.5,0.2,1.9,1.2,2.5,1.4c-0.2-1.1-1-1.9-1.3-2.9c1.5,0.6,2.8,0.3,4.3,0.5c-5.3-2.7-8.5-9.7-8.4-15.6"/>
		<path class="st17" d="M283.3,159.7c2.5-0.1,4.9-1.3,7.3-1.6c-4.9-1.5-8.5-6.1-10-10.8c0-0.2,1.6,0.7,1.7,0.7
			c-0.5-0.6-1.5-2-1.9-2.7c2.8,0.3,4.1-0.8,6.3-1.1c-3.9-2.1-7.1-6.1-9.1-10.2c0.2,0,2,0.8,2.4,0.8c0.3-0.6-1.2-1.6-0.5-2.1
			c1.7,0,3.4-0.4,5.1-0.2c-3.7-1.5-7-5.2-7.6-9.6c0.5-0.4,1.6,0.7,2.1,0.8c-0.3-0.5-1.1-2.2-1.2-2.9c2,0.2,3.7-0.8,5.2-0.9
			c-4.4-1.5-8.2-6.8-8.3-11.5c0.5,0.2,1.9,1.2,2.5,1.4c-0.2-1.1-1-1.9-1.3-2.9c1.5,0.6,2.8,0.3,4.3,0.5c-4.2-2.1-7-7-8-11.8
			c-0.3-1.3-0.8-7.5-0.8-7.5c0,2,0,7.8,0,9.8c0,4.7-0.3,9.4-0.4,14.1c-0.2,9.7-0.2,19.4,0.2,29c0.3,7.5,0.8,15,1.3,22.5
			c0,0.1,0.1,0.2,0.1,0.3c-0.1-0.2,1.9-1.2,2.2-1.3c1.9,1.3,4.2,0.5,6.2,2.1c-0.1-1.1-0.2-2.6-0.4-3.6c0.5,0.6,2.4,1.7,3.1,2.6
			C283,162.4,283.5,161,283.3,159.7z"/>
		<g>
			<g>
				<path class="st17" d="M264.1,133.9c1.1-0.5,2.2-1,3.3-1.5c-0.2-0.1-0.3-0.2-0.5-0.3c0,0.3,0,0.6,0,0.9c0,0.2,0.2,0.4,0.4,0.4
					c0.8-0.2,1.8-0.2,2.5-0.7c0.4-0.2,0.1-0.7-0.3-0.6c-0.8,0.3-1.6,0.4-2.4,0.6c0.1,0.1,0.3,0.2,0.4,0.4c0-0.3,0-0.6,0-0.9
					c0-0.2-0.2-0.5-0.5-0.3c-1.1,0.5-2.2,1-3.2,1.5C263.5,133.5,263.7,134.1,264.1,133.9L264.1,133.9z"/>
			</g>
		</g>
		<g>
			<g>
				<path class="st17" d="M261.7,145.3c0.6-0.5,1.2-0.7,2-0.9c-0.1-0.1-0.3-0.2-0.4-0.3c0,0.4,0.1,0.7,0.1,1.1
					c0,0.2,0.3,0.3,0.5,0.2c1.4-0.5,2.5-1.4,3.7-2.3c-0.1-0.2-0.3-0.4-0.4-0.5c-0.3,0.3-0.5,0.6-0.8,1c-0.2,0.2,0.1,0.5,0.3,0.5
					c0.4-0.1,0.7-0.3,1-0.4c0.2-0.1,0.2-0.5-0.1-0.5c-0.4,0-0.7,0.2-1,0.3c0.1,0.2,0.2,0.4,0.3,0.5c0.3-0.3,0.5-0.6,0.8-0.9
					c0.3-0.3-0.1-0.8-0.4-0.5c-1.1,0.8-2.3,1.7-3.6,2.2c0.2,0.1,0.3,0.2,0.5,0.2c0-0.4-0.1-0.7-0.1-1.1c0-0.2-0.2-0.3-0.4-0.3
					c-0.9,0.2-1.6,0.5-2.2,1.1C261.1,145.1,261.4,145.5,261.7,145.3L261.7,145.3z"/>
			</g>
		</g>
		<g>
			<g>
				<path class="st17" d="M260.9,154.2c-0.4,0.6-0.7,1.3-0.9,2.1c-0.1,0.2,0.2,0.5,0.4,0.4c1.3-0.8,2.6-1.6,4.1-2
					c-0.1-0.2-0.2-0.3-0.3-0.5c-0.3,0.4-0.5,0.7-0.8,1.1c-0.2,0.2,0.1,0.6,0.3,0.5c1.5-0.2,2.9-0.9,4.1-1.8c0.3-0.2,0-0.6-0.3-0.5
					c-1.3,0.7-2.5,1.4-3.9,1.6c0.1,0.2,0.2,0.3,0.3,0.5c0.3-0.3,0.5-0.7,0.8-1.1c0.2-0.2-0.1-0.6-0.3-0.5c-1.6,0.4-3,1.2-4.3,2.1
					c0.2,0.1,0.3,0.2,0.5,0.3c0.2-0.7,0.4-1.3,0.8-2C261.5,154.2,261.1,153.9,260.9,154.2L260.9,154.2z"/>
			</g>
		</g>
		<g>
			<g>
				<path class="st17" d="M263.9,123.6c1.2-0.5,2.2-1.4,3.3-2c-0.1-0.2-0.3-0.4-0.4-0.6c-0.2,0.2-0.4,0.4-0.6,0.5
					c-0.3,0.3,0,0.8,0.4,0.6c0.7-0.4,1.4-0.6,2-1.1c-0.2-0.1-0.4-0.2-0.6-0.3c0,0.3,0,0.6-0.1,0.9c0,0.2,0.1,0.4,0.3,0.4
					c0.3,0,0.7-0.1,1-0.2c0.2-0.1,0.3-0.5,0.1-0.6c0,0,0,0,0,0c-0.4-0.2-0.8,0.3-0.4,0.6c0,0,0,0,0,0c0-0.2,0.1-0.4,0.1-0.6
					c-0.3,0.1-0.5,0.1-0.8,0.1c0.1,0.1,0.3,0.3,0.4,0.4c0-0.3,0-0.6,0-0.9c0-0.3-0.3-0.5-0.6-0.3c-0.5,0.4-1.2,0.6-1.8,1
					c0.1,0.2,0.3,0.4,0.4,0.6c0.2-0.2,0.4-0.4,0.6-0.5c0.3-0.3,0-0.8-0.4-0.6c-1.1,0.7-2.1,1.5-3.2,2.1
					C263.2,123.3,263.5,123.8,263.9,123.6L263.9,123.6z"/>
			</g>
		</g>
	</g>
	<g>
		<path class="st15" d="M337.9,193.5l-1.1-20.4l-6.2,1c0,0.8,0.5,12.2,0.7,17.4C332.8,191.6,336.4,193.5,337.9,193.5z"/>
		<polygon class="st17" points="345.7,98.1 345.7,98.1 345.7,98.1 		"/>
		<path class="st17" d="M345.8,98.2c0,0-0.1-0.1-0.1-0.1h0C345.7,98.1,345.7,98.1,345.8,98.2z"/>
		<path class="st17" d="M345.7,98.1C345.7,98.1,345.7,98.1,345.7,98.1C345.7,98.1,345.7,98.1,345.7,98.1z"/>
		<path class="st18" d="M362.8,175.2c0.2-0.1-6.8-4.8-7.3-5.2c-3.8-2.3-7.2-4.4-9.2-8.5c1.3,0.9,2.9,1.7,4.3,2.2
			c-0.5-0.9-0.8-2.1-1.5-3c0.8,0.6,1.8,0.9,2.6,1.3c-0.4-0.7-0.6-1.7-1.2-2.5c1.8,1.4,7.5,3.6,4-0.1c1.5,1.7,4.3,2.5,5.6,0.4
			c-1.9,3.1-15.1-13.3-15.7-16.1c1,0.7,2.5,1.2,3.6,2c-0.4-0.6-0.8-1.7-1.4-2.3c1.1,1.1,2.5,1.5,3.6,2c-0.4-0.6-0.7-1.6-1.2-2.2
			c2,1.6,4.8,1.5,6.6-0.2c-4.9,4.7-14-15.7-14.3-18.3c0.4,0.8,1.1,1.6,1.7,2.3c0.3-0.1,0.7-0.2,1.1-0.3c-0.1-0.7-0.3-1.6-0.8-2.2
			c0.9,1,1.7,1,2.8,1.6c0-0.5,0.1-1.2,0.1-1.8c1.6,0.8,3.4,0.7,4.6-0.6c-9-4.2-10.4-14.1-11.9-22.5c0.5,1.4,1.2,2.2,2.5,1.8
			c-0.1-0.5,0-1.5-0.1-2.1c2.7,2.6,4.9-0.7,3.5-1.3c1.1,0.5,2.2,0.3,3.2,0.5c-0.6-0.7-1.6-1.7-2.4-2.2c0.1,0,0.1,0,0.1,0
			c0,0,0,0,0,0c-10-7-8.2-19.4-9.9-30.6c-1.3,36.5-2.4,73-2,109.5c0.3-0.3,0.7-0.7,0.9-1.1c1,1.7,1.7,1.9,3.4,1.8
			c-0.1-0.5-0.2-1.7-0.2-1.9c0.7,2.1,2.7,3.2,4.6,2.5c-0.4-0.8-0.5-2.2-1-3c1.7,1.7,6.4,4.1,5-0.6c1.5,2.1,6.2,3.4,4.2-0.4
			c0.1,0,0.1,0.1,0.2,0.2c1.9,2.6,6.3,2.6,3.7-1c1,1.2,2.1,1.2,3.4,1.8c0.2-0.1-0.1-0.6,0.1-0.8
			C359.6,175.3,361.3,175.7,362.8,175.2z"/>
		<path class="st17" d="M328.7,100.6c0,0-0.1,0.1-0.1,0.2C328.6,100.7,328.6,100.6,328.7,100.6C328.7,100.4,328.7,100.4,328.7,100.6
			z"/>
		<path class="st19" d="M335.8,67.5c0-0.2,0-0.3-0.1-0.5c0,9.1-2.2,31.5-14.3,33c1.1,1.8,3.4,0.4,5-1c-0.6,1-0.7,2.7-1.1,3.8
			c0.1,0.1,0.1,0.1,0.2,0.2c1.1-0.6,2.2-1.1,3-2.2c0-0.1,0.1-0.1,0.1-0.2c0.1-0.1,0.1-0.1,0,0c0,0.1-0.1,0.1-0.1,0.2
			c-0.1,0.1-0.1,0.3,0,0.4c0.3-0.3,1-0.9,1.4-1.1c-2.5,7.4-3.1,20.7-12,23.8c0,0,0,0.8,0,0.7c1.1-0.3,3-0.3,4.2-0.9
			c-0.4,1-0.2,2.6-0.5,3.6c0.9-0.8,2.6-1.6,3.6-2.6c-0.1,0.9,0.2,2,0.1,2.8c0.8-0.7,2-1.3,2.6-2.5c-3.9,8.1-8.5,15.3-16.9,19.1
			c1.1,2.8,4.6,0.3,6.4-0.8c-0.5,1-0.6,2.2-1,3.2c0.5-0.5,2.2-1,2.8-1.6c-0.1,0.6,0,1.3-0.1,2c0.8-0.7,2.2-1.3,2.9-2.4
			c-0.3,4.5-4.8,9.7-8.2,12.4c-2.3,1.8-5.8,2.2-7.5,4.1c1.7,1.3,4.2,0.9,6.2,0.2c-0.9,1.3-0.8,2.5-1.2,4c1.4-0.7,2.7-2,4-3.2
			c-0.2,0.7-0.3,1.7-0.5,2.4c0.5-0.6,1.7-1.3,2.2-1.8c-2.1,7.5-8.1,8.6-12.9,12.9c2,2.4,5.5,0.8,8-0.3c-0.5,4.5,2.7,3,4.6,0.8
			c0.1,0.7,0.5,1.3,0.6,2c2.6-1,6.7-2.3,9.4-2.7c0.1,0.1,0.1,0.1,0.2,0.2c-0.3,0.8-0.3,2.3-0.7,3.2c1.1-0.9,2.8-1.4,4-2
			c0.7,2.4,2.3,1.9,3.7,0.7c-0.2-16.9,1.2-33.8,1.6-50.7C335.7,106.7,335.1,87.1,335.8,67.5z"/>
	</g>
	<g>
		<path class="st12" d="M21.3,153.2c-3-18.6-4.8-37.4-3.7-56.1c-1.1,5.4-3,9.6-7.2,13.5c1.5,0.6,3.2,0.1,4.4-0.8
			c-0.4,0.6-0.5,1.2-0.7,1.8c0.6-0.5,1.5-0.7,2.1-1.2c0,0,0,0,0,0c0.1-0.1,0.1-0.1,0,0c0,0,0,0,0,0c-1.3,4.2-5,6.9-8.4,9.1
			c1.6,0.7,3.3,0.1,4.8-0.7c-0.1,0.4,0,1-0.1,1.4c0.6-0.4,1.8-0.7,2.4-1.1c-1.9,3.8-4.8,6.6-8.5,8.7c1.8,0.4,4-0.1,5.8-0.8
			c-0.3,0.5-0.5,1.1-0.8,1.6c0.4-0.1,0.9-0.4,1.4-0.4c-1,4.5-5.3,5.8-7.5,9c1.5,0,3.1-0.4,4.5-0.8c-0.1,0.5,0,1.3,0,1.7
			c1.2-0.4,2.4-0.8,3.5-1.2c-1.6,4.5-6.5,6-8.5,9.5c1.5,0.1,3.2-0.4,4.8-0.6c-0.2,0.6,0,1.5-0.1,1.9c1-0.7,2.2-1.3,3.2-2
			c0.2,0.1-0.1,0.5,0.1,0.6c0.3,0.1,0.4-0.4,0.6-0.3c-2.4,4.1-5.5,6.6-9.6,9c0.1,0,0.3,0.1,0.4,0.1c1.8-0.8,4-1,5.8-1
			c0.4,0,0.7,0.4,0.6,0.8c0.5,0,0.9-0.1,1.2-0.1c0.6-0.6,1.6-0.7,2.2-1.1c0.1,0.2,0.2,0.4,0.4,0.6c0.9-0.4,1.8-0.8,2.7-1.3
			c0.5-0.3,1,0.2,0.9,0.7c0,0,0,0,0,0c0.1,0,0.2,0,0.3,0.1c0.4,0.2,1.2,0.7,2,1.1c0.4-0.1,0.8-0.1,1.2-0.2c0-0.1-0.1-0.1-0.1-0.2
			C20.9,153.7,21.1,153.4,21.3,153.2z"/>
		<path class="st13" d="M22,153.2c0.5,0.2,1,0.5,1.5,0.7c0.4-0.1,0.8-0.2,1.3-0.3c-0.1-0.1-0.2-0.2-0.3-0.3
			c-0.5-0.4-0.4-1.2,0.3-1.2c1.3,0,2.5,0.2,3.7,0.5c0,0,0.1,0,0.1,0c-0.4-0.4-0.1-1.1,0.5-1.1c0.7,0.1,1.4,0.2,2.1,0.3
			c0.2-0.1,0.4-0.1,0.6-0.2c0.1-0.3,0.3-0.5,0.6-0.5c0.3,0,0.6,0,0.9,0c0.4-0.2,0.8-0.3,1.1-0.4c-0.6-0.7-7.1-6.5-7.4-6.5
			c0.6,0.1,1.3,0,1.9,0.1c-0.6-0.2-1.3-0.7-2.1-0.9c0,0,0,0,0,0c-0.1,0-0.1,0,0,0c0,0,0,0,0,0c2.7-0.5,5.4-0.9,8.2-0.8
			c-2.7-2.5-6.6-3.3-9.1-7c0.4,0,0.8,0.1,1.2,0.1c-0.4-0.3-1.2-1.3-1.9-1.7c2.7-0.5,5.6,0.1,8.3-0.6c-3-1.8-7.5-2.7-9-6.4
			c0.7,0.3,1.8,0.3,2.5,0.6c-0.4-0.4-0.9-1.4-1.4-1.9c1.7,0.4,3.6,0.3,5.1-0.5c-3.6-1.9-5.3-2.3-7.2-5.9c0.9,0.2,0.8-0.2,1.4-0.3
			c-2.5-2.7-3.6-4.7-3.9-8.5c0.4,0.2,1,0.5,1.4,0.7c-0.2-0.5-0.4-1.1-0.6-1.6c1.3,1.1,3.4,1.9,4.8,0.5c-6.3-1.5-7.5-11.7-8.4-16.8
			l-0.5,1.6c-0.1,0.7-0.2,1.4-0.4,2.1c-1,18.7,0.7,37.5,3.7,56.1C21.5,153.1,21.8,153,22,153.2z"/>
		<polyline class="st14" points="19.6,151.4 19.4,164.7 23.1,164.7 21.7,151.2 		"/>
	</g>
	<g>
		<path class="st15" d="M100.7,160.8c0.2,0.5-0.2,10.1-0.2,10.1l4.4,1.2l-1.8-11.9"/>
		<path class="st16" d="M111,110.5c-4.8,0-8.3-16.6-8.4-19.8c0.2,6.8-3.4,14.8-7.4,20.1c0.7,0,1.3-0.1,1.9-0.5
			c0,0.2-0.9,1.3-0.7,1.6c0.1,0.1,0.2,0.2,0.3,0.3c0.7-0.5,1.7-1.2,2.5-1.8c0-0.1-0.6,1.4-0.6,1.6c0,0,1.3-0.5,1.2-0.7
			c-1.9,4.5-4.8,7.8-8.9,10.3c0.9-0.4,2.2-0.6,3.1-1c0,0.6-0.8,1.1-0.7,1.8c0.1,0.1,0.2,0.2,0.3,0.3c0.8-0.4,1.3-0.7,2.2-1.2
			c0.1-0.1,0.1-0.1,0,0c0,0-0.5,1.3-0.3,1.2c0.1,0,2.1-0.6,2.1-0.6c0-0.2,0-0.2-0.2-0.2c-1.2,4.4-4.2,7.5-8,9.7
			c1.1-0.4,2.4-0.5,3.6-1c0,0.5-0.4,1.2-0.4,1.8c0.3-0.1,1.8-0.9,2.1-0.9c0,0-0.4,0.8-0.3,0.9c0.4-0.3,1.2-0.6,1.8-0.9
			c-1.8,4.4-4.2,8.6-8.5,11c1-0.1,1.6-0.2,2.7-0.7c0.3,0.3-0.7,1.2,0,1.7c0.5-0.4,2.2-1.3,2.6-1.6c0.1,0.3-0.5,1.2-0.4,1.6
			c0.1-0.1,2.1-0.8,2.2-0.8c0,0-0.4,0.4-0.1,0.5c0.1,0.1,0.6-0.4,0.7-0.5c-2,4.5-5.3,8-10,9.6c-0.1-0.1-0.1,0.8,0,0.8
			c1.6-0.3,2.6,0.1,4.5-1.2c0,0.3-0.4,1.5-0.5,1.7c0.7-0.1,1.5-1,2-1c0.5,0.3-0.5,0.9-0.2,1.3c1-0.5,2.3-0.8,3.4-1.5
			c-0.9,3.9-4.8,7-8.6,8.2c0.1,0-0.3,0.7-0.3,0.7c1.7-0.3,3.2-0.1,5-1c0.1,0.4-0.2,1.3-0.2,1.8c0.1-1,8.3-1.3,9.2-1.6
			c-0.7,0.7-1.3,1.9-2.1,2.6c1.1-0.7,3.2-1.1,4.4-2c1.2,2.4,1.1,1,2.7,2c-0.1-0.3-0.1-1.7,0-2c-0.2-0.2-0.2-0.3-0.2-0.1
			c0.8,0.6,2.3,1.2,2.8,1.6c0.1-0.1,0.2-0.2,0.3-0.3c-0.1-0.1-0.7-1.5-0.7-1.7c1.7,1.2,2.6,0.8,4.2,1.2c0,0-0.7-1.5-0.7-1.5
			c1.3,0.9,3.6,0.8,4.9,0.4c-0.9-0.6-1.8-1.1-2.8-1.5c0.1,0,0.9-0.1,0.7-0.2c-0.1-0.1,1.9,0.5,2.6,0.7c-1-0.7-2.1-1.9-3.1-2.5
			c2,0.9,3.5,1,5.4,1c-3.4-1.4-8.6-2.6-8.6-7.1c0.9,0.5,2.6,1,3.4,1.5c0.1-0.2,0.1-0.3,0.1-0.5c0-0.2-0.1-0.3-0.2-0.2
			c1.3,0.6,2.4,0.6,3.9,1c-2.6-3.6-7.1-4.8-8.7-9.4c1.1,0.6,2.2,0.7,3.1,1.2c-0.1-0.1-0.9-0.6-0.5-0.4c2.2,0.4,2.9,0.1,4.8-0.5
			c-6.5-0.9-7.7-6.6-9-11.9c1,0.8,2.5,1.3,3.4,2c0.1,0.1-0.6-1.3-0.8-1c-0.1,0-0.2,0-0.3-0.1c0.1,0.1,0.2,0.1,0.3,0.1
			c2.6,0.9,2.4,0.8,4.2-0.2c-4.8-0.2-5.8-6.4-7.1-10.1c0.9,0.4,2.4,0.8,3.1,1.2c-0.1-1-0.7-0.6-1-1.4c-0.1-0.1-0.1-0.1,0,0
			c0.4-0.1,1.3,0.8,1.8,0.8c0.1-0.1,0.2-0.2,0.3-0.3c0.2,0.3-0.6-2-0.7-1.5c2.2,0.8,1.9,0.2,4.1,0c-4.3-1.4-7.8-6.3-8.9-10.5
			c0.1,0,1.9,0.8,2.1,0.9c0.2,0.2-1-1.8-1-1.5c0.7,0.4,1.7,0.9,2.4,1.2c0.4-0.1,0.4-1.6,0.2-1.5C109.4,110.3,109.7,110.5,111,110.5z
			"/>
		<path class="st17" d="M112.9,156.7c2,0.9,3.5,1,5.4,1c-3.4-1.4-8.6-2.6-8.6-7.1c0.9,0.5,2.6,1,3.4,1.5c0.1-0.2,0.1-0.3,0.1-0.5
			c0,0,0-0.1,0-0.1c1.2,0.5,2.3,0.6,3.7,0.9c-2.6-3.6-7.1-4.8-8.7-9.4c1.1,0.6,2.2,0.7,3.1,1.2c-0.1-0.1-0.9-0.6-0.5-0.4
			c2.2,0.4,2.9,0.1,4.8-0.5c-6.5-0.9-7.7-6.6-9-11.9c1.1,0.8,2.6,1.3,3.4,2c0.1,0.1-0.3-0.6-0.5-0.9c2.4,0.8,2.2,0.7,4-0.3
			c-4.8-0.2-5.8-6.4-7.1-10.1c0.9,0.4,2.4,0.8,3.1,1.2c-0.1-1-0.7-0.6-1-1.4c0.4,0,1.3,0.8,1.8,0.8c0.1-0.1,0.2-0.2,0.3-0.3
			c0.2,0.2-0.2-1-0.5-1.4c2,0.7,1.8,0.2,3.9-0.1c-4.3-1.4-7.8-6.3-8.9-10.5c0.1,0,1.9,0.8,2.1,0.9c0.2,0.1-0.6-1.1-0.9-1.4
			c0.7,0.4,1.6,0.8,2.3,1.2c0.4-0.1,0.4-1.2,0.3-1.4c1.1,0.4,1.3,0.6,2.6,0.6c-3.5,0-7.1-9.9-8.4-15.9c-0.1,3,0.5,7.3,0.5,10.1
			c-0.2,9.7-1,19.3-1.4,28.9c-0.4,9.2-0.3,18.4-0.1,27.6c0.2-0.1,0.3-0.2,0.4-0.3c1.2,2.4,1.1,1,2.7,2c-0.1-0.3-0.1-1.7,0-2
			c0,0-0.1-0.1-0.1-0.1c0.8,0.6,2.2,1.1,2.7,1.6c0.1-0.1,0.2-0.2,0.3-0.3c-0.1-0.1-0.7-1.5-0.7-1.7c1.7,1.2,2.6,0.8,4.2,1.2
			c0,0-0.7-1.5-0.7-1.5c1.3,0.9,3.6,0.8,4.9,0.4c-0.9-0.6-1.8-1.1-2.8-1.5c0.1,0,0.9-0.1,0.7-0.2c-0.1-0.1,1.9,0.5,2.6,0.7
			C115,158.5,113.9,157.4,112.9,156.7z M109,132.3c0,0-0.1-0.1-0.1-0.1C108.9,132.2,108.9,132.2,109,132.3z"/>
		<g>
			<g>
				<path class="st17" d="M96.3,132c0.2-0.1,0.4-0.2,0.6-0.2c-0.1-0.1-0.2-0.1-0.3-0.2c0,0.2,0.1,0.4,0.1,0.5c0,0.2,0.2,0.2,0.4,0.1
					c0.5-0.4,1-0.8,1.4-1.2c-0.1-0.1-0.3-0.1-0.4-0.2c-0.1,0.5-0.1,1,0.5,1.2c0.5,0.2,1.1-0.4,1.4-0.7c-0.2-0.1-0.3-0.2-0.5-0.2
					c0,0,0,0.1,0,0.1c0,0.2,0.2,0.4,0.4,0.3c0.6-0.3,1.1-0.8,1.4-1.4c0.1-0.2-0.2-0.4-0.3-0.3c-0.6,0.3-1,0.8-1.4,1.2
					c0.2,0.1,0.3,0.1,0.5,0.2c0,0,0-0.1,0-0.1c0-0.2-0.4-0.3-0.5-0.1c-0.3,0.5-1.1,0.8-1-0.1c0-0.3-0.3-0.3-0.4-0.2
					c-0.4,0.4-0.9,0.8-1.3,1.2c0.1,0,0.2,0.1,0.4,0.1c0-0.2-0.1-0.4-0.1-0.5c0-0.1-0.1-0.2-0.3-0.2c-0.3,0.1-0.5,0.1-0.7,0.3
					C95.9,131.7,96,132.1,96.3,132L96.3,132z"/>
			</g>
		</g>
		<g>
			<g>
				<path class="st17" d="M93.3,143.2c0.6-0.2,1.3-0.6,1.9-0.9c-0.1-0.1-0.3-0.2-0.4-0.4c-0.8,2.5,1.9,1.1,2.9,0.2
					c-0.2-0.1-0.3-0.2-0.5-0.3c0,0.3,0,0.6-0.1,0.8c-0.1,0.2,0.1,0.4,0.3,0.4c0.7-0.1,1.4-0.3,1.9-0.8c0.2-0.2-0.1-0.5-0.3-0.4
					c-0.6,0.3-1,0.5-1.7,0.6c0.1,0.1,0.2,0.3,0.3,0.4c0.1-0.3,0.1-0.6,0.2-1c0-0.3-0.3-0.5-0.5-0.3c-0.3,0.3-0.6,0.5-0.9,0.7
					c-0.5,0.4-1.4,0.9-1.1-0.2c0.1-0.2-0.2-0.5-0.4-0.4c-0.6,0.3-1.2,0.6-1.8,1C92.9,142.9,93.1,143.3,93.3,143.2L93.3,143.2z"/>
			</g>
		</g>
		<g>
			<g>
				<path class="st17" d="M91.4,153.8c1.5-0.4,3-0.8,4.5-1.3c-0.1-0.1-0.2-0.3-0.4-0.4c-0.3,0.3-0.5,0.7-0.7,1.1
					c-0.2,0.3,0.1,0.6,0.4,0.5c0.8-0.3,1.5-0.8,2.3-0.9c-0.1-0.1-0.3-0.2-0.4-0.4c-0.1,0.3-0.1,0.6-0.1,0.9
					c-0.1,0.2,0.3,0.4,0.5,0.3c0.6-0.4,1.1-0.7,1.6-1.3c0.2-0.3-0.2-0.6-0.4-0.4c-0.5,0.4-0.9,0.8-1.4,1.1c0.2,0.1,0.3,0.2,0.5,0.3
					c0.1-0.3,0.1-0.6,0.1-0.9c0-0.2-0.2-0.4-0.4-0.4c-0.9,0.1-1.6,0.7-2.5,1c0.1,0.2,0.3,0.3,0.4,0.5c0.2-0.4,0.4-0.7,0.6-1.1
					c0.2-0.3-0.1-0.5-0.4-0.4c-1.4,0.5-2.9,0.9-4.3,1.3C91,153.4,91.1,153.9,91.4,153.8L91.4,153.8z"/>
			</g>
		</g>
		<g>
			<g>
				<path class="st17" d="M96,122.4c0.7,0.1,1.7-0.1,2.3-0.5c-0.1-0.1-0.3-0.2-0.4-0.4c-0.1,0.3-0.3,0.6-0.5,0.9
					c-0.2,0.2,0.1,0.5,0.3,0.5c0.8-0.2,1.7-0.4,2.5-0.7c-0.1,0-0.3-0.1-0.4-0.1c0,0.2,0.1,0.3,0.1,0.5c0,0.2,0.3,0.3,0.4,0.2
					c0.5-0.3,1.1-0.4,1.5-0.9c0.1-0.2-0.1-0.4-0.3-0.3c-0.5,0.3-1,0.5-1.5,0.7c0.1,0.1,0.3,0.1,0.4,0.2c0-0.3-0.1-0.3-0.2-0.6
					c-0.1-0.2-0.3-0.2-0.4-0.1c-0.8,0.3-1.5,0.5-2.3,0.6c0.1,0.2,0.2,0.3,0.3,0.5c0.2-0.3,0.4-0.6,0.6-1c0.1-0.2-0.2-0.5-0.4-0.4
					c-0.7,0.3-1.4,0.3-2.1,0.6C95.8,122.1,95.8,122.4,96,122.4L96,122.4z"/>
			</g>
		</g>
		<g>
			<g>
				<path class="st17" d="M99.5,111.8c0.8-0.4,1.6-1,2.2-1.6c-0.1-0.1-0.3-0.2-0.4-0.3c-0.2,0.5-0.4,1-0.5,1.5
					c-0.1,0.2,0.1,0.5,0.3,0.4c0.6-0.2,1.4-0.4,1.7-1c0.1-0.2-0.1-0.5-0.3-0.4c-0.5,0.3-1,0.6-1.5,0.7c0.1,0.1,0.2,0.3,0.3,0.4
					c0.2-0.5,0.3-1,0.5-1.5c0.1-0.3-0.2-0.5-0.4-0.3c-0.6,0.6-1.3,1.2-2,1.6C99,111.5,99.2,111.9,99.5,111.8L99.5,111.8z"/>
			</g>
		</g>
	</g>
	<g>
		<path class="st15" d="M68.6,158.9c0.2,0.8-0.9,14.1-0.9,14.1l5,0.9l-0.5-15.8"/>
		<path class="st16" d="M68.9,86.3c0,0.1-0.7,3.8-0.7,3.9c-0.7,5.3-3.6,11.5-7.7,16.1c1.5,0.1,1.9-0.4,3.1-0.9
			c-0.4,0.8-1.5,1.4-1.4,2.4c0.4-0.3,3.7-2.2,3-1.7c0.2,0.7-0.1,0.9,0.8,0.6c-1.6,5.1-3.4,10.9-7.8,14.3c1.2-0.5,2.4-0.7,3.7-1.5
			c-0.4,1-1.3,1.1-1.5,2.4c-0.6,0.3,3.1-0.8,2.5-1c0,0-0.2,0.7-0.4,0.5c0.6-0.6,1.4-1.4,1.9-1.9c-1.2,4.3-3.9,8.2-7.9,10.6
			c1.5-0.2,3.2,0,4.8-0.4c0,0.9-1,1.6-1.1,2.4c1.2-0.6,2.9-1,4.3-1.9c0.1-0.1,0.1-0.1,0,0c-2,4.4-6,9.4-10,12.1
			c1.7-0.3,2.8-0.3,4.8-1.1c-0.1,0.5-1.3,1.4-0.7,2c0,0,2.2-1,2.2-1c0.2-0.1,0.5,0.7,0.7,0.8c0.9-0.5,1.8-1.1,2.7-1.7
			c-1.6,4.8-6.5,8.9-10.8,11c1.2,0,2.8,0.6,5.5-0.5c-0.3,0.8-0.8,2.2-1.2,2.8c1.3-0.7,3.6-1.1,4.8-1.9c-1.4,3.9-4.8,7.3-8.4,9.2
			c2.4-0.1,4.5,0.3,6.9-0.3c0.1,0.4-0.7,1.2-0.7,1.7c1.3-0.5,2.8-1.3,4.2-2c0.6-0.1,0.2,1.1,0.3,1.1c0.9-0.8,3.3-1.9,4.5-3
			c0.3,0.7,0.1,1.7,0.4,2.5c-0.1-0.2,1.9-1.2,2.2-1.3c1.9,1.3,4.2,0.5,6.2,2.1c-0.1-1.1-0.2-2.6-0.4-3.6c0.5,0.6,2.4,1.7,3.1,2.6
			c-0.3-1.3,0.1-2.7-0.1-4c2.5-0.1,4.9-1.3,7.3-1.6c-4.9-1.5-8.5-6.1-10-10.8c0-0.2,1.6,0.7,1.7,0.7c-0.5-0.6-1.5-2-1.9-2.7
			c2.8,0.3,4.1-0.8,6.3-1.1c-3.9-2.1-7.1-6.1-9.1-10.2c0.2,0,2,0.8,2.4,0.8c0.3-0.6-1.2-1.6-0.5-2.1c1.7,0,3.4-0.4,5.1-0.2
			c-3.7-1.5-7-5.2-7.6-9.6c0.5-0.4,1.6,0.7,2.1,0.8c-0.3-0.5-1.1-2.2-1.2-2.9c2,0.2,3.7-0.8,5.2-0.9c-4.4-1.5-8.2-6.8-8.3-11.5
			c0.5,0.2,1.9,1.2,2.5,1.4c-0.2-1.1-1-1.9-1.3-2.9c1.5,0.6,2.8,0.3,4.3,0.5C72.2,102.9,69,95.8,69,90"/>
		<path class="st17" d="M81,157.8c2.5-0.1,4.9-1.3,7.3-1.6c-4.9-1.5-8.5-6.1-10-10.8c0-0.2,1.6,0.7,1.7,0.7c-0.5-0.6-1.5-2-1.9-2.7
			c2.8,0.3,4.1-0.8,6.3-1.1c-3.9-2.1-7.1-6.1-9.1-10.2c0.2,0,2,0.8,2.4,0.8c0.3-0.6-1.2-1.6-0.5-2.1c1.7,0,3.4-0.4,5.1-0.2
			c-3.7-1.5-7-5.2-7.6-9.6c0.5-0.4,1.6,0.7,2.1,0.8c-0.3-0.5-1.1-2.2-1.2-2.9c2,0.2,3.7-0.8,5.2-0.9c-4.4-1.5-8.2-6.8-8.3-11.5
			c0.5,0.2,1.9,1.2,2.5,1.4c-0.2-1.1-1-1.9-1.3-2.9c1.5,0.6,2.8,0.3,4.3,0.5c-4.2-2.1-7-7-8-11.8c-0.3-1.3-0.8-7.5-0.8-7.5
			c0,2,0,7.8,0,9.8c0,4.7-0.3,9.4-0.4,14.1c-0.2,9.7-0.2,19.4,0.2,29c0.3,7.5,0.8,15,1.3,22.5c0,0.1,0.1,0.2,0.1,0.3
			c-0.1-0.2,1.9-1.2,2.2-1.3c1.9,1.3,4.2,0.5,6.2,2.1c-0.1-1.1-0.2-2.6-0.4-3.6c0.5,0.6,2.4,1.7,3.1,2.6
			C80.7,160.6,81.2,159.1,81,157.8z"/>
		<g>
			<g>
				<path class="st17" d="M61.8,132.1c1.1-0.5,2.2-1,3.3-1.5c-0.2-0.1-0.3-0.2-0.5-0.3c0,0.3,0,0.6,0,0.9c0,0.2,0.2,0.4,0.4,0.4
					c0.8-0.2,1.8-0.2,2.5-0.7c0.4-0.2,0.1-0.7-0.3-0.6c-0.8,0.3-1.6,0.4-2.4,0.6c0.1,0.1,0.3,0.2,0.4,0.4c0-0.3,0-0.6,0-0.9
					c0-0.2-0.2-0.5-0.5-0.3c-1.1,0.5-2.2,1-3.2,1.5C61.2,131.7,61.4,132.2,61.8,132.1L61.8,132.1z"/>
			</g>
		</g>
		<g>
			<g>
				<path class="st17" d="M59.4,143.4c0.6-0.5,1.2-0.7,2-0.9c-0.1-0.1-0.3-0.2-0.4-0.3c0,0.4,0.1,0.7,0.1,1.1c0,0.2,0.3,0.3,0.5,0.2
					c1.4-0.5,2.5-1.4,3.7-2.3c-0.1-0.2-0.3-0.4-0.4-0.5c-0.3,0.3-0.5,0.6-0.8,1c-0.2,0.2,0.1,0.5,0.3,0.5c0.4-0.1,0.7-0.3,1-0.4
					c0.2-0.1,0.2-0.5-0.1-0.5c-0.4,0-0.7,0.2-1,0.3c0.1,0.2,0.2,0.4,0.3,0.5c0.3-0.3,0.5-0.6,0.8-0.9c0.3-0.3-0.1-0.8-0.4-0.5
					c-1.1,0.8-2.3,1.7-3.6,2.2c0.2,0.1,0.3,0.2,0.5,0.2c0-0.4-0.1-0.7-0.1-1.1c0-0.2-0.2-0.3-0.4-0.3c-0.9,0.2-1.6,0.5-2.2,1.1
					C58.8,143.2,59.1,143.6,59.4,143.4L59.4,143.4z"/>
			</g>
		</g>
		<g>
			<g>
				<path class="st17" d="M58.6,152.3c-0.4,0.6-0.7,1.3-0.9,2.1c-0.1,0.2,0.2,0.5,0.4,0.4c1.3-0.8,2.6-1.6,4.1-2
					c-0.1-0.2-0.2-0.3-0.3-0.5c-0.3,0.4-0.5,0.7-0.8,1.1c-0.2,0.2,0.1,0.6,0.3,0.5c1.5-0.2,2.9-0.9,4.1-1.8c0.3-0.2,0-0.6-0.3-0.5
					c-1.3,0.7-2.5,1.4-3.9,1.6c0.1,0.2,0.2,0.3,0.3,0.5c0.3-0.3,0.5-0.7,0.8-1.1c0.2-0.2-0.1-0.6-0.3-0.5c-1.6,0.4-3,1.2-4.3,2.1
					c0.2,0.1,0.3,0.2,0.5,0.3c0.2-0.7,0.4-1.3,0.8-2C59.2,152.4,58.8,152,58.6,152.3L58.6,152.3z"/>
			</g>
		</g>
		<g>
			<g>
				<path class="st17" d="M61.6,121.8c1.2-0.5,2.2-1.4,3.3-2c-0.1-0.2-0.3-0.4-0.4-0.6c-0.2,0.2-0.4,0.4-0.6,0.5
					c-0.3,0.3,0,0.8,0.4,0.6c0.7-0.4,1.4-0.6,2-1.1c-0.2-0.1-0.4-0.2-0.6-0.3c0,0.3,0,0.6-0.1,0.9c0,0.2,0.1,0.4,0.3,0.4
					c0.3,0,0.7-0.1,1-0.2c0.2-0.1,0.3-0.5,0.1-0.6c0,0,0,0,0,0c-0.4-0.2-0.8,0.3-0.4,0.6c0,0,0,0,0,0c0-0.2,0.1-0.4,0.1-0.6
					c-0.3,0.1-0.5,0.1-0.8,0.1c0.1,0.1,0.3,0.3,0.4,0.4c0-0.3,0-0.6,0-0.9c0-0.3-0.3-0.5-0.6-0.3c-0.5,0.4-1.2,0.6-1.8,1
					c0.1,0.2,0.3,0.4,0.4,0.6c0.2-0.2,0.4-0.4,0.6-0.5c0.3-0.3,0-0.8-0.4-0.6c-1.1,0.7-2.1,1.5-3.2,2.1
					C60.9,121.4,61.2,122,61.6,121.8L61.6,121.8z"/>
			</g>
		</g>
	</g>
	<g>
		<path class="st15" d="M40.9,184.2l-1.6-17.9l-3.5,1.2c0,0.7,0.5,11.7,0.7,16.6C38,184.1,39.5,184.2,40.9,184.2z"/>
		<polygon class="st17" points="49.1,95.1 49.1,95.1 49.1,95.1 		"/>
		<path class="st17" d="M49.2,95.2c0,0-0.1-0.1-0.1-0.1h0C49.1,95.1,49.1,95.1,49.2,95.2z"/>
		<path class="st17" d="M49.1,95.1C49.1,95.1,49.1,95.1,49.1,95.1C49.1,95.1,49.1,95.1,49.1,95.1z"/>
		<path class="st18" d="M65.5,168.9c0.2-0.1-6.5-4.6-7-4.9c-3.6-2.2-6.9-4.2-8.8-8.1c1.2,0.8,2.8,1.6,4.1,2.1
			c-0.5-0.8-0.7-2-1.5-2.8c0.7,0.6,1.7,0.9,2.4,1.3c-0.4-0.7-0.6-1.6-1.1-2.4c1.7,1.4,7.2,3.5,3.9,0c1.4,1.6,4.1,2.4,5.4,0.4
			c-1.8,3-14.4-12.8-15-15.4c1,0.7,2.4,1.2,3.4,1.9c-0.4-0.6-0.8-1.6-1.3-2.2c1.1,1,2.4,1.4,3.4,1.9c-0.4-0.6-0.7-1.5-1.1-2.1
			c1.9,1.5,4.6,1.5,6.3-0.2c-4.7,4.5-13.4-15-13.7-17.5c0.4,0.8,1,1.6,1.6,2.2c0.3-0.1,0.7-0.2,1.1-0.2c-0.1-0.7-0.3-1.5-0.8-2.1
			c0.8,1,1.7,1,2.6,1.5c0-0.5,0.1-1.1,0.1-1.7c1.5,0.8,3.2,0.7,4.4-0.6c-8.6-4-9.9-13.5-11.4-21.6c0.4,1.3,1.1,2.1,2.4,1.7
			c-0.1-0.5,0-1.4-0.1-2c2.6,2.5,4.7-0.7,3.3-1.2c1.1,0.4,2.1,0.3,3,0.5c-0.6-0.7-1.5-1.6-2.3-2.1c0.1,0,0.1,0,0.1,0c0,0,0,0,0,0
			c-9.6-6.7-7.9-18.6-9.5-29.3c-1.2,34.9-2.3,69.9-1.9,104.8c0.3-0.3,0.6-0.7,0.9-1.1c0.9,1.7,1.6,1.8,3.2,1.7
			c-0.1-0.4-0.1-1.6-0.2-1.8c0.7,2,2.6,3.1,4.4,2.4c-0.3-0.8-0.4-2.1-0.9-2.9c1.6,1.7,6.2,4,4.8-0.5c1.4,2,6,3.2,4-0.4
			c0.1,0,0.1,0.1,0.2,0.1c1.9,2.5,6,2.5,3.6-1c0.9,1.1,2.1,1.2,3.2,1.7c0.2-0.1-0.1-0.6,0.1-0.7C62.4,169,64.1,169.3,65.5,168.9z"/>
		<path class="st17" d="M32.8,97.5c0,0-0.1,0.1-0.1,0.2C32.7,97.6,32.8,97.5,32.8,97.5C32.9,97.3,32.9,97.3,32.8,97.5z"/>
		<path class="st20" d="M39.6,65.8c0-0.1,0-0.3-0.1-0.4c0,8.7-2.1,30.2-13.6,31.6c1.1,1.7,3.2,0.3,4.8-1c-0.6,1-0.7,2.6-1.1,3.6
			c0.1,0.1,0.1,0.1,0.2,0.2c1-0.6,2.1-1,2.9-2.1c0-0.1,0.1-0.1,0.1-0.2c0.1-0.1,0.1-0.1,0,0c0,0.1-0.1,0.1-0.1,0.2
			c-0.1,0.1-0.1,0.3,0,0.4c0.3-0.3,0.9-0.9,1.3-1.1c-2.4,7.1-2.9,19.9-11.5,22.7c0,0,0,0.7,0,0.7c1.1-0.3,2.9-0.3,4-0.9
			c-0.4,1-0.2,2.5-0.5,3.4c0.9-0.7,2.5-1.6,3.4-2.5c-0.1,0.8,0.2,1.9,0.1,2.7c0.7-0.7,1.9-1.3,2.5-2.4c-3.8,7.7-8.2,14.6-16.2,18.3
			c1,2.7,4.4,0.3,6.1-0.8c-0.5,0.9-0.5,2.1-0.9,3c0.5-0.5,2.1-1,2.6-1.5c-0.1,0.6,0,1.3-0.1,1.9c0.8-0.7,2.1-1.3,2.8-2.3
			c-0.3,4.3-4.6,9.3-7.8,11.9c-2.2,1.8-5.6,2.1-7.2,3.9c1.6,1.2,4,0.9,6,0.2c-0.9,1.2-0.8,2.4-1.1,3.8c1.4-0.7,2.6-2,3.8-3
			c-0.2,0.7-0.3,1.6-0.5,2.3c0.5-0.5,1.6-1.2,2.1-1.7c-2.1,7.1-7.8,8.2-12.3,12.3c1.9,2.3,5.3,0.8,7.7-0.3c-0.5,4.3,2.6,2.9,4.4,0.7
			c0.1,0.7,0.5,1.3,0.6,1.9c2.5-1,6.4-2.2,9-2.6c0.1,0.1,0.1,0.1,0.2,0.2c-0.3,0.8-0.3,2.2-0.7,3c1-0.8,2.7-1.3,3.8-1.9
			c0.7,2.3,2.2,1.9,3.5,0.7c-0.2-16.2,1.2-32.3,1.5-48.5C39.6,103.4,39,84.6,39.6,65.8z"/>
	</g>
</g>
<g id="Layer_8">
	<g>
		<path class="st21" d="M70.1,198.3c0.2-2.9,0.6-6,0.9-8.8c-1.3,2.5-1.8,5.8-2,8.7c-0.9-2.3-0.9-4.9-1.4-7.3c-0.2,2.6-0.2,5.3-0.4,8
			c-1-2.1-0.9-4.2-1.6-6.3c-0.2,1.9-0.4,4.6-1.6,6c-0.1-1.9,0.4-3.9,1-5.7c-0.7,1.8-1.4,3.9-2.4,5.6c0.9-2.9,1.1-7.2,3.3-9.5
			c-3.4,3.4-3.6,6.9-5.7,10.8c0.4-3.6,1.4-7.1,1.7-10.7c-1.5,3-2.7,6.4-3.1,9.7c0-3.7,0.2-7.4-0.1-11.1c-2.3,2.7-0.9,7.6-2,9.9
			c-0.6-2.1-0.4-4.5-0.3-6.8c-0.9,2.3-0.6,5.3-1.3,7.4c-0.1-2-0.1-4-0.1-6c-1,2-1.2,4.5-2.4,6.3c0.1-2.8,1.2-6.5,2.7-8.8
			c-3.1,1.6-2.9,5.9-4.7,8.5c0.3-3,0.8-6.6,2.1-9.3c-1.4,3.2-3.5,5.7-4.1,9.4c0-3.8,0.6-7.5,1-11.1c-1.7,2.2-2.3,7.2-2,10.1
			c-1.3-3.2-1.7-7.3-2.1-10.7c-0.9,3.1-0.2,6.8-0.7,10c0.2-2.5-0.7-4.4-0.8-6.7c-1.2,2.1-0.5,5-1.3,7.4c-0.6-1.6-0.5-4-0.2-5.7
			c-0.8,1.8-1.6,3.8-2.3,5.8c-0.2-2,0.3-4.8,1.1-7c-1,2.3-2.2,4.6-3.2,6.7c0.6-3.1,0.5-6.4,0.9-9.5c-2.1,3.2-1.1,6.6-2.2,9.8
			c-1.1-2.3-1.2-4.9-1.7-7.4c0.4,2.4,0.3,5.6,0,7.7c-0.5-2.3-1-4.5-1.9-6.8c0.4,2.2,0.5,5.3-0.2,7.5c-0.5-1.7-0.5-3.9-0.1-5.7
			c-0.8,1.4-1,3.4-1.7,5c0.1-2.7,0-5.1,1.1-7.7c-1.9,2.1-2.4,5.2-3.4,7.7c0-2.9-0.3-7.4,1-10c-2,2.4-2.5,6.3-2.4,9.3
			c-0.6-2.5-1.3-5.2-1.4-7.8c-0.8,1.6,0,5.6,0,8.1c-0.8-2.5-2.1-5.4-2.6-8.2c0.3,2.8,0.5,5.7,0.5,8.5c-1.1-1.7-1.3-4-1.4-5.9
			c-0.6,2-0.9,4.4-2,6c-0.1-2.2,0.4-4.5,0.6-6.7c-1.2,1.6-2.3,4.8-2.7,6.1c-0.1-2.7,0.8-6.1,1.9-8.6c-1.7,2.5-3.1,5.3-3.6,8.4
			c0-3.3-0.5-7,0.4-10.2c-1.4,2.5-2.4,7.7-2.1,11.2c-0.2-3.3-1.6-6.6-1.7-10c0,3.6,0,7.2,0.3,10.7c-0.7-2.4-1.7-4.8-2.5-7.2
			c0.3,2.5,0.1,5.4,0.1,7.5c-1.2-2.1-1.5-4.9-1.5-7.4c-0.9,1.6-0.9,4.4-1.9,6.1c-0.2-1.9,0.3-3.8,0.2-5.7c-0.9,1.7-1.3,3.7-2,5.6
			c0.6-3.8,0.9-8,2.6-11.6c-2.5,4.4-3.3,7.9-4.4,12.7c-1.2-2.5-1.6-6.5-1.6-9.6c-1.3,2.2-0.9,6.8-0.8,9.9c-0.6-1.5-1.3-3.3-2-5V204
			h72.5c0.9-4.5,0.3-9.7,1.5-14.5C72.5,192,71.8,196.2,70.1,198.3z"/>
		<path class="st21" d="M72.8,197.6l-1.7,6.4H146c0.9-4.5,0.3-9.7,1.5-14.5c-1.9,2.6-2.5,6.7-4.2,8.8c0.2-2.9,0.6-6,0.9-8.8
			c-1.3,2.5-1.8,5.8-2,8.7c-0.9-2.3-0.9-4.9-1.4-7.3c-0.2,2.6-0.2,5.3-0.4,8c-1-2.1-0.9-4.2-1.6-6.3c-0.2,1.9-0.4,4.6-1.6,6
			c-0.1-1.9,0.4-3.9,1-5.7c-0.7,1.8-1.4,3.9-2.4,5.6c0.9-2.9,1.1-7.2,3.3-9.5c-3.4,3.4-3.6,6.9-5.7,10.8c0.4-3.6,1.4-7.1,1.7-10.7
			c-1.5,3-2.7,6.4-3.1,9.7c0-3.7,0.2-7.4-0.1-11.1c-2.3,2.7-0.9,7.6-2,9.9c-0.6-2.1-0.4-4.5-0.3-6.8c-0.9,2.3-0.6,5.3-1.3,7.4
			c-0.1-2-0.1-4-0.1-6c-1,2-1.2,4.5-2.4,6.3c0.1-2.8,1.2-6.5,2.7-8.8c-3.1,1.6-2.9,5.9-4.7,8.5c0.3-3,0.8-6.6,2.1-9.3
			c-1.4,3.2-3.5,5.7-4.1,9.4c0-3.8,0.6-7.5,1-11.1c-1.7,2.2-2.3,7.2-2,10.1c-1.3-3.2-1.7-7.3-2.1-10.7c-0.9,3.1-0.2,6.8-0.7,10
			c0.2-2.5-0.7-4.4-0.8-6.7c-1.2,2.1-0.5,5-1.3,7.4c-0.6-1.6-0.5-4-0.2-5.7c-0.8,1.8-1.6,3.8-2.3,5.8c-0.2-2,0.3-4.8,1.1-7
			c-1,2.3-2.2,4.6-3.2,6.7c0.6-3.1,0.5-6.4,0.9-9.5c-2.1,3.2-1.1,6.6-2.2,9.8c-1.1-2.3-1.2-4.9-1.7-7.4c0.4,2.4,0.3,5.6,0,7.7
			c-0.5-2.3-1-4.5-1.9-6.8c0.4,2.2,0.5,5.3-0.2,7.5c-0.5-1.7-0.5-3.9-0.1-5.7c-0.8,1.4-1,3.4-1.7,5c0.1-2.7,0-5.1,1.1-7.7
			c-1.9,2.1-2.4,5.2-3.4,7.7c0-2.9-0.3-7.4,1-10c-2,2.4-2.5,6.3-2.4,9.3c-0.6-2.5-1.3-5.2-1.4-7.8c-0.8,1.6,0,5.6,0,8.1
			c-0.8-2.5-2.1-5.4-2.6-8.2c0.3,2.8,0.5,5.7,0.5,8.5c-1.1-1.7-1.3-4-1.4-5.9c-0.6,2-0.9,4.4-2,6c-0.1-2.2,0.4-4.5,0.6-6.7
			c-1.2,1.6-2.3,4.8-2.7,6.1c-0.1-2.7,0.8-6.1,1.9-8.6c-1.7,2.5-3.1,5.3-3.6,8.4c0-3.3-0.5-7,0.4-10.2c-1.4,2.5-2.4,7.7-2.1,11.2
			c-0.2-3.3-1.6-6.6-1.7-10c0,3.6,0,7.2,0.3,10.7c-0.7-2.4-1.7-4.8-2.5-7.2c0.3,2.5,0.1,5.4,0.1,7.5c-1.2-2.1-1.5-4.9-1.5-7.4
			c-0.9,1.6-0.9,4.4-1.9,6.1c-0.2-1.9,0.3-3.8,0.2-5.7c-0.9,1.7-1.3,3.7-2,5.6c0.6-3.8,0.9-8,2.6-11.6c-2.5,4.4-3.3,7.9-4.4,12.7
			c-1.2-2.5-1.6-6.5-1.6-9.6c-1.3,2.2-0.9,6.8-0.8,9.9c-1.1-2.9-2.6-6.9-4.1-8.8C72.2,192.2,73,195.9,72.8,197.6z"/>
		<path class="st21" d="M145.9,197.6l-1.7,6.4h74.9c0.9-4.5,0.3-9.7,1.5-14.5c-1.9,2.6-2.5,6.7-4.2,8.8c0.2-2.9,0.6-6,0.9-8.8
			c-1.3,2.5-1.8,5.8-2,8.7c-0.9-2.3-0.9-4.9-1.4-7.3c-0.2,2.6-0.2,5.3-0.4,8c-1-2.1-0.9-4.2-1.6-6.3c-0.2,1.9-0.4,4.6-1.6,6
			c-0.1-1.9,0.4-3.9,1-5.7c-0.7,1.8-1.4,3.9-2.4,5.6c0.9-2.9,1.1-7.2,3.3-9.5c-3.4,3.4-3.6,6.9-5.7,10.8c0.4-3.6,1.4-7.1,1.7-10.7
			c-1.5,3-2.7,6.4-3.1,9.7c0-3.7,0.2-7.4-0.1-11.1c-2.3,2.7-0.9,7.6-2,9.9c-0.6-2.1-0.4-4.5-0.3-6.8c-0.9,2.3-0.6,5.3-1.3,7.4
			c-0.1-2-0.1-4-0.1-6c-1,2-1.2,4.5-2.4,6.3c0.1-2.8,1.2-6.5,2.7-8.8c-3.1,1.6-2.9,5.9-4.7,8.5c0.3-3,0.8-6.6,2.1-9.3
			c-1.4,3.2-3.5,5.7-4.1,9.4c0-3.8,0.6-7.5,1-11.1c-1.7,2.2-2.3,7.2-2,10.1c-1.3-3.2-1.7-7.3-2.1-10.7c-0.9,3.1-0.2,6.8-0.7,10
			c0.2-2.5-0.7-4.4-0.8-6.7c-1.2,2.1-0.5,5-1.3,7.4c-0.6-1.6-0.5-4-0.2-5.7c-0.8,1.8-1.6,3.8-2.3,5.8c-0.2-2,0.3-4.8,1.1-7
			c-1,2.3-2.2,4.6-3.2,6.7c0.6-3.1,0.5-6.4,0.9-9.5c-2.1,3.2-1.1,6.6-2.2,9.8c-1.1-2.3-1.2-4.9-1.7-7.4c0.4,2.4,0.3,5.6,0,7.7
			c-0.5-2.3-1-4.5-1.9-6.8c0.4,2.2,0.5,5.3-0.2,7.5c-0.5-1.7-0.5-3.9,0-5.7c-0.8,1.4-1,3.4-1.7,5c0.1-2.7,0-5.1,1.1-7.7
			c-1.9,2.1-2.4,5.2-3.4,7.7c0-2.9-0.3-7.4,1-10c-2,2.4-2.5,6.3-2.4,9.3c-0.6-2.5-1.3-5.2-1.4-7.8c-0.8,1.6,0,5.6,0,8.1
			c-0.8-2.5-2.1-5.4-2.6-8.2c0.3,2.8,0.5,5.7,0.5,8.5c-1.1-1.7-1.3-4-1.4-5.9c-0.6,2-0.9,4.4-2,6c-0.1-2.2,0.4-4.5,0.6-6.7
			c-1.2,1.6-2.3,4.8-2.7,6.1c-0.1-2.7,0.8-6.1,1.9-8.6c-1.7,2.5-3.1,5.3-3.6,8.4c0-3.3-0.5-7,0.4-10.2c-1.4,2.5-2.4,7.7-2.1,11.2
			c-0.2-3.3-1.6-6.6-1.7-10c0,3.6,0,7.2,0.4,10.7c-0.7-2.4-1.7-4.8-2.5-7.2c0.3,2.5,0.1,5.4,0.1,7.5c-1.2-2.1-1.5-4.9-1.5-7.4
			c-0.9,1.6-0.9,4.4-1.9,6.1c-0.2-1.9,0.3-3.8,0.2-5.7c-0.9,1.7-1.3,3.7-2,5.6c0.6-3.8,0.9-8,2.6-11.6c-2.5,4.4-3.3,7.9-4.4,12.7
			c-1.2-2.5-1.6-6.5-1.6-9.6c-1.3,2.2-0.9,6.8-0.8,9.9c-1.1-2.9-2.6-6.9-4.1-8.8C145.3,192.2,146.1,195.9,145.9,197.6z"/>
		<path class="st21" d="M219,197.6l-1.7,6.4h74.9c0.9-4.5,0.3-9.7,1.5-14.5c-1.9,2.6-2.5,6.7-4.2,8.8c0.2-2.9,0.6-6,0.9-8.8
			c-1.3,2.5-1.8,5.8-2,8.7c-0.9-2.3-0.9-4.9-1.4-7.3c-0.2,2.6-0.2,5.3-0.4,8c-1-2.1-0.9-4.2-1.6-6.3c-0.2,1.9-0.4,4.6-1.6,6
			c-0.1-1.9,0.4-3.9,1-5.7c-0.7,1.8-1.4,3.9-2.4,5.6c0.9-2.9,1.1-7.2,3.3-9.5c-3.4,3.4-3.6,6.9-5.7,10.8c0.3-3.6,1.4-7.1,1.7-10.7
			c-1.5,3-2.7,6.4-3.1,9.7c0-3.7,0.2-7.4-0.1-11.1c-2.3,2.7-0.9,7.6-2,9.9c-0.6-2.1-0.4-4.5-0.3-6.8c-0.9,2.3-0.6,5.3-1.3,7.4
			c-0.1-2-0.1-4-0.1-6c-1,2-1.2,4.5-2.4,6.3c0.1-2.8,1.2-6.5,2.7-8.8c-3.1,1.6-2.9,5.9-4.7,8.5c0.3-3,0.8-6.6,2.1-9.3
			c-1.4,3.2-3.5,5.7-4.1,9.4c0-3.8,0.6-7.5,1-11.1c-1.7,2.2-2.3,7.2-2,10.1c-1.3-3.2-1.7-7.3-2.1-10.7c-0.9,3.1-0.2,6.8-0.7,10
			c0.2-2.5-0.7-4.4-0.8-6.7c-1.2,2.1-0.5,5-1.3,7.4c-0.6-1.6-0.5-4-0.2-5.7c-0.8,1.8-1.6,3.8-2.3,5.8c-0.2-2,0.3-4.8,1.1-7
			c-1,2.3-2.2,4.6-3.2,6.7c0.6-3.1,0.5-6.4,0.9-9.5c-2.1,3.2-1.1,6.6-2.2,9.8c-1.1-2.3-1.2-4.9-1.7-7.4c0.4,2.4,0.3,5.6,0,7.7
			c-0.5-2.3-1-4.5-1.9-6.8c0.4,2.2,0.5,5.3-0.2,7.5c-0.5-1.7-0.5-3.9,0-5.7c-0.8,1.4-1,3.4-1.7,5c0.1-2.7,0-5.1,1.1-7.7
			c-1.9,2.1-2.4,5.2-3.4,7.7c0-2.9-0.3-7.4,1-10c-2,2.4-2.5,6.3-2.4,9.3c-0.6-2.5-1.3-5.2-1.4-7.8c-0.8,1.6,0,5.6,0,8.1
			c-0.8-2.5-2.1-5.4-2.6-8.2c0.3,2.8,0.5,5.7,0.5,8.5c-1.1-1.7-1.3-4-1.4-5.9c-0.6,2-0.9,4.4-2,6c-0.1-2.2,0.4-4.5,0.6-6.7
			c-1.2,1.6-2.3,4.8-2.7,6.1c-0.1-2.7,0.8-6.1,1.9-8.6c-1.7,2.5-3.1,5.3-3.6,8.4c0-3.3-0.4-7,0.4-10.2c-1.4,2.5-2.4,7.7-2.1,11.2
			c-0.2-3.3-1.6-6.6-1.7-10c0,3.6,0,7.2,0.3,10.7c-0.7-2.4-1.7-4.8-2.5-7.2c0.3,2.5,0.1,5.4,0.1,7.5c-1.2-2.1-1.5-4.9-1.5-7.4
			c-0.9,1.6-0.9,4.4-1.9,6.1c-0.2-1.9,0.3-3.8,0.2-5.7c-0.9,1.7-1.3,3.7-2,5.6c0.6-3.8,0.9-8,2.6-11.6c-2.5,4.4-3.3,7.9-4.4,12.7
			c-1.2-2.5-1.6-6.5-1.6-9.6c-1.3,2.2-0.9,6.8-0.8,9.9c-1.1-2.9-2.6-6.9-4.1-8.8C218.4,192.2,219.2,195.9,219,197.6z"/>
		<path class="st21" d="M290.4,204h72.9v-6.9c-0.2,0.5-0.5,0.9-0.8,1.2c0.2-2.5,0.5-5.2,0.8-7.7v-0.8c-1.2,2.5-1.7,5.7-1.8,8.4
			c-0.9-2.3-0.9-4.9-1.4-7.3c-0.2,2.6-0.2,5.3-0.4,8c-1-2.1-0.9-4.2-1.6-6.3c-0.2,1.9-0.4,4.6-1.6,6c-0.1-1.9,0.4-3.9,1-5.7
			c-0.7,1.8-1.4,3.9-2.4,5.6c0.9-2.9,1.1-7.2,3.3-9.5c-3.4,3.4-3.6,6.9-5.7,10.8c0.3-3.6,1.4-7.1,1.7-10.7c-1.5,3-2.7,6.4-3.1,9.7
			c0-3.7,0.2-7.4-0.1-11.1c-2.3,2.7-0.9,7.6-2,9.9c-0.6-2.1-0.4-4.5-0.3-6.8c-0.9,2.3-0.6,5.3-1.3,7.4c-0.1-2-0.1-4-0.1-6
			c-1,2-1.2,4.5-2.4,6.3c0.1-2.8,1.2-6.5,2.7-8.8c-3.1,1.6-2.9,5.9-4.7,8.5c0.3-3,0.8-6.6,2.1-9.3c-1.4,3.2-3.5,5.7-4.1,9.4
			c0-3.8,0.6-7.5,1-11.1c-1.7,2.2-2.3,7.2-2,10.1c-1.3-3.2-1.7-7.3-2.1-10.7c-0.9,3.1-0.2,6.8-0.7,10c0.2-2.5-0.7-4.4-0.8-6.7
			c-1.2,2.1-0.5,5-1.3,7.4c-0.6-1.6-0.5-4-0.2-5.7c-0.8,1.8-1.6,3.8-2.3,5.8c-0.2-2,0.3-4.8,1.1-7c-1,2.3-2.2,4.6-3.2,6.7
			c0.6-3.1,0.5-6.4,0.9-9.5c-2.1,3.2-1.1,6.6-2.2,9.8c-1.1-2.3-1.2-4.9-1.7-7.4c0.4,2.4,0.3,5.6,0,7.7c-0.5-2.3-1-4.5-1.9-6.8
			c0.4,2.2,0.5,5.3-0.2,7.5c-0.5-1.7-0.5-3.9,0-5.7c-0.8,1.4-1,3.4-1.7,5c0.1-2.7,0-5.1,1.1-7.7c-1.9,2.1-2.4,5.2-3.4,7.7
			c0-2.9-0.3-7.4,1-10c-2,2.4-2.5,6.3-2.4,9.3c-0.6-2.5-1.3-5.2-1.4-7.8c-0.8,1.6,0,5.6,0,8.1c-0.8-2.5-2.1-5.4-2.6-8.2
			c0.3,2.8,0.5,5.7,0.5,8.5c-1.1-1.7-1.3-4-1.4-5.9c-0.6,2-0.9,4.4-2,6c-0.1-2.2,0.4-4.5,0.6-6.7c-1.2,1.6-2.3,4.8-2.7,6.1
			c-0.1-2.7,0.8-6.1,1.9-8.6c-1.7,2.5-3.1,5.3-3.6,8.4c0-3.3-0.4-7,0.4-10.2c-1.4,2.5-2.4,7.7-2.1,11.2c-0.2-3.3-1.6-6.6-1.7-10
			c0,3.6,0,7.2,0.3,10.7c-0.7-2.4-1.7-4.8-2.5-7.2c0.3,2.5,0.1,5.4,0.1,7.5c-1.2-2.1-1.5-4.9-1.5-7.4c-0.9,1.6-0.9,4.4-1.9,6.1
			c-0.2-1.9,0.3-3.8,0.2-5.7c-0.9,1.7-1.3,3.7-2,5.6c0.6-3.8,0.9-8,2.6-11.6c-2.5,4.4-3.3,7.9-4.4,12.7c-1.2-2.5-1.6-6.5-1.6-9.6
			c-1.3,2.2-0.9,6.8-0.8,9.9c-1.1-2.9-2.6-6.9-4.1-8.8c0.9,2.1,1.7,5.8,1.5,7.6L290.4,204z"/>
	</g>
	<g>
		<path class="st21" d="M14,197.9c-0.4-0.5-1.2-0.6-1.8-0.6c1-0.2,2.2-1,1.7-1.9c-0.4-0.7-1.5-1.1-2.4-0.8c-0.8,0.3-1.3,0.9-1.5,1.6
			c0,0,0,0,0,0c0.1-0.4-0.2-1.1-0.5-1.3c-0.5-0.5-1.8-0.5-2.3,0c-0.5,0.4-0.7,1.2-0.2,1.7c0.3,0.2,0.6,0.4,1.1,0.6
			c-0.3,0-0.6,0-0.9,0.1c-0.7,0.2-1.3,0.7-1.3,1.3c0,0.1,0,0.2,0,0.2c0.1,0.7,1,1,1.8,0.9c0.5-0.1,1.3-0.3,1.5-0.7c0,0,0,0,0,0
			c-0.1,0.3-0.4,0.6-0.5,0.9c0,0.4,0.2,0.8,0.5,1.1c0.5,0.4,1.3,0.5,1.9,0.2c0.7-0.4,0.6-1.3,0.3-2c0.2,0.3,0.4,0.5,0.8,0.6
			c0.7,0.3,1.3,0.2,1.8-0.3C14.4,199.1,14.4,198.4,14,197.9z"/>
		<g>
			<path class="st22" d="M6,198.1c0.1,0.7,1,1,1.8,0.9c0.5-0.1,1.4-0.3,1.5-0.8c-0.1,0.4-0.5,0.6-0.5,1c0,0.4,0.2,0.8,0.5,1.1
				c0.5,0.4,1.3,0.5,1.9,0.2c0.8-0.5,0.6-1.7,0.1-2.3c0.2,0.4,0.5,0.7,1,0.9c0.7,0.3,1.3,0.2,1.8-0.3c0.5-0.4,0.5-1.1,0-1.6
				c-0.4-0.5-1.2-0.6-1.8-0.6c1-0.2,2.2-1,1.7-1.9c-0.4-0.7-1.5-1.1-2.4-0.8c-0.8,0.3-1.4,1-1.6,1.7c0.2-0.4-0.1-1.1-0.5-1.4
				c-0.5-0.5-1.8-0.5-2.3,0c-0.5,0.4-0.7,1.2-0.2,1.7c0.4,0.4,1.2,0.7,1.8,0.6c-0.2,0-0.4,0-0.6-0.1c-0.4,0-0.7,0-1.1,0.1
				c-0.7,0.2-1.3,0.7-1.3,1.3C6,198,6,198.1,6,198.1z"/>
			<path class="st23" d="M10.5,195.6c-0.9,0-1.8,0.3-2.1,1.1c-0.4,1,0.7,1.8,1.9,1.9c0.9,0.1,1.8-0.2,2.2-1c0.2-0.4,0.1-0.8-0.1-1.2
				c-0.4-0.6-1-0.7-1.7-0.9"/>
			<path class="st24" d="M10.5,195.6c-0.8,0-1.7,0.3-2,1c-0.4,1,0.7,1.6,1.7,1.7c0.9,0.1,1.7-0.2,2-0.9c0.2-0.4,0.1-0.7-0.1-1.1
				c-0.3-0.5-0.9-0.7-1.5-0.8"/>
			<path class="st25" d="M10,197.6c-0.8-0.5-0.5-1.3,0.1-1.8c-0.6,0.1-1.1,0.3-1.3,0.9c-0.3,0.8,0.6,1.4,1.5,1.5
				c0.6,0.1,1.1-0.1,1.5-0.4C11.2,198,10.5,198,10,197.6z"/>
		</g>
	</g>
	<g>
		<path class="st21" d="M112.5,196.2c-0.4-0.5-1.2-0.6-1.8-0.6c1-0.2,2.2-1,1.7-1.9c-0.4-0.7-1.5-1.1-2.4-0.8
			c-0.8,0.3-1.3,0.9-1.5,1.6c0,0,0,0,0,0c0.1-0.4-0.2-1.1-0.5-1.3c-0.5-0.5-1.8-0.5-2.3,0c-0.5,0.4-0.7,1.2-0.2,1.7
			c0.3,0.2,0.6,0.4,1.1,0.6c-0.3,0-0.6,0-0.9,0.1c-0.7,0.2-1.3,0.7-1.3,1.3c0,0.1,0,0.2,0,0.2c0.1,0.7,1,1,1.8,0.9
			c0.5-0.1,1.3-0.3,1.5-0.7c0,0,0,0,0,0c-0.1,0.3-0.4,0.6-0.5,0.9c0,0.4,0.2,0.8,0.5,1.1c0.5,0.4,1.3,0.5,1.9,0.2
			c0.7-0.4,0.6-1.3,0.3-2c0.2,0.3,0.4,0.5,0.8,0.6c0.7,0.3,1.3,0.2,1.8-0.3C112.9,197.3,112.9,196.6,112.5,196.2z"/>
		<g>
			<path class="st22" d="M104.5,196.4c0.1,0.7,1,1,1.8,0.9c0.5-0.1,1.4-0.3,1.5-0.8c-0.1,0.4-0.5,0.6-0.5,1c0,0.4,0.2,0.8,0.5,1.1
				c0.5,0.4,1.3,0.5,1.9,0.2c0.8-0.5,0.6-1.7,0.1-2.3c0.2,0.4,0.5,0.7,1,0.9c0.7,0.3,1.3,0.2,1.8-0.3c0.5-0.4,0.5-1.1,0-1.6
				c-0.4-0.5-1.2-0.6-1.8-0.6c1-0.2,2.2-1,1.7-1.9c-0.4-0.7-1.5-1.1-2.4-0.8c-0.8,0.3-1.4,1-1.6,1.7c0.2-0.4-0.1-1.1-0.5-1.4
				c-0.5-0.5-1.8-0.5-2.3,0c-0.5,0.4-0.7,1.2-0.2,1.7c0.4,0.4,1.2,0.7,1.8,0.6c-0.2,0-0.4,0-0.6-0.1c-0.4,0-0.7,0-1.1,0.1
				c-0.7,0.2-1.3,0.7-1.3,1.3C104.5,196.2,104.5,196.3,104.5,196.4z"/>
			<path class="st23" d="M109,193.8c-0.9,0-1.8,0.3-2.1,1.1c-0.4,1,0.7,1.8,1.9,1.9c0.9,0.1,1.8-0.2,2.2-1c0.2-0.4,0.1-0.8-0.1-1.2
				c-0.4-0.6-1-0.7-1.7-0.9"/>
			<path class="st24" d="M109,193.9c-0.8,0-1.7,0.3-2,1c-0.4,1,0.7,1.6,1.7,1.7c0.9,0.1,1.7-0.2,2-0.9c0.2-0.4,0.1-0.7-0.1-1.1
				c-0.3-0.5-0.9-0.7-1.5-0.8"/>
			<path class="st25" d="M108.5,195.9c-0.8-0.5-0.5-1.3,0.1-1.8c-0.6,0.1-1.1,0.3-1.3,0.9c-0.3,0.8,0.6,1.4,1.5,1.5
				c0.6,0.1,1.1-0.1,1.5-0.4C109.7,196.2,109,196.2,108.5,195.9z"/>
		</g>
	</g>
	<g>
		<path class="st21" d="M215.7,198.2c-0.4-0.5-1.2-0.6-1.8-0.6c1-0.2,2.2-1,1.7-1.9c-0.4-0.7-1.5-1.1-2.4-0.8
			c-0.8,0.3-1.3,0.9-1.5,1.6c0,0,0,0,0,0c0.1-0.4-0.2-1.1-0.5-1.3c-0.5-0.5-1.8-0.5-2.3,0c-0.5,0.4-0.7,1.2-0.2,1.7
			c0.3,0.2,0.6,0.4,1.1,0.6c-0.3,0-0.6,0-0.9,0.1c-0.7,0.2-1.3,0.7-1.3,1.3c0,0.1,0,0.2,0,0.2c0.1,0.7,1,1,1.8,0.9
			c0.5-0.1,1.3-0.3,1.5-0.7c0,0,0,0,0,0c-0.1,0.3-0.4,0.6-0.5,0.9c0,0.4,0.2,0.8,0.5,1.1c0.5,0.4,1.3,0.5,1.9,0.2
			c0.7-0.4,0.6-1.3,0.3-2c0.2,0.3,0.4,0.5,0.8,0.6c0.7,0.3,1.3,0.2,1.8-0.3C216.2,199.3,216.2,198.6,215.7,198.2z"/>
		<g>
			<path class="st22" d="M207.8,198.4c0.1,0.7,1,1,1.8,0.9c0.5-0.1,1.4-0.3,1.5-0.8c-0.1,0.4-0.5,0.6-0.5,1c0,0.4,0.2,0.8,0.5,1.1
				c0.5,0.4,1.3,0.5,1.9,0.2c0.8-0.5,0.6-1.7,0.1-2.3c0.2,0.4,0.5,0.7,1,0.9c0.7,0.3,1.3,0.2,1.8-0.3c0.5-0.4,0.5-1.1,0-1.6
				c-0.4-0.5-1.2-0.6-1.8-0.6c1-0.2,2.2-1,1.7-1.9c-0.4-0.7-1.5-1.1-2.4-0.8c-0.8,0.3-1.4,1-1.6,1.7c0.2-0.4-0.1-1.1-0.5-1.4
				c-0.5-0.5-1.8-0.5-2.3,0c-0.5,0.4-0.7,1.2-0.2,1.7c0.4,0.4,1.2,0.7,1.8,0.6c-0.2,0-0.4,0-0.6-0.1c-0.4,0-0.7,0-1.1,0.1
				c-0.7,0.2-1.3,0.7-1.3,1.3C207.7,198.2,207.8,198.3,207.8,198.4z"/>
			<path class="st23" d="M212.2,195.8c-0.9,0-1.8,0.3-2.1,1.1c-0.4,1,0.7,1.8,1.9,1.9c0.9,0.1,1.8-0.2,2.2-1
				c0.2-0.4,0.1-0.8-0.1-1.2c-0.4-0.6-1-0.7-1.7-0.9"/>
			<path class="st24" d="M212.2,195.9c-0.8,0-1.7,0.3-2,1c-0.4,1,0.7,1.6,1.7,1.7c0.9,0.1,1.7-0.2,2-0.9c0.2-0.4,0.1-0.7-0.1-1.1
				c-0.3-0.5-0.9-0.7-1.5-0.8"/>
			<path class="st25" d="M211.8,197.9c-0.8-0.5-0.5-1.3,0.1-1.8c-0.6,0.1-1.1,0.3-1.3,0.9c-0.3,0.8,0.6,1.4,1.5,1.5
				c0.6,0.1,1.1-0.1,1.5-0.4C213,198.2,212.3,198.2,211.8,197.9z"/>
		</g>
	</g>
	<g>
		<path class="st21" d="M270.7,194.9c-0.4-0.5-1.2-0.6-1.8-0.6c1-0.2,2.2-1,1.7-1.9c-0.4-0.7-1.5-1.1-2.4-0.8
			c-0.8,0.3-1.3,0.9-1.5,1.6c0,0,0,0,0,0c0.1-0.4-0.2-1.1-0.5-1.3c-0.5-0.5-1.8-0.5-2.3,0c-0.5,0.4-0.7,1.2-0.2,1.7
			c0.3,0.2,0.6,0.4,1.1,0.6c-0.3,0-0.6,0-0.9,0.1c-0.7,0.2-1.3,0.7-1.3,1.3c0,0.1,0,0.2,0,0.2c0.1,0.7,1,1,1.8,0.9
			c0.5-0.1,1.3-0.3,1.5-0.7c0,0,0,0,0,0c-0.1,0.3-0.4,0.6-0.5,0.9c0,0.4,0.2,0.8,0.5,1.1c0.5,0.4,1.3,0.5,1.9,0.2
			c0.7-0.4,0.6-1.3,0.3-2c0.2,0.3,0.4,0.5,0.8,0.6c0.7,0.3,1.3,0.2,1.8-0.3C271.2,196.1,271.2,195.4,270.7,194.9z"/>
		<g>
			<path class="st22" d="M262.8,195.1c0.1,0.7,1,1,1.8,0.9c0.5-0.1,1.4-0.3,1.5-0.8c-0.1,0.4-0.5,0.6-0.5,1c0,0.4,0.2,0.8,0.5,1.1
				c0.5,0.4,1.3,0.5,1.9,0.2c0.8-0.5,0.6-1.7,0.1-2.3c0.2,0.4,0.5,0.7,1,0.9c0.7,0.3,1.3,0.2,1.8-0.3c0.5-0.4,0.5-1.1,0-1.6
				c-0.4-0.5-1.2-0.6-1.8-0.6c1-0.2,2.2-1,1.7-1.9c-0.4-0.7-1.5-1.1-2.4-0.8c-0.8,0.3-1.4,1-1.6,1.7c0.2-0.4-0.1-1.1-0.5-1.4
				c-0.5-0.5-1.8-0.5-2.3,0c-0.5,0.4-0.7,1.2-0.2,1.7c0.4,0.4,1.2,0.7,1.8,0.6c-0.2,0-0.4,0-0.6-0.1c-0.4,0-0.7,0-1.1,0.1
				c-0.7,0.2-1.3,0.7-1.3,1.3C262.7,195,262.8,195.1,262.8,195.1z"/>
			<path class="st23" d="M267.2,192.6c-0.9,0-1.8,0.3-2.1,1.1c-0.4,1,0.7,1.8,1.9,1.9c0.9,0.1,1.8-0.2,2.2-1
				c0.2-0.4,0.1-0.8-0.1-1.2c-0.4-0.6-1-0.7-1.7-0.9"/>
			<path class="st24" d="M267.2,192.6c-0.8,0-1.7,0.3-2,1c-0.4,1,0.7,1.6,1.7,1.7c0.9,0.1,1.7-0.2,2-0.9c0.2-0.4,0.1-0.7-0.1-1.1
				c-0.3-0.5-0.9-0.7-1.5-0.8"/>
			<path class="st25" d="M266.8,194.6c-0.8-0.5-0.5-1.3,0.1-1.8c-0.6,0.1-1.1,0.3-1.3,0.9c-0.3,0.8,0.6,1.4,1.5,1.5
				c0.6,0.1,1.1-0.1,1.5-0.4C268,195,267.3,195,266.8,194.6z"/>
		</g>
	</g>
	<g>
		<path class="st21" d="M310,198.9c-0.4-0.5-1.2-0.6-1.8-0.6c1-0.2,2.2-1,1.7-1.9c-0.4-0.7-1.5-1.1-2.4-0.8
			c-0.8,0.3-1.3,0.9-1.5,1.6c0,0,0,0,0,0c0.1-0.4-0.2-1.1-0.5-1.3c-0.5-0.5-1.8-0.5-2.3,0c-0.5,0.4-0.7,1.2-0.2,1.7
			c0.3,0.2,0.6,0.4,1.1,0.6c-0.3,0-0.6,0-0.9,0.1c-0.7,0.2-1.3,0.7-1.3,1.3c0,0.1,0,0.2,0,0.2c0.1,0.7,1,1,1.8,0.9
			c0.5-0.1,1.3-0.3,1.5-0.7c0,0,0,0,0,0c-0.1,0.3-0.4,0.6-0.5,0.9c0,0.4,0.2,0.8,0.5,1.1c0.5,0.4,1.3,0.5,1.9,0.2
			c0.7-0.4,0.6-1.3,0.3-2c0.2,0.3,0.4,0.5,0.8,0.6c0.7,0.3,1.3,0.2,1.8-0.3C310.4,200.1,310.4,199.4,310,198.9z"/>
		<g>
			<path class="st22" d="M302,199.1c0.1,0.7,1,1,1.8,0.9c0.5-0.1,1.4-0.3,1.5-0.8c-0.1,0.4-0.5,0.6-0.5,1c0,0.4,0.2,0.8,0.5,1.1
				c0.5,0.4,1.3,0.5,1.9,0.2c0.8-0.5,0.6-1.7,0.1-2.3c0.2,0.4,0.5,0.7,1,0.9c0.7,0.3,1.3,0.2,1.8-0.3c0.5-0.4,0.5-1.1,0-1.6
				c-0.4-0.5-1.2-0.6-1.8-0.6c1-0.2,2.2-1,1.7-1.9c-0.4-0.7-1.5-1.1-2.4-0.8c-0.8,0.3-1.4,1-1.6,1.7c0.2-0.4-0.1-1.1-0.5-1.4
				c-0.5-0.5-1.8-0.5-2.3,0c-0.5,0.4-0.7,1.2-0.2,1.7c0.4,0.4,1.2,0.7,1.8,0.6c-0.2,0-0.4,0-0.6-0.1c-0.4,0-0.7,0-1.1,0.1
				c-0.7,0.2-1.3,0.7-1.3,1.3C302,199,302,199.1,302,199.1z"/>
			<path class="st23" d="M306.5,196.6c-0.9,0-1.8,0.3-2.1,1.1c-0.4,1,0.7,1.8,1.9,1.9c0.9,0.1,1.8-0.2,2.2-1
				c0.2-0.4,0.1-0.8-0.1-1.2c-0.4-0.6-1-0.7-1.7-0.9"/>
			<path class="st24" d="M306.5,196.6c-0.8,0-1.7,0.3-2,1c-0.4,1,0.7,1.6,1.7,1.7c0.9,0.1,1.7-0.2,2-0.9c0.2-0.4,0.1-0.7-0.1-1.1
				c-0.3-0.5-0.9-0.7-1.5-0.8"/>
			<path class="st25" d="M306,198.6c-0.8-0.5-0.5-1.3,0.1-1.8c-0.6,0.1-1.1,0.3-1.3,0.9c-0.3,0.8,0.6,1.4,1.5,1.5
				c0.6,0.1,1.1-0.1,1.5-0.4C307.2,199,306.5,199,306,198.6z"/>
		</g>
	</g>
	<g>
		<path class="st21" d="M356.6,196.5c-0.4-0.5-1.2-0.6-1.8-0.6c1-0.2,2.2-1,1.7-1.9c-0.4-0.7-1.5-1.1-2.4-0.8
			c-0.8,0.3-1.3,0.9-1.5,1.6c0,0,0,0,0,0c0.1-0.4-0.2-1.1-0.5-1.3c-0.5-0.5-1.8-0.5-2.3,0c-0.5,0.4-0.7,1.2-0.2,1.7
			c0.3,0.2,0.6,0.4,1.1,0.6c-0.3,0-0.6,0-0.9,0.1c-0.7,0.2-1.3,0.7-1.3,1.3c0,0.1,0,0.2,0,0.2c0.1,0.7,1,1,1.8,0.9
			c0.5-0.1,1.3-0.3,1.5-0.7c0,0,0,0,0,0c-0.1,0.3-0.4,0.6-0.5,0.9c0,0.4,0.2,0.8,0.5,1.1c0.5,0.4,1.3,0.5,1.9,0.2
			c0.7-0.4,0.6-1.3,0.3-2c0.2,0.3,0.4,0.5,0.8,0.6c0.7,0.3,1.3,0.2,1.8-0.3C357,197.6,357,197,356.6,196.5z"/>
		<g>
			<path class="st22" d="M348.6,196.7c0.1,0.7,1,1,1.8,0.9c0.5-0.1,1.4-0.3,1.5-0.8c-0.1,0.4-0.5,0.6-0.5,1c0,0.4,0.2,0.8,0.5,1.1
				c0.5,0.4,1.3,0.5,1.9,0.2c0.8-0.5,0.6-1.7,0.1-2.3c0.2,0.4,0.5,0.7,1,0.9c0.7,0.3,1.3,0.2,1.8-0.3c0.5-0.4,0.5-1.1,0-1.6
				c-0.4-0.5-1.2-0.6-1.8-0.6c1-0.2,2.2-1,1.7-1.9c-0.4-0.7-1.5-1.1-2.4-0.8c-0.8,0.3-1.4,1-1.6,1.7c0.2-0.4-0.1-1.1-0.5-1.4
				c-0.5-0.5-1.8-0.5-2.3,0c-0.5,0.4-0.7,1.2-0.2,1.7c0.4,0.4,1.2,0.7,1.8,0.6c-0.2,0-0.4,0-0.6-0.1c-0.4,0-0.7,0-1.1,0.1
				c-0.7,0.2-1.3,0.7-1.3,1.3C348.6,196.6,348.6,196.6,348.6,196.7z"/>
			<path class="st23" d="M353.1,194.2c-0.9,0-1.8,0.3-2.1,1.1c-0.4,1,0.7,1.8,1.9,1.9c0.9,0.1,1.8-0.2,2.2-1
				c0.2-0.4,0.1-0.8-0.1-1.2c-0.4-0.6-1-0.7-1.7-0.9"/>
			<path class="st24" d="M353.1,194.2c-0.8,0-1.7,0.3-2,1c-0.4,1,0.7,1.6,1.7,1.7c0.9,0.1,1.7-0.2,2-0.9c0.2-0.4,0.1-0.7-0.1-1.1
				c-0.3-0.5-0.9-0.7-1.5-0.8"/>
			<path class="st25" d="M352.6,196.2c-0.8-0.5-0.5-1.3,0.1-1.8c-0.6,0.1-1.1,0.3-1.3,0.9c-0.3,0.8,0.6,1.4,1.5,1.5
				c0.6,0.1,1.1-0.1,1.5-0.4C353.8,196.6,353.1,196.5,352.6,196.2z"/>
		</g>
	</g>
	<g>
		<path class="st21" d="M157,198.7c-0.4-0.5-1.2-0.6-1.8-0.6c1-0.2,2.2-1,1.7-1.9c-0.4-0.7-1.5-1.1-2.4-0.8
			c-0.8,0.3-1.3,0.9-1.5,1.6c0,0,0,0,0,0c0.1-0.4-0.2-1.1-0.5-1.3c-0.5-0.5-1.8-0.5-2.3,0c-0.5,0.4-0.7,1.2-0.2,1.7
			c0.3,0.2,0.6,0.4,1.1,0.6c-0.3,0-0.6,0-0.9,0.1c-0.7,0.2-1.3,0.7-1.3,1.3c0,0.1,0,0.2,0,0.2c0.1,0.7,1,1,1.8,0.9
			c0.5-0.1,1.3-0.3,1.5-0.7c0,0,0,0,0,0c-0.1,0.3-0.4,0.6-0.5,0.9c0,0.4,0.2,0.8,0.5,1.1c0.5,0.4,1.3,0.5,1.9,0.2
			c0.7-0.4,0.6-1.3,0.3-2c0.2,0.3,0.4,0.5,0.8,0.6c0.7,0.3,1.3,0.2,1.8-0.3C157.4,199.8,157.4,199.1,157,198.7z"/>
		<g>
			<path class="st22" d="M149,198.9c0.1,0.7,1,1,1.8,0.9c0.5-0.1,1.4-0.3,1.5-0.8c-0.1,0.4-0.5,0.6-0.5,1c0,0.4,0.2,0.8,0.5,1.1
				c0.5,0.4,1.3,0.5,1.9,0.2c0.8-0.5,0.6-1.7,0.1-2.3c0.2,0.4,0.5,0.7,1,0.9c0.7,0.3,1.3,0.2,1.8-0.3c0.5-0.4,0.5-1.1,0-1.6
				c-0.4-0.5-1.2-0.6-1.8-0.6c1-0.2,2.2-1,1.7-1.9c-0.4-0.7-1.5-1.1-2.4-0.8c-0.8,0.3-1.4,1-1.6,1.7c0.2-0.4-0.1-1.1-0.5-1.4
				c-0.5-0.5-1.8-0.5-2.3,0c-0.5,0.4-0.7,1.2-0.2,1.7c0.4,0.4,1.2,0.7,1.8,0.6c-0.2,0-0.4,0-0.6-0.1c-0.4,0-0.7,0-1.1,0.1
				c-0.7,0.2-1.3,0.7-1.3,1.3C149,198.7,149,198.8,149,198.9z"/>
			<path class="st23" d="M153.5,196.3c-0.9,0-1.8,0.3-2.1,1.1c-0.4,1,0.7,1.8,1.9,1.9c0.9,0.1,1.8-0.2,2.2-1
				c0.2-0.4,0.1-0.8-0.1-1.2c-0.4-0.6-1-0.7-1.7-0.9"/>
			<path class="st24" d="M153.5,196.4c-0.8,0-1.7,0.3-2,1c-0.4,1,0.7,1.6,1.7,1.7c0.9,0.1,1.7-0.2,2-0.9c0.2-0.4,0.1-0.7-0.1-1.1
				c-0.3-0.5-0.9-0.7-1.5-0.8"/>
			<path class="st25" d="M153,198.4c-0.8-0.5-0.5-1.3,0.1-1.8c-0.6,0.1-1.1,0.3-1.3,0.9c-0.3,0.8,0.6,1.4,1.5,1.5
				c0.6,0.1,1.1-0.1,1.5-0.4C154.2,198.7,153.5,198.7,153,198.4z"/>
		</g>
	</g>
	<g>
		<path class="st21" d="M54.2,196.7c-0.4-0.5-1.2-0.6-1.8-0.6c1-0.2,2.2-1,1.7-1.9c-0.4-0.7-1.5-1.1-2.4-0.8
			c-0.8,0.3-1.3,0.9-1.5,1.6c0,0,0,0,0,0c0.1-0.4-0.2-1.1-0.5-1.3c-0.5-0.5-1.8-0.5-2.3,0c-0.5,0.4-0.7,1.2-0.2,1.7
			c0.3,0.2,0.6,0.4,1.1,0.6c-0.3,0-0.6,0-0.9,0.1c-0.7,0.2-1.3,0.7-1.3,1.3c0,0.1,0,0.2,0,0.2c0.1,0.7,1,1,1.8,0.9
			c0.5-0.1,1.3-0.3,1.5-0.7c0,0,0,0,0,0c-0.1,0.3-0.4,0.6-0.5,0.9c0,0.4,0.2,0.8,0.5,1.1c0.5,0.4,1.3,0.5,1.9,0.2
			c0.7-0.4,0.6-1.3,0.3-2c0.2,0.3,0.4,0.5,0.8,0.6c0.7,0.3,1.3,0.2,1.8-0.3C54.7,197.8,54.7,197.1,54.2,196.7z"/>
		<g>
			<path class="st22" d="M46.3,196.9c0.1,0.7,1,1,1.8,0.9c0.5-0.1,1.4-0.3,1.5-0.8c-0.1,0.4-0.5,0.6-0.5,1c0,0.4,0.2,0.8,0.5,1.1
				c0.5,0.4,1.3,0.5,1.9,0.2c0.8-0.5,0.6-1.7,0.1-2.3c0.2,0.4,0.5,0.7,1,0.9c0.7,0.3,1.3,0.2,1.8-0.3c0.5-0.4,0.5-1.1,0-1.6
				c-0.4-0.5-1.2-0.6-1.8-0.6c1-0.2,2.2-1,1.7-1.9c-0.4-0.7-1.5-1.1-2.4-0.8c-0.8,0.3-1.4,1-1.6,1.7c0.2-0.4-0.1-1.1-0.5-1.4
				c-0.5-0.5-1.8-0.5-2.3,0c-0.5,0.4-0.7,1.2-0.2,1.7c0.4,0.4,1.2,0.7,1.8,0.6c-0.2,0-0.4,0-0.6-0.1c-0.4,0-0.7,0-1.1,0.1
				c-0.7,0.2-1.3,0.7-1.3,1.3C46.2,196.7,46.3,196.8,46.3,196.9z"/>
			<path class="st23" d="M50.7,194.3c-0.9,0-1.8,0.3-2.1,1.1c-0.4,1,0.7,1.8,1.9,1.9c0.9,0.1,1.8-0.2,2.2-1c0.2-0.4,0.1-0.8-0.1-1.2
				c-0.4-0.6-1-0.7-1.7-0.9"/>
			<path class="st24" d="M50.7,194.4c-0.8,0-1.7,0.3-2,1c-0.4,1,0.7,1.6,1.7,1.7c0.9,0.1,1.7-0.2,2-0.9c0.2-0.4,0.1-0.7-0.1-1.1
				c-0.3-0.5-0.9-0.7-1.5-0.8"/>
			<path class="st25" d="M50.3,196.4c-0.8-0.5-0.5-1.3,0.1-1.8c-0.6,0.1-1.1,0.3-1.3,0.9c-0.3,0.8,0.6,1.4,1.5,1.5
				c0.6,0.1,1.1-0.1,1.5-0.4C51.5,196.7,50.8,196.7,50.3,196.4z"/>
		</g>
	</g>
	<g>
		<path class="st21" d="M69.8,184c-0.2-0.3-0.7-0.4-1.1-0.4c0.6-0.1,1.3-0.6,1-1.1c-0.2-0.4-0.9-0.6-1.4-0.5
			c-0.5,0.2-0.8,0.5-0.9,0.9c0,0,0,0,0,0c0.1-0.2-0.1-0.6-0.3-0.8c-0.3-0.3-1.1-0.3-1.4,0c-0.3,0.3-0.4,0.7-0.1,1
			c0.2,0.1,0.4,0.3,0.6,0.3c-0.2,0-0.4,0-0.6,0.1c-0.4,0.1-0.8,0.4-0.8,0.8c0,0,0,0.1,0,0.1c0.1,0.4,0.6,0.6,1.1,0.5
			c0.3,0,0.7-0.2,0.9-0.4c0,0,0,0,0,0c-0.1,0.2-0.3,0.3-0.3,0.6c0,0.2,0.1,0.5,0.3,0.6c0.3,0.2,0.8,0.3,1.1,0.1
			c0.4-0.2,0.4-0.8,0.2-1.2c0.1,0.2,0.3,0.3,0.5,0.4c0.4,0.2,0.8,0.1,1.1-0.2C70.1,184.6,70.1,184.2,69.8,184z"/>
		<g>
			<path class="st22" d="M65.1,184.1c0.1,0.4,0.6,0.6,1.1,0.5c0.3-0.1,0.8-0.2,0.9-0.4c-0.1,0.2-0.3,0.4-0.3,0.6
				c0,0.2,0.1,0.5,0.3,0.6c0.3,0.2,0.8,0.3,1.1,0.1c0.5-0.3,0.3-1,0.1-1.4c0.1,0.2,0.3,0.4,0.6,0.5c0.4,0.2,0.8,0.1,1.1-0.2
				c0.3-0.3,0.3-0.7,0-0.9c-0.2-0.3-0.7-0.4-1.1-0.4c0.6-0.1,1.3-0.6,1-1.1c-0.2-0.4-0.9-0.6-1.4-0.5c-0.5,0.2-0.8,0.6-0.9,1
				c0.1-0.2-0.1-0.7-0.3-0.8c-0.3-0.3-1.1-0.3-1.4,0c-0.3,0.3-0.4,0.7-0.1,1c0.2,0.2,0.7,0.4,1.1,0.4c-0.1,0-0.2,0-0.3,0
				c-0.2,0-0.4,0-0.6,0c-0.4,0.1-0.8,0.4-0.8,0.8C65.1,184,65.1,184,65.1,184.1z"/>
			<path class="st23" d="M67.8,182.6c-0.5,0-1.1,0.2-1.3,0.7c-0.2,0.6,0.4,1,1.1,1.1c0.6,0.1,1.1-0.1,1.3-0.6
				c0.1-0.2,0.1-0.5-0.1-0.7C68.6,182.7,68.3,182.6,67.8,182.6"/>
			<path class="st24" d="M67.8,182.6c-0.5,0-1,0.2-1.2,0.6c-0.2,0.6,0.4,1,1,1c0.5,0.1,1-0.1,1.2-0.5c0.1-0.2,0.1-0.4-0.1-0.6
				C68.6,182.8,68.2,182.7,67.8,182.6"/>
			<path class="st25" d="M67.5,183.8c-0.5-0.3-0.3-0.8,0.1-1.1c-0.3,0.1-0.6,0.2-0.7,0.5c-0.2,0.5,0.4,0.8,0.9,0.9
				c0.3,0,0.7,0,0.9-0.2C68.2,184,67.8,184,67.5,183.8z"/>
		</g>
	</g>
	<g>
		<path class="st21" d="M96.6,185.6c-0.2-0.3-0.7-0.4-1.1-0.4c0.6-0.1,1.3-0.6,1-1.1c-0.2-0.4-0.9-0.6-1.4-0.5
			c-0.5,0.2-0.8,0.5-0.9,0.9c0,0,0,0,0,0c0.1-0.2-0.1-0.6-0.3-0.8c-0.3-0.3-1.1-0.3-1.4,0c-0.3,0.3-0.4,0.7-0.1,1
			c0.2,0.1,0.4,0.3,0.6,0.3c-0.2,0-0.4,0-0.6,0.1c-0.4,0.1-0.8,0.4-0.8,0.8c0,0,0,0.1,0,0.1c0.1,0.4,0.6,0.6,1.1,0.5
			c0.3,0,0.7-0.2,0.9-0.4c0,0,0,0,0,0c-0.1,0.2-0.3,0.3-0.3,0.6c0,0.2,0.1,0.5,0.3,0.6c0.3,0.2,0.8,0.3,1.1,0.1
			c0.4-0.2,0.4-0.8,0.2-1.2c0.1,0.2,0.3,0.3,0.5,0.4c0.4,0.2,0.8,0.1,1.1-0.2C96.9,186.3,96.9,185.9,96.6,185.6z"/>
		<g>
			<path class="st22" d="M91.9,185.8c0.1,0.4,0.6,0.6,1.1,0.5c0.3-0.1,0.8-0.2,0.9-0.4c-0.1,0.2-0.3,0.4-0.3,0.6
				c0,0.2,0.1,0.5,0.3,0.6c0.3,0.2,0.8,0.3,1.1,0.1c0.5-0.3,0.3-1,0.1-1.4c0.1,0.2,0.3,0.4,0.6,0.5c0.4,0.2,0.8,0.1,1.1-0.2
				c0.3-0.3,0.3-0.7,0-0.9c-0.2-0.3-0.7-0.4-1.1-0.4c0.6-0.1,1.3-0.6,1-1.1c-0.2-0.4-0.9-0.6-1.4-0.5c-0.5,0.2-0.8,0.6-0.9,1
				c0.1-0.2-0.1-0.7-0.3-0.8c-0.3-0.3-1.1-0.3-1.4,0c-0.3,0.3-0.4,0.7-0.1,1c0.2,0.2,0.7,0.4,1.1,0.4c-0.1,0-0.2,0-0.3,0
				c-0.2,0-0.4,0-0.6,0c-0.4,0.1-0.8,0.4-0.8,0.8C91.9,185.7,91.9,185.7,91.9,185.8z"/>
			<path class="st23" d="M94.6,184.3c-0.5,0-1.1,0.2-1.3,0.7c-0.2,0.6,0.4,1,1.1,1.1c0.6,0.1,1.1-0.1,1.3-0.6
				c0.1-0.2,0.1-0.5-0.1-0.7C95.4,184.4,95.1,184.3,94.6,184.3"/>
			<path class="st24" d="M94.6,184.3c-0.5,0-1,0.2-1.2,0.6c-0.2,0.6,0.4,1,1,1c0.5,0.1,1-0.1,1.2-0.5c0.1-0.2,0.1-0.4-0.1-0.6
				C95.4,184.4,95,184.4,94.6,184.3"/>
			<path class="st25" d="M94.3,185.5c-0.5-0.3-0.3-0.8,0.1-1.1c-0.3,0.1-0.6,0.2-0.7,0.5c-0.2,0.5,0.4,0.8,0.9,0.9
				c0.3,0,0.7,0,0.9-0.2C95,185.7,94.6,185.7,94.3,185.5z"/>
		</g>
	</g>
	<g>
		<path class="st21" d="M148,180.6c-0.2-0.3-0.7-0.4-1.1-0.4c0.6-0.1,1.3-0.6,1-1.1c-0.2-0.4-0.9-0.6-1.4-0.5
			c-0.5,0.2-0.8,0.5-0.9,0.9c0,0,0,0,0,0c0.1-0.2-0.1-0.6-0.3-0.8c-0.3-0.3-1.1-0.3-1.4,0c-0.3,0.3-0.4,0.7-0.1,1
			c0.2,0.1,0.4,0.3,0.6,0.3c-0.2,0-0.4,0-0.6,0.1c-0.4,0.1-0.8,0.4-0.8,0.8c0,0,0,0.1,0,0.1c0.1,0.4,0.6,0.6,1.1,0.5
			c0.3,0,0.7-0.2,0.9-0.4c0,0,0,0,0,0c-0.1,0.2-0.3,0.3-0.3,0.6c0,0.2,0.1,0.5,0.3,0.6c0.3,0.2,0.8,0.3,1.1,0.1
			c0.4-0.2,0.4-0.8,0.2-1.2c0.1,0.2,0.3,0.3,0.5,0.4c0.4,0.2,0.8,0.1,1.1-0.2C148.3,181.3,148.3,180.9,148,180.6z"/>
		<g>
			<path class="st22" d="M143.3,180.7c0.1,0.4,0.6,0.6,1.1,0.5c0.3-0.1,0.8-0.2,0.9-0.4c-0.1,0.2-0.3,0.4-0.3,0.6
				c0,0.2,0.1,0.5,0.3,0.6c0.3,0.2,0.8,0.3,1.1,0.1c0.5-0.3,0.3-1,0.1-1.4c0.1,0.2,0.3,0.4,0.6,0.5c0.4,0.2,0.8,0.1,1.1-0.2
				c0.3-0.3,0.3-0.7,0-0.9c-0.2-0.3-0.7-0.4-1.1-0.4c0.6-0.1,1.3-0.6,1-1.1c-0.2-0.4-0.9-0.6-1.4-0.5c-0.5,0.2-0.8,0.6-0.9,1
				c0.1-0.2-0.1-0.7-0.3-0.8c-0.3-0.3-1.1-0.3-1.4,0c-0.3,0.3-0.4,0.7-0.1,1c0.2,0.2,0.7,0.4,1.1,0.4c-0.1,0-0.2,0-0.3,0
				c-0.2,0-0.4,0-0.6,0c-0.4,0.1-0.8,0.4-0.8,0.8C143.3,180.7,143.3,180.7,143.3,180.7z"/>
			<path class="st23" d="M146,179.2c-0.5,0-1.1,0.2-1.3,0.7c-0.2,0.6,0.4,1,1.1,1.1c0.6,0.1,1.1-0.1,1.3-0.6
				c0.1-0.2,0.1-0.5-0.1-0.7C146.8,179.4,146.5,179.3,146,179.2"/>
			<path class="st24" d="M146,179.3c-0.5,0-1,0.2-1.2,0.6c-0.2,0.6,0.4,1,1,1c0.5,0.1,1-0.1,1.2-0.5c0.1-0.2,0.1-0.4-0.1-0.6
				C146.8,179.4,146.4,179.3,146,179.3"/>
			<path class="st25" d="M145.7,180.5c-0.5-0.3-0.3-0.8,0.1-1.1c-0.3,0.1-0.6,0.2-0.7,0.5c-0.2,0.5,0.4,0.8,0.9,0.9
				c0.3,0,0.7,0,0.9-0.2C146.4,180.7,146,180.7,145.7,180.5z"/>
		</g>
	</g>
	<g>
		<path class="st21" d="M188.1,184c-0.2-0.3-0.7-0.4-1.1-0.4c0.6-0.1,1.3-0.6,1-1.1c-0.2-0.4-0.9-0.6-1.4-0.5
			c-0.5,0.2-0.8,0.5-0.9,0.9c0,0,0,0,0,0c0.1-0.2-0.1-0.6-0.3-0.8c-0.3-0.3-1.1-0.3-1.4,0c-0.3,0.3-0.4,0.7-0.1,1
			c0.2,0.1,0.4,0.3,0.6,0.3c-0.2,0-0.4,0-0.6,0.1c-0.4,0.1-0.8,0.4-0.8,0.8c0,0,0,0.1,0,0.1c0.1,0.4,0.6,0.6,1.1,0.5
			c0.3,0,0.7-0.2,0.9-0.4c0,0,0,0,0,0c-0.1,0.2-0.3,0.3-0.3,0.6c0,0.2,0.1,0.5,0.3,0.6c0.3,0.2,0.8,0.3,1.1,0.1
			c0.4-0.2,0.4-0.8,0.2-1.2c0.1,0.2,0.3,0.3,0.5,0.4c0.4,0.2,0.8,0.1,1.1-0.2C188.4,184.7,188.4,184.3,188.1,184z"/>
		<g>
			<path class="st22" d="M183.4,184.1c0.1,0.4,0.6,0.6,1.1,0.5c0.3-0.1,0.8-0.2,0.9-0.4c-0.1,0.2-0.3,0.4-0.3,0.6
				c0,0.2,0.1,0.5,0.3,0.6c0.3,0.2,0.8,0.3,1.1,0.1c0.5-0.3,0.3-1,0.1-1.4c0.1,0.2,0.3,0.4,0.6,0.5c0.4,0.2,0.8,0.1,1.1-0.2
				c0.3-0.3,0.3-0.7,0-0.9c-0.2-0.3-0.7-0.4-1.1-0.4c0.6-0.1,1.3-0.6,1-1.1c-0.2-0.4-0.9-0.6-1.4-0.5c-0.5,0.2-0.8,0.6-0.9,1
				c0.1-0.2-0.1-0.7-0.3-0.8c-0.3-0.3-1.1-0.3-1.4,0c-0.3,0.3-0.4,0.7-0.1,1c0.2,0.2,0.7,0.4,1.1,0.4c-0.1,0-0.2,0-0.3,0
				c-0.2,0-0.4,0-0.6,0c-0.4,0.1-0.8,0.4-0.8,0.8C183.4,184,183.4,184.1,183.4,184.1z"/>
			<path class="st23" d="M186,182.6c-0.5,0-1.1,0.2-1.3,0.7c-0.2,0.6,0.4,1,1.1,1.1c0.6,0.1,1.1-0.1,1.3-0.6
				c0.1-0.2,0.1-0.5-0.1-0.7C186.9,182.8,186.6,182.7,186,182.6"/>
			<path class="st24" d="M186,182.7c-0.5,0-1,0.2-1.2,0.6c-0.2,0.6,0.4,1,1,1c0.5,0.1,1-0.1,1.2-0.5c0.1-0.2,0.1-0.4-0.1-0.6
				C186.8,182.8,186.5,182.7,186,182.7"/>
			<path class="st25" d="M185.8,183.8c-0.5-0.3-0.3-0.8,0.1-1.1c-0.3,0.1-0.6,0.2-0.7,0.5c-0.2,0.5,0.4,0.8,0.9,0.9
				c0.3,0,0.7,0,0.9-0.2C186.5,184.1,186.1,184,185.8,183.8z"/>
		</g>
	</g>
	<g>
		<path class="st21" d="M222.6,179.4c-0.2-0.3-0.7-0.4-1.1-0.4c0.6-0.1,1.3-0.6,1-1.1c-0.2-0.4-0.9-0.6-1.4-0.5
			c-0.5,0.2-0.8,0.5-0.9,0.9c0,0,0,0,0,0c0.1-0.2-0.1-0.6-0.3-0.8c-0.3-0.3-1.1-0.3-1.4,0c-0.3,0.3-0.4,0.7-0.1,1
			c0.2,0.1,0.4,0.3,0.6,0.3c-0.2,0-0.4,0-0.6,0.1c-0.4,0.1-0.8,0.4-0.8,0.8c0,0,0,0.1,0,0.1c0.1,0.4,0.6,0.6,1.1,0.5
			c0.3,0,0.7-0.2,0.9-0.4c0,0,0,0,0,0c-0.1,0.2-0.3,0.3-0.3,0.6c0,0.2,0.1,0.5,0.3,0.6c0.3,0.2,0.8,0.3,1.1,0.1
			c0.4-0.2,0.4-0.8,0.2-1.2c0.1,0.2,0.3,0.3,0.5,0.4c0.4,0.2,0.8,0.1,1.1-0.2C222.9,180.1,222.9,179.7,222.6,179.4z"/>
		<g>
			<path class="st22" d="M217.9,179.6c0.1,0.4,0.6,0.6,1.1,0.5c0.3-0.1,0.8-0.2,0.9-0.4c-0.1,0.2-0.3,0.4-0.3,0.6
				c0,0.2,0.1,0.5,0.3,0.6c0.3,0.2,0.8,0.3,1.1,0.1c0.5-0.3,0.3-1,0.1-1.4c0.1,0.2,0.3,0.4,0.6,0.5c0.4,0.2,0.8,0.1,1.1-0.2
				c0.3-0.3,0.3-0.7,0-0.9c-0.2-0.3-0.7-0.4-1.1-0.4c0.6-0.1,1.3-0.6,1-1.1c-0.2-0.4-0.9-0.6-1.4-0.5c-0.5,0.2-0.8,0.6-0.9,1
				c0.1-0.2-0.1-0.7-0.3-0.8c-0.3-0.3-1.1-0.3-1.4,0c-0.3,0.3-0.4,0.7-0.1,1c0.2,0.2,0.7,0.4,1.1,0.4c-0.1,0-0.2,0-0.3,0
				c-0.2,0-0.4,0-0.6,0c-0.4,0.1-0.8,0.4-0.8,0.8C217.9,179.5,217.9,179.5,217.9,179.6z"/>
			<path class="st23" d="M220.5,178.1c-0.5,0-1.1,0.2-1.3,0.7c-0.2,0.6,0.4,1,1.1,1.1c0.6,0.1,1.1-0.1,1.3-0.6
				c0.1-0.2,0.1-0.5-0.1-0.7C221.4,178.2,221,178.1,220.5,178.1"/>
			<path class="st24" d="M220.5,178.1c-0.5,0-1,0.2-1.2,0.6c-0.2,0.6,0.4,1,1,1c0.5,0.1,1-0.1,1.2-0.5c0.1-0.2,0.1-0.4-0.1-0.6
				C221.3,178.2,221,178.1,220.5,178.1"/>
			<path class="st25" d="M220.3,179.3c-0.5-0.3-0.3-0.8,0.1-1.1c-0.3,0.1-0.6,0.2-0.7,0.5c-0.2,0.5,0.4,0.8,0.9,0.9
				c0.3,0,0.7,0,0.9-0.2C221,179.5,220.6,179.5,220.3,179.3z"/>
		</g>
	</g>
	<g>
		<path class="st21" d="M274.5,183.1c-0.2-0.3-0.7-0.4-1.1-0.4c0.6-0.1,1.3-0.6,1-1.1c-0.2-0.4-0.9-0.6-1.4-0.5
			c-0.5,0.2-0.8,0.5-0.9,0.9c0,0,0,0,0,0c0.1-0.2-0.1-0.6-0.3-0.8c-0.3-0.3-1.1-0.3-1.4,0c-0.3,0.3-0.4,0.7-0.1,1
			c0.2,0.1,0.4,0.3,0.6,0.3c-0.2,0-0.4,0-0.6,0.1c-0.4,0.1-0.8,0.4-0.8,0.8c0,0,0,0.1,0,0.1c0.1,0.4,0.6,0.6,1.1,0.5
			c0.3,0,0.7-0.2,0.9-0.4c0,0,0,0,0,0c-0.1,0.2-0.3,0.3-0.3,0.6c0,0.2,0.1,0.5,0.3,0.6c0.3,0.2,0.8,0.3,1.1,0.1
			c0.4-0.2,0.4-0.8,0.2-1.2c0.1,0.2,0.3,0.3,0.5,0.4c0.4,0.2,0.8,0.1,1.1-0.2C274.8,183.8,274.7,183.4,274.5,183.1z"/>
		<g>
			<path class="st22" d="M269.8,183.2c0.1,0.4,0.6,0.6,1.1,0.5c0.3-0.1,0.8-0.2,0.9-0.4c-0.1,0.2-0.3,0.4-0.3,0.6
				c0,0.2,0.1,0.5,0.3,0.6c0.3,0.2,0.8,0.3,1.1,0.1c0.5-0.3,0.3-1,0.1-1.4c0.1,0.2,0.3,0.4,0.6,0.5c0.4,0.2,0.8,0.1,1.1-0.2
				c0.3-0.3,0.3-0.7,0-0.9c-0.2-0.3-0.7-0.4-1.1-0.4c0.6-0.1,1.3-0.6,1-1.1c-0.2-0.4-0.9-0.6-1.4-0.5c-0.5,0.2-0.8,0.6-0.9,1
				c0.1-0.2-0.1-0.7-0.3-0.8c-0.3-0.3-1.1-0.3-1.4,0c-0.3,0.3-0.4,0.7-0.1,1c0.2,0.2,0.7,0.4,1.1,0.4c-0.1,0-0.2,0-0.3,0
				c-0.2,0-0.4,0-0.6,0c-0.4,0.1-0.8,0.4-0.8,0.8C269.7,183.1,269.8,183.2,269.8,183.2z"/>
			<path class="st23" d="M272.4,181.7c-0.5,0-1.1,0.2-1.3,0.7c-0.2,0.6,0.4,1,1.1,1.1c0.6,0.1,1.1-0.1,1.3-0.6
				c0.1-0.2,0.1-0.5-0.1-0.7C273.3,181.9,272.9,181.8,272.4,181.7"/>
			<path class="st24" d="M272.4,181.7c-0.5,0-1,0.2-1.2,0.6c-0.2,0.6,0.4,1,1,1c0.5,0.1,1-0.1,1.2-0.5c0.1-0.2,0.1-0.4-0.1-0.6
				C273.2,181.9,272.9,181.8,272.4,181.7"/>
			<path class="st25" d="M272.1,182.9c-0.5-0.3-0.3-0.8,0.1-1.1c-0.3,0.1-0.6,0.2-0.7,0.5c-0.2,0.5,0.4,0.8,0.9,0.9
				c0.3,0,0.7,0,0.9-0.2C272.9,183.1,272.4,183.1,272.1,182.9z"/>
		</g>
	</g>
	<g>
		<path class="st21" d="M296.5,183.6c-0.2-0.3-0.7-0.4-1.1-0.4c0.6-0.1,1.3-0.6,1-1.1c-0.2-0.4-0.9-0.6-1.4-0.5
			c-0.5,0.2-0.8,0.5-0.9,0.9c0,0,0,0,0,0c0.1-0.2-0.1-0.6-0.3-0.8c-0.3-0.3-1.1-0.3-1.4,0c-0.3,0.3-0.4,0.7-0.1,1
			c0.2,0.1,0.4,0.3,0.6,0.3c-0.2,0-0.4,0-0.6,0.1c-0.4,0.1-0.8,0.4-0.8,0.8c0,0,0,0.1,0,0.1c0.1,0.4,0.6,0.6,1.1,0.5
			c0.3,0,0.7-0.2,0.9-0.4c0,0,0,0,0,0c-0.1,0.2-0.3,0.3-0.3,0.6c0,0.2,0.1,0.5,0.3,0.6c0.3,0.2,0.8,0.3,1.1,0.1
			c0.4-0.2,0.4-0.8,0.2-1.2c0.1,0.2,0.3,0.3,0.5,0.4c0.4,0.2,0.8,0.1,1.1-0.2C296.8,184.3,296.8,183.9,296.5,183.6z"/>
		<g>
			<path class="st22" d="M291.8,183.7c0.1,0.4,0.6,0.6,1.1,0.5c0.3-0.1,0.8-0.2,0.9-0.4c-0.1,0.2-0.3,0.4-0.3,0.6
				c0,0.2,0.1,0.5,0.3,0.6c0.3,0.2,0.8,0.3,1.1,0.1c0.5-0.3,0.3-1,0.1-1.4c0.1,0.2,0.3,0.4,0.6,0.5c0.4,0.2,0.8,0.1,1.1-0.2
				c0.3-0.3,0.3-0.7,0-0.9c-0.2-0.3-0.7-0.4-1.1-0.4c0.6-0.1,1.3-0.6,1-1.1c-0.2-0.4-0.9-0.6-1.4-0.5c-0.5,0.2-0.8,0.6-0.9,1
				c0.1-0.2-0.1-0.7-0.3-0.8c-0.3-0.3-1.1-0.3-1.4,0c-0.3,0.3-0.4,0.7-0.1,1c0.2,0.2,0.7,0.4,1.1,0.4c-0.1,0-0.2,0-0.3,0
				c-0.2,0-0.4,0-0.6,0c-0.4,0.1-0.8,0.4-0.8,0.8C291.8,183.6,291.8,183.7,291.8,183.7z"/>
			<path class="st23" d="M294.5,182.2c-0.5,0-1.1,0.2-1.3,0.7c-0.2,0.6,0.4,1,1.1,1.1c0.6,0.1,1.1-0.1,1.3-0.6
				c0.1-0.2,0.1-0.5-0.1-0.7C295.3,182.4,295,182.3,294.5,182.2"/>
			<path class="st24" d="M294.5,182.2c-0.5,0-1,0.2-1.2,0.6c-0.2,0.6,0.4,1,1,1c0.5,0.1,1-0.1,1.2-0.5c0.1-0.2,0.1-0.4-0.1-0.6
				C295.3,182.4,294.9,182.3,294.5,182.2"/>
			<path class="st25" d="M294.2,183.4c-0.5-0.3-0.3-0.8,0.1-1.1c-0.3,0.1-0.6,0.2-0.7,0.5c-0.2,0.5,0.4,0.8,0.9,0.9
				c0.3,0,0.7,0,0.9-0.2C294.9,183.6,294.5,183.6,294.2,183.4z"/>
		</g>
	</g>
	<g>
		<path class="st21" d="M249.5,178.6c-0.2-0.3-0.7-0.4-1.1-0.4c0.6-0.1,1.3-0.6,1-1.1c-0.2-0.4-0.9-0.6-1.4-0.5
			c-0.5,0.2-0.8,0.5-0.9,0.9c0,0,0,0,0,0c0.1-0.2-0.1-0.6-0.3-0.8c-0.3-0.3-1.1-0.3-1.4,0c-0.3,0.3-0.4,0.7-0.1,1
			c0.2,0.1,0.4,0.3,0.6,0.3c-0.2,0-0.4,0-0.6,0.1c-0.4,0.1-0.8,0.4-0.8,0.8c0,0,0,0.1,0,0.1c0.1,0.4,0.6,0.6,1.1,0.5
			c0.3,0,0.7-0.2,0.9-0.4c0,0,0,0,0,0c-0.1,0.2-0.3,0.3-0.3,0.6c0,0.2,0.1,0.5,0.3,0.6c0.3,0.2,0.8,0.3,1.1,0.1
			c0.4-0.2,0.4-0.8,0.2-1.2c0.1,0.2,0.3,0.3,0.5,0.4c0.4,0.2,0.8,0.1,1.1-0.2C249.8,179.2,249.7,178.8,249.5,178.6z"/>
		<g>
			<path class="st22" d="M244.8,178.7c0.1,0.4,0.6,0.6,1.1,0.5c0.3-0.1,0.8-0.2,0.9-0.4c-0.1,0.2-0.3,0.4-0.3,0.6
				c0,0.2,0.1,0.5,0.3,0.6c0.3,0.2,0.8,0.3,1.1,0.1c0.5-0.3,0.3-1,0.1-1.4c0.1,0.2,0.3,0.4,0.6,0.5c0.4,0.2,0.8,0.1,1.1-0.2
				c0.3-0.3,0.3-0.7,0-0.9c-0.2-0.3-0.7-0.4-1.1-0.4c0.6-0.1,1.3-0.6,1-1.1c-0.2-0.4-0.9-0.6-1.4-0.5c-0.5,0.2-0.8,0.6-0.9,1
				c0.1-0.2-0.1-0.7-0.3-0.8c-0.3-0.3-1.1-0.3-1.4,0c-0.3,0.3-0.4,0.7-0.1,1c0.2,0.2,0.7,0.4,1.1,0.4c-0.1,0-0.2,0-0.3,0
				c-0.2,0-0.4,0-0.6,0c-0.4,0.1-0.8,0.4-0.8,0.8C244.7,178.6,244.7,178.6,244.8,178.7z"/>
			<path class="st23" d="M247.4,177.2c-0.5,0-1.1,0.2-1.3,0.7c-0.2,0.6,0.4,1,1.1,1.1c0.6,0.1,1.1-0.1,1.3-0.6
				c0.1-0.2,0.1-0.5-0.1-0.7C248.3,177.4,247.9,177.2,247.4,177.2"/>
			<path class="st24" d="M247.4,177.2c-0.5,0-1,0.2-1.2,0.6c-0.2,0.6,0.4,1,1,1c0.5,0.1,1-0.1,1.2-0.5c0.1-0.2,0.1-0.4-0.1-0.6
				C248.2,177.4,247.9,177.3,247.4,177.2"/>
			<path class="st25" d="M247.1,178.4c-0.5-0.3-0.3-0.8,0.1-1.1c-0.3,0.1-0.6,0.2-0.7,0.5c-0.2,0.5,0.4,0.8,0.9,0.9
				c0.3,0,0.7,0,0.9-0.2C247.9,178.6,247.4,178.6,247.1,178.4z"/>
		</g>
	</g>
	<g>
		<path class="st21" d="M209.3,184.5c-0.2-0.3-0.7-0.4-1.1-0.4c0.6-0.1,1.3-0.6,1-1.1c-0.2-0.4-0.9-0.6-1.4-0.5
			c-0.5,0.2-0.8,0.5-0.9,0.9c0,0,0,0,0,0c0.1-0.2-0.1-0.6-0.3-0.8c-0.3-0.3-1.1-0.3-1.4,0c-0.3,0.3-0.4,0.7-0.1,1
			c0.2,0.1,0.4,0.3,0.6,0.3c-0.2,0-0.4,0-0.6,0.1c-0.4,0.1-0.8,0.4-0.8,0.8c0,0,0,0.1,0,0.1c0.1,0.4,0.6,0.6,1.1,0.5
			c0.3,0,0.7-0.2,0.9-0.4c0,0,0,0,0,0c-0.1,0.2-0.3,0.3-0.3,0.6c0,0.2,0.1,0.5,0.3,0.6c0.3,0.2,0.8,0.3,1.1,0.1
			c0.4-0.2,0.4-0.8,0.2-1.2c0.1,0.2,0.3,0.3,0.5,0.4c0.4,0.2,0.8,0.1,1.1-0.2C209.5,185.2,209.5,184.8,209.3,184.5z"/>
		<g>
			<path class="st22" d="M204.6,184.6c0.1,0.4,0.6,0.6,1.1,0.5c0.3-0.1,0.8-0.2,0.9-0.4c-0.1,0.2-0.3,0.4-0.3,0.6
				c0,0.2,0.1,0.5,0.3,0.6c0.3,0.2,0.8,0.3,1.1,0.1c0.5-0.3,0.3-1,0.1-1.4c0.1,0.2,0.3,0.4,0.6,0.5c0.4,0.2,0.8,0.1,1.1-0.2
				c0.3-0.3,0.3-0.7,0-0.9c-0.2-0.3-0.7-0.4-1.1-0.4c0.6-0.1,1.3-0.6,1-1.1c-0.2-0.4-0.9-0.6-1.4-0.5c-0.5,0.2-0.8,0.6-0.9,1
				c0.1-0.2-0.1-0.7-0.3-0.8c-0.3-0.3-1.1-0.3-1.4,0c-0.3,0.3-0.4,0.7-0.1,1c0.2,0.2,0.7,0.4,1.1,0.4c-0.1,0-0.2,0-0.3,0
				c-0.2,0-0.4,0-0.6,0c-0.4,0.1-0.8,0.4-0.8,0.8C204.5,184.5,204.5,184.6,204.6,184.6z"/>
			<path class="st23" d="M207.2,183.1c-0.5,0-1.1,0.2-1.3,0.7c-0.2,0.6,0.4,1,1.1,1.1c0.6,0.1,1.1-0.1,1.3-0.6
				c0.1-0.2,0.1-0.5-0.1-0.7C208.1,183.3,207.7,183.2,207.2,183.1"/>
			<path class="st24" d="M207.2,183.2c-0.5,0-1,0.2-1.2,0.6c-0.2,0.6,0.4,1,1,1c0.5,0.1,1-0.1,1.2-0.5c0.1-0.2,0.1-0.4-0.1-0.6
				C208,183.3,207.7,183.2,207.2,183.2"/>
			<path class="st25" d="M206.9,184.3c-0.5-0.3-0.3-0.8,0.1-1.1c-0.3,0.1-0.6,0.2-0.7,0.5c-0.2,0.5,0.4,0.8,0.9,0.9
				c0.3,0,0.7,0,0.9-0.2C207.6,184.6,207.2,184.5,206.9,184.3z"/>
		</g>
	</g>
	<g>
		<path class="st21" d="M116.1,180.4c-0.2-0.3-0.7-0.4-1.1-0.4c0.6-0.1,1.3-0.6,1-1.1c-0.2-0.4-0.9-0.6-1.4-0.5
			c-0.5,0.2-0.8,0.5-0.9,0.9c0,0,0,0,0,0c0.1-0.2-0.1-0.6-0.3-0.8c-0.3-0.3-1.1-0.3-1.4,0c-0.3,0.3-0.4,0.7-0.1,1
			c0.2,0.1,0.4,0.3,0.6,0.3c-0.2,0-0.4,0-0.6,0.1c-0.4,0.1-0.8,0.4-0.8,0.8c0,0,0,0.1,0,0.1c0.1,0.4,0.6,0.6,1.1,0.5
			c0.3,0,0.7-0.2,0.9-0.4c0,0,0,0,0,0c-0.1,0.2-0.3,0.3-0.3,0.6c0,0.2,0.1,0.5,0.3,0.6c0.3,0.2,0.8,0.3,1.1,0.1
			c0.4-0.2,0.4-0.8,0.2-1.2c0.1,0.2,0.3,0.3,0.5,0.4c0.4,0.2,0.8,0.1,1.1-0.2C116.4,181,116.4,180.6,116.1,180.4z"/>
		<g>
			<path class="st22" d="M111.4,180.5c0.1,0.4,0.6,0.6,1.1,0.5c0.3-0.1,0.8-0.2,0.9-0.4c-0.1,0.2-0.3,0.4-0.3,0.6
				c0,0.2,0.1,0.5,0.3,0.6c0.3,0.2,0.8,0.3,1.1,0.1c0.5-0.3,0.3-1,0.1-1.4c0.1,0.2,0.3,0.4,0.6,0.5c0.4,0.2,0.8,0.1,1.1-0.2
				c0.3-0.3,0.3-0.7,0-0.9c-0.2-0.3-0.7-0.4-1.1-0.4c0.6-0.1,1.3-0.6,1-1.1c-0.2-0.4-0.9-0.6-1.4-0.5c-0.5,0.2-0.8,0.6-0.9,1
				c0.1-0.2-0.1-0.7-0.3-0.8c-0.3-0.3-1.1-0.3-1.4,0c-0.3,0.3-0.4,0.7-0.1,1c0.2,0.2,0.7,0.4,1.1,0.4c-0.1,0-0.2,0-0.3,0
				c-0.2,0-0.4,0-0.6,0c-0.4,0.1-0.8,0.4-0.8,0.8C111.4,180.4,111.4,180.4,111.4,180.5z"/>
			<path class="st23" d="M114,179c-0.5,0-1.1,0.2-1.3,0.7c-0.2,0.6,0.4,1,1.1,1.1c0.6,0.1,1.1-0.1,1.3-0.6c0.1-0.2,0.1-0.5-0.1-0.7
				C114.9,179.2,114.5,179,114,179"/>
			<path class="st24" d="M114,179c-0.5,0-1,0.2-1.2,0.6c-0.2,0.6,0.4,1,1,1c0.5,0.1,1-0.1,1.2-0.5c0.1-0.2,0.1-0.4-0.1-0.6
				C114.8,179.2,114.5,179.1,114,179"/>
			<path class="st25" d="M113.8,180.2c-0.5-0.3-0.3-0.8,0.1-1.1c-0.3,0.1-0.6,0.2-0.7,0.5c-0.2,0.5,0.4,0.8,0.9,0.9
				c0.3,0,0.7,0,0.9-0.2C114.5,180.4,114.1,180.4,113.8,180.2z"/>
		</g>
	</g>
	<g>
		<path class="st21" d="M136.5,183.8c-0.2-0.3-0.7-0.4-1.1-0.4c0.6-0.1,1.3-0.6,1-1.1c-0.2-0.4-0.9-0.6-1.4-0.5
			c-0.5,0.2-0.8,0.5-0.9,0.9c0,0,0,0,0,0c0.1-0.2-0.1-0.6-0.3-0.8c-0.3-0.3-1.1-0.3-1.4,0c-0.3,0.3-0.4,0.7-0.1,1
			c0.2,0.1,0.4,0.3,0.6,0.3c-0.2,0-0.4,0-0.6,0.1c-0.4,0.1-0.8,0.4-0.8,0.8c0,0,0,0.1,0,0.1c0.1,0.4,0.6,0.6,1.1,0.5
			c0.3,0,0.7-0.2,0.9-0.4c0,0,0,0,0,0c-0.1,0.2-0.3,0.3-0.3,0.6c0,0.2,0.1,0.5,0.3,0.6c0.3,0.2,0.8,0.3,1.1,0.1
			c0.4-0.2,0.4-0.8,0.2-1.2c0.1,0.2,0.3,0.3,0.5,0.4c0.4,0.2,0.8,0.1,1.1-0.2C136.8,184.5,136.7,184.1,136.5,183.8z"/>
		<g>
			<path class="st22" d="M131.8,183.9c0.1,0.4,0.6,0.6,1.1,0.5c0.3-0.1,0.8-0.2,0.9-0.4c-0.1,0.2-0.3,0.4-0.3,0.6
				c0,0.2,0.1,0.5,0.3,0.6c0.3,0.2,0.8,0.3,1.1,0.1c0.5-0.3,0.3-1,0.1-1.4c0.1,0.2,0.3,0.4,0.6,0.5c0.4,0.2,0.8,0.1,1.1-0.2
				c0.3-0.3,0.3-0.7,0-0.9c-0.2-0.3-0.7-0.4-1.1-0.4c0.6-0.1,1.3-0.6,1-1.1c-0.2-0.4-0.9-0.6-1.4-0.5c-0.5,0.2-0.8,0.6-0.9,1
				c0.1-0.2-0.1-0.7-0.3-0.8c-0.3-0.3-1.1-0.3-1.4,0c-0.3,0.3-0.4,0.7-0.1,1c0.2,0.2,0.7,0.4,1.1,0.4c-0.1,0-0.2,0-0.3,0
				c-0.2,0-0.4,0-0.6,0c-0.4,0.1-0.8,0.4-0.8,0.8C131.8,183.8,131.8,183.9,131.8,183.9z"/>
			<path class="st23" d="M134.4,182.4c-0.5,0-1.1,0.2-1.3,0.7c-0.2,0.6,0.4,1,1.1,1.1c0.6,0.1,1.1-0.1,1.3-0.6
				c0.1-0.2,0.1-0.5-0.1-0.7C135.3,182.6,134.9,182.5,134.4,182.4"/>
			<path class="st24" d="M134.4,182.4c-0.5,0-1,0.2-1.2,0.6c-0.2,0.6,0.4,1,1,1c0.5,0.1,1-0.1,1.2-0.5c0.1-0.2,0.1-0.4-0.1-0.6
				C135.2,182.6,134.9,182.5,134.4,182.4"/>
			<path class="st25" d="M134.2,183.6c-0.5-0.3-0.3-0.8,0.1-1.1c-0.3,0.1-0.6,0.2-0.7,0.5c-0.2,0.5,0.4,0.8,0.9,0.9
				c0.3,0,0.7,0,0.9-0.2C134.9,183.8,134.5,183.8,134.2,183.6z"/>
		</g>
	</g>
</g>
</svg>
