<?xml version="1.0" encoding="utf-8"?>
<!-- Generator: Adobe Illustrator 21.1.0, SVG Export Plug-In . SVG Version: 6.00 Build 0)  -->
<svg version="1.1" id="Layer_1" xmlns="http://www.w3.org/2000/svg" xmlns:xlink="http://www.w3.org/1999/xlink" x="0px" y="0px"
	 viewBox="0 0 50 50" style="enable-background:new 0 0 50 50;" xml:space="preserve">
<g id="surface83935">
	<path d="M25,6.3L12.5,18.8H4.2v12.5h8.3L25,43.8V6.3z M29.2,6.5v4.2c6.6,1,11.8,6.3,12.4,13c0,0.4,0.1,0.9,0.1,1.4
		c0,7.3-5.4,13.3-12.5,14.4v4.2c9.4-1,16.7-9,16.7-18.5S38.5,7.5,29.2,6.5z M29.2,14.8v4.4c2.5,0.8,4.2,3.1,4.2,5.8s-1.7,5-4.2,5.8
		v4.4c4.8-1,8.3-5.2,8.3-10.2S34,15.8,29.2,14.8z"/>
</g>
</svg>
